solid OpenSCAD_Model
  facet normal -0.382707 0.92387 0
    outer loop
      vertex -6.02606 5.81908 0
      vertex -6.26785 5.71892 7
      vertex -6.02606 5.81908 7
    endloop
  endfacet
  facet normal -0.382707 0.92387 0
    outer loop
      vertex -6.26785 5.71892 7
      vertex -6.02606 5.81908 0
      vertex -6.26785 5.71892 0
    endloop
  endfacet
  facet normal 0.0435964 -0.999049 0
    outer loop
      vertex 5 -6 0
      vertex 5.26147 -5.98859 7
      vertex 5 -6 7
    endloop
  endfacet
  facet normal 0.0435964 -0.999049 0
    outer loop
      vertex 5.26147 -5.98859 7
      vertex 5 -6 0
      vertex 5.26147 -5.98859 0
    endloop
  endfacet
  facet normal -0.843392 0.537298 0
    outer loop
      vertex -7.59808 4.5 0
      vertex -7.45746 4.72073 7
      vertex -7.45746 4.72073 0
    endloop
  endfacet
  facet normal -0.843392 0.537298 0
    outer loop
      vertex -7.45746 4.72073 7
      vertex -7.59808 4.5 0
      vertex -7.59808 4.5 7
    endloop
  endfacet
  facet normal 0.675579 0.737287 -0
    outer loop
      vertex 7.12132 5.12132 0
      vertex 6.92836 5.29813 7
      vertex 7.12132 5.12132 7
    endloop
  endfacet
  facet normal 0.675579 0.737287 0
    outer loop
      vertex 6.92836 5.29813 7
      vertex 7.12132 5.12132 0
      vertex 6.92836 5.29813 0
    endloop
  endfacet
  facet normal -0.0435964 -0.999049 0
    outer loop
      vertex -5.26147 -5.98859 0
      vertex -5 -6 7
      vertex -5.26147 -5.98859 7
    endloop
  endfacet
  facet normal -0.0435964 -0.999049 -0
    outer loop
      vertex -5 -6 7
      vertex -5.26147 -5.98859 0
      vertex -5 -6 0
    endloop
  endfacet
  facet normal -0.953715 0.300711 0
    outer loop
      vertex -7.89778 3.77646 0
      vertex -7.81908 4.02606 7
      vertex -7.81908 4.02606 0
    endloop
  endfacet
  facet normal -0.953715 0.300711 0
    outer loop
      vertex -7.81908 4.02606 7
      vertex -7.89778 3.77646 0
      vertex -7.89778 3.77646 7
    endloop
  endfacet
  facet normal 0.793335 0.608785 0
    outer loop
      vertex 7.45746 4.72073 7
      vertex 7.29813 4.92836 0
      vertex 7.29813 4.92836 7
    endloop
  endfacet
  facet normal 0.793335 0.608785 0
    outer loop
      vertex 7.29813 4.92836 0
      vertex 7.45746 4.72073 7
      vertex 7.45746 4.72073 0
    endloop
  endfacet
  facet normal -0.953715 -0.300711 0
    outer loop
      vertex -7.81908 -4.02606 0
      vertex -7.89778 -3.77646 7
      vertex -7.89778 -3.77646 0
    endloop
  endfacet
  facet normal -0.953715 -0.300711 0
    outer loop
      vertex -7.89778 -3.77646 7
      vertex -7.81908 -4.02606 0
      vertex -7.81908 -4.02606 7
    endloop
  endfacet
  facet normal -0.300711 0.953715 0
    outer loop
      vertex -5.77646 5.89778 0
      vertex -6.02606 5.81908 7
      vertex -5.77646 5.89778 7
    endloop
  endfacet
  facet normal -0.300711 0.953715 0
    outer loop
      vertex -6.02606 5.81908 7
      vertex -5.77646 5.89778 0
      vertex -6.02606 5.81908 0
    endloop
  endfacet
  facet normal 0.675579 -0.737287 0
    outer loop
      vertex 6.92836 -5.29813 0
      vertex 7.12132 -5.12132 7
      vertex 6.92836 -5.29813 7
    endloop
  endfacet
  facet normal 0.675579 -0.737287 0
    outer loop
      vertex 7.12132 -5.12132 7
      vertex 6.92836 -5.29813 0
      vertex 7.12132 -5.12132 0
    endloop
  endfacet
  facet normal -0.675579 -0.737287 0
    outer loop
      vertex -7.12132 -5.12132 0
      vertex -6.92836 -5.29813 7
      vertex -7.12132 -5.12132 7
    endloop
  endfacet
  facet normal -0.675579 -0.737287 -0
    outer loop
      vertex -6.92836 -5.29813 7
      vertex -7.12132 -5.12132 0
      vertex -6.92836 -5.29813 0
    endloop
  endfacet
  facet normal -0.537298 -0.843392 0
    outer loop
      vertex -6.72073 -5.45746 0
      vertex -6.5 -5.59808 7
      vertex -6.72073 -5.45746 7
    endloop
  endfacet
  facet normal -0.537298 -0.843392 -0
    outer loop
      vertex -6.5 -5.59808 7
      vertex -6.72073 -5.45746 0
      vertex -6.5 -5.59808 0
    endloop
  endfacet
  facet normal -0.0435964 0.999049 0
    outer loop
      vertex -5 6 0
      vertex -5.26147 5.98859 7
      vertex -5 6 7
    endloop
  endfacet
  facet normal -0.0435964 0.999049 0
    outer loop
      vertex -5.26147 5.98859 7
      vertex -5 6 0
      vertex -5.26147 5.98859 0
    endloop
  endfacet
  facet normal 0.953715 0.300711 0
    outer loop
      vertex 7.89778 3.77646 7
      vertex 7.81908 4.02606 0
      vertex 7.81908 4.02606 7
    endloop
  endfacet
  facet normal 0.953715 0.300711 0
    outer loop
      vertex 7.81908 4.02606 0
      vertex 7.89778 3.77646 7
      vertex 7.89778 3.77646 0
    endloop
  endfacet
  facet normal -0.46172 -0.887026 0
    outer loop
      vertex -6.5 -5.59808 0
      vertex -6.26785 -5.71892 7
      vertex -6.5 -5.59808 7
    endloop
  endfacet
  facet normal -0.46172 -0.887026 -0
    outer loop
      vertex -6.26785 -5.71892 7
      vertex -6.5 -5.59808 0
      vertex -6.26785 -5.71892 0
    endloop
  endfacet
  facet normal -0.608785 0.793335 0
    outer loop
      vertex -6.72073 5.45746 0
      vertex -6.92836 5.29813 7
      vertex -6.72073 5.45746 7
    endloop
  endfacet
  facet normal -0.608785 0.793335 0
    outer loop
      vertex -6.92836 5.29813 7
      vertex -6.72073 5.45746 0
      vertex -6.92836 5.29813 0
    endloop
  endfacet
  facet normal 0 -1 0
    outer loop
      vertex -5 -6 7
      vertex 0 -6 6
      vertex 5 -6 7
    endloop
  endfacet
  facet normal 0 -1 0
    outer loop
      vertex -5 -6 7
      vertex -0.305044 -6 5.98668
      vertex 0 -6 6
    endloop
  endfacet
  facet normal 0 -1 0
    outer loop
      vertex -5 -6 7
      vertex -0.607768 -6 5.94683
      vertex -0.305044 -6 5.98668
    endloop
  endfacet
  facet normal 0 -1 0
    outer loop
      vertex -5 -6 7
      vertex -0.905867 -6 5.88074
      vertex -0.607768 -6 5.94683
    endloop
  endfacet
  facet normal 0 -1 0
    outer loop
      vertex -5 -6 7
      vertex -1.19707 -6 5.78892
      vertex -0.905867 -6 5.88074
    endloop
  endfacet
  facet normal 0 -1 0
    outer loop
      vertex -5 -6 7
      vertex -1.47916 -6 5.67208
      vertex -1.19707 -6 5.78892
    endloop
  endfacet
  facet normal 0 -1 0
    outer loop
      vertex -5 -6 7
      vertex -1.75 -6 5.53109
      vertex -1.47916 -6 5.67208
    endloop
  endfacet
  facet normal 0 -1 0
    outer loop
      vertex -5 -6 7
      vertex -2.00752 -6 5.36703
      vertex -1.75 -6 5.53109
    endloop
  endfacet
  facet normal 0 -1 0
    outer loop
      vertex -5 -6 7
      vertex -2.24976 -6 5.18116
      vertex -2.00752 -6 5.36703
    endloop
  endfacet
  facet normal 0 -1 0
    outer loop
      vertex -5 -6 7
      vertex -2.47487 -6 4.97487
      vertex -2.24976 -6 5.18116
    endloop
  endfacet
  facet normal 0 -1 0
    outer loop
      vertex -5 -6 7
      vertex -2.68116 -6 4.74976
      vertex -2.47487 -6 4.97487
    endloop
  endfacet
  facet normal 0 -1 0
    outer loop
      vertex -5 -6 7
      vertex -2.86703 -6 4.50752
      vertex -2.68116 -6 4.74976
    endloop
  endfacet
  facet normal 0 -1 0
    outer loop
      vertex -5 -6 7
      vertex -3.03109 -6 4.25
      vertex -2.86703 -6 4.50752
    endloop
  endfacet
  facet normal 0 -1 0
    outer loop
      vertex -5 -6 7
      vertex -3.17208 -6 3.97916
      vertex -3.03109 -6 4.25
    endloop
  endfacet
  facet normal 0 -1 0
    outer loop
      vertex -5 -6 7
      vertex -3.28892 -6 3.69707
      vertex -3.17208 -6 3.97916
    endloop
  endfacet
  facet normal 0 -1 0
    outer loop
      vertex -5 -6 7
      vertex -3.38074 -6 3.40587
      vertex -3.28892 -6 3.69707
    endloop
  endfacet
  facet normal 0 -1 0
    outer loop
      vertex -5 -6 7
      vertex -3.44683 -6 3.10777
      vertex -3.38074 -6 3.40587
    endloop
  endfacet
  facet normal 0 -1 0
    outer loop
      vertex -5 -6 7
      vertex -3.48668 -6 2.80504
      vertex -3.44683 -6 3.10777
    endloop
  endfacet
  facet normal 0 -1 0
    outer loop
      vertex -5 -6 0
      vertex -3.48668 -6 2.80504
      vertex -5 -6 7
    endloop
  endfacet
  facet normal 0 -1 0
    outer loop
      vertex -3.48668 -6 2.80504
      vertex -5 -6 0
      vertex -3.5 -6 2.5
    endloop
  endfacet
  facet normal 0 -1 -0
    outer loop
      vertex -3.5 -6 2.5
      vertex -5 -6 0
      vertex -3.48668 -6 2.19495
    endloop
  endfacet
  facet normal 0 -1 -0
    outer loop
      vertex -3.48668 -6 2.19495
      vertex -5 -6 0
      vertex -3.44683 -6 1.89223
    endloop
  endfacet
  facet normal 0 -1 -0
    outer loop
      vertex -3.44683 -6 1.89223
      vertex -5 -6 0
      vertex -3.38074 -6 1.59413
    endloop
  endfacet
  facet normal 0 -1 0
    outer loop
      vertex -5 -6 0
      vertex -3.28892 -6 1.30293
      vertex -3.38074 -6 1.59413
    endloop
  endfacet
  facet normal 0 -1 0
    outer loop
      vertex -5 -6 0
      vertex -3.17208 -6 1.02084
      vertex -3.28892 -6 1.30293
    endloop
  endfacet
  facet normal 0 -1 0
    outer loop
      vertex -5 -6 0
      vertex -3.03109 -6 0.75
      vertex -3.17208 -6 1.02084
    endloop
  endfacet
  facet normal 0 -1 0
    outer loop
      vertex -5 -6 0
      vertex -2.86703 -6 0.492482
      vertex -3.03109 -6 0.75
    endloop
  endfacet
  facet normal 0 -1 0
    outer loop
      vertex -5 -6 0
      vertex -2.68116 -6 0.250243
      vertex -2.86703 -6 0.492482
    endloop
  endfacet
  facet normal 0 -1 0
    outer loop
      vertex -5 -6 0
      vertex -2.47487 -6 0.0251255
      vertex -2.68116 -6 0.250243
    endloop
  endfacet
  facet normal 0 -1 -0
    outer loop
      vertex -2.47487 -6 0.0251255
      vertex -5 -6 0
      vertex -2.44745 -6 0
    endloop
  endfacet
  facet normal 0 -1 0
    outer loop
      vertex 0.305044 -6 5.98668
      vertex 5 -6 7
      vertex 0 -6 6
    endloop
  endfacet
  facet normal 0 -1 0
    outer loop
      vertex 0.607768 -6 5.94683
      vertex 5 -6 7
      vertex 0.305044 -6 5.98668
    endloop
  endfacet
  facet normal 0 -1 0
    outer loop
      vertex 0.905867 -6 5.88074
      vertex 5 -6 7
      vertex 0.607768 -6 5.94683
    endloop
  endfacet
  facet normal 0 -1 0
    outer loop
      vertex 1.19707 -6 5.78892
      vertex 5 -6 7
      vertex 0.905867 -6 5.88074
    endloop
  endfacet
  facet normal 0 -1 0
    outer loop
      vertex 1.47916 -6 5.67208
      vertex 5 -6 7
      vertex 1.19707 -6 5.78892
    endloop
  endfacet
  facet normal 0 -1 0
    outer loop
      vertex 1.75 -6 5.53109
      vertex 5 -6 7
      vertex 1.47916 -6 5.67208
    endloop
  endfacet
  facet normal 0 -1 0
    outer loop
      vertex 2.00752 -6 5.36703
      vertex 5 -6 7
      vertex 1.75 -6 5.53109
    endloop
  endfacet
  facet normal 0 -1 0
    outer loop
      vertex 2.24976 -6 5.18116
      vertex 5 -6 7
      vertex 2.00752 -6 5.36703
    endloop
  endfacet
  facet normal 0 -1 0
    outer loop
      vertex 2.47487 -6 4.97487
      vertex 5 -6 7
      vertex 2.24976 -6 5.18116
    endloop
  endfacet
  facet normal 0 -1 0
    outer loop
      vertex 2.68116 -6 4.74976
      vertex 5 -6 7
      vertex 2.47487 -6 4.97487
    endloop
  endfacet
  facet normal 0 -1 0
    outer loop
      vertex 2.86703 -6 4.50752
      vertex 5 -6 7
      vertex 2.68116 -6 4.74976
    endloop
  endfacet
  facet normal 0 -1 0
    outer loop
      vertex 3.03109 -6 4.25
      vertex 5 -6 7
      vertex 2.86703 -6 4.50752
    endloop
  endfacet
  facet normal 0 -1 0
    outer loop
      vertex 3.17208 -6 3.97916
      vertex 5 -6 7
      vertex 3.03109 -6 4.25
    endloop
  endfacet
  facet normal 0 -1 0
    outer loop
      vertex 3.28892 -6 3.69707
      vertex 5 -6 7
      vertex 3.17208 -6 3.97916
    endloop
  endfacet
  facet normal 0 -1 0
    outer loop
      vertex 3.38074 -6 3.40587
      vertex 5 -6 7
      vertex 3.28892 -6 3.69707
    endloop
  endfacet
  facet normal 0 -1 0
    outer loop
      vertex 3.44683 -6 3.10777
      vertex 5 -6 7
      vertex 3.38074 -6 3.40587
    endloop
  endfacet
  facet normal 0 -1 0
    outer loop
      vertex 3.48668 -6 2.80504
      vertex 5 -6 7
      vertex 3.44683 -6 3.10777
    endloop
  endfacet
  facet normal 0 -1 0
    outer loop
      vertex 5 -6 0
      vertex 3.48668 -6 2.80504
      vertex 3.5 -6 2.5
    endloop
  endfacet
  facet normal 0 -1 0
    outer loop
      vertex 5 -6 0
      vertex 3.5 -6 2.5
      vertex 3.48668 -6 2.19495
    endloop
  endfacet
  facet normal 0 -1 0
    outer loop
      vertex 5 -6 0
      vertex 3.48668 -6 2.19495
      vertex 3.44683 -6 1.89223
    endloop
  endfacet
  facet normal 0 -1 0
    outer loop
      vertex 5 -6 0
      vertex 3.44683 -6 1.89223
      vertex 3.38074 -6 1.59413
    endloop
  endfacet
  facet normal 0 -1 0
    outer loop
      vertex 3.48668 -6 2.80504
      vertex 5 -6 0
      vertex 5 -6 7
    endloop
  endfacet
  facet normal 0 -1 0
    outer loop
      vertex 3.28892 -6 1.30293
      vertex 5 -6 0
      vertex 3.38074 -6 1.59413
    endloop
  endfacet
  facet normal 0 -1 0
    outer loop
      vertex 3.17208 -6 1.02084
      vertex 5 -6 0
      vertex 3.28892 -6 1.30293
    endloop
  endfacet
  facet normal 0 -1 0
    outer loop
      vertex 3.03109 -6 0.75
      vertex 5 -6 0
      vertex 3.17208 -6 1.02084
    endloop
  endfacet
  facet normal 0 -1 0
    outer loop
      vertex 2.86703 -6 0.492482
      vertex 5 -6 0
      vertex 3.03109 -6 0.75
    endloop
  endfacet
  facet normal 0 -1 0
    outer loop
      vertex 2.68116 -6 0.250243
      vertex 5 -6 0
      vertex 2.86703 -6 0.492482
    endloop
  endfacet
  facet normal 0 -1 0
    outer loop
      vertex 2.47487 -6 0.0251255
      vertex 5 -6 0
      vertex 2.68116 -6 0.250243
    endloop
  endfacet
  facet normal 0 -1 0
    outer loop
      vertex 5 -6 0
      vertex 2.47487 -6 0.0251255
      vertex 2.44745 -6 0
    endloop
  endfacet
  facet normal -0.537298 0.843392 0
    outer loop
      vertex -6.5 5.59808 0
      vertex -6.72073 5.45746 7
      vertex -6.5 5.59808 7
    endloop
  endfacet
  facet normal -0.537298 0.843392 0
    outer loop
      vertex -6.72073 5.45746 7
      vertex -6.5 5.59808 0
      vertex -6.72073 5.45746 0
    endloop
  endfacet
  facet normal -0.999049 0.0435964 0
    outer loop
      vertex -8 3 0
      vertex -7.98859 3.26147 7
      vertex -7.98859 3.26147 0
    endloop
  endfacet
  facet normal -0.999049 0.0435964 0
    outer loop
      vertex -7.98859 3.26147 7
      vertex -8 3 0
      vertex -8 3 7
    endloop
  endfacet
  facet normal -0.130559 -0.991441 0
    outer loop
      vertex -5.52095 -5.95442 0
      vertex -5.26147 -5.98859 7
      vertex -5.52095 -5.95442 7
    endloop
  endfacet
  facet normal -0.130559 -0.991441 -0
    outer loop
      vertex -5.26147 -5.98859 7
      vertex -5.52095 -5.95442 0
      vertex -5.26147 -5.98859 0
    endloop
  endfacet
  facet normal 0 1 0
    outer loop
      vertex 5 6 7
      vertex 0 6 6
      vertex -5 6 7
    endloop
  endfacet
  facet normal 0 1 0
    outer loop
      vertex 5 6 7
      vertex 0.305044 6 5.98668
      vertex 0 6 6
    endloop
  endfacet
  facet normal 0 1 0
    outer loop
      vertex 5 6 7
      vertex 0.607768 6 5.94683
      vertex 0.305044 6 5.98668
    endloop
  endfacet
  facet normal 0 1 0
    outer loop
      vertex 5 6 7
      vertex 0.905867 6 5.88074
      vertex 0.607768 6 5.94683
    endloop
  endfacet
  facet normal 0 1 0
    outer loop
      vertex 5 6 7
      vertex 1.19707 6 5.78892
      vertex 0.905867 6 5.88074
    endloop
  endfacet
  facet normal 0 1 0
    outer loop
      vertex 5 6 7
      vertex 1.47916 6 5.67208
      vertex 1.19707 6 5.78892
    endloop
  endfacet
  facet normal 0 1 0
    outer loop
      vertex 5 6 7
      vertex 1.75 6 5.53109
      vertex 1.47916 6 5.67208
    endloop
  endfacet
  facet normal 0 1 0
    outer loop
      vertex 5 6 7
      vertex 2.00752 6 5.36703
      vertex 1.75 6 5.53109
    endloop
  endfacet
  facet normal 0 1 0
    outer loop
      vertex 5 6 7
      vertex 2.24976 6 5.18116
      vertex 2.00752 6 5.36703
    endloop
  endfacet
  facet normal 0 1 0
    outer loop
      vertex 5 6 7
      vertex 2.47487 6 4.97487
      vertex 2.24976 6 5.18116
    endloop
  endfacet
  facet normal 0 1 0
    outer loop
      vertex 5 6 7
      vertex 2.68116 6 4.74976
      vertex 2.47487 6 4.97487
    endloop
  endfacet
  facet normal 0 1 0
    outer loop
      vertex 5 6 7
      vertex 2.86703 6 4.50752
      vertex 2.68116 6 4.74976
    endloop
  endfacet
  facet normal 0 1 0
    outer loop
      vertex 5 6 7
      vertex 3.03109 6 4.25
      vertex 2.86703 6 4.50752
    endloop
  endfacet
  facet normal 0 1 0
    outer loop
      vertex 5 6 7
      vertex 3.17208 6 3.97916
      vertex 3.03109 6 4.25
    endloop
  endfacet
  facet normal 0 1 0
    outer loop
      vertex 5 6 7
      vertex 3.28892 6 3.69707
      vertex 3.17208 6 3.97916
    endloop
  endfacet
  facet normal 0 1 0
    outer loop
      vertex 5 6 7
      vertex 3.38074 6 3.40587
      vertex 3.28892 6 3.69707
    endloop
  endfacet
  facet normal 0 1 0
    outer loop
      vertex 5 6 7
      vertex 3.44683 6 3.10777
      vertex 3.38074 6 3.40587
    endloop
  endfacet
  facet normal 0 1 0
    outer loop
      vertex 5 6 7
      vertex 3.48668 6 2.80504
      vertex 3.44683 6 3.10777
    endloop
  endfacet
  facet normal 0 1 -0
    outer loop
      vertex 5 6 0
      vertex 3.48668 6 2.80504
      vertex 5 6 7
    endloop
  endfacet
  facet normal 0 1 0
    outer loop
      vertex 3.48668 6 2.80504
      vertex 5 6 0
      vertex 3.5 6 2.5
    endloop
  endfacet
  facet normal 0 1 0
    outer loop
      vertex 3.5 6 2.5
      vertex 5 6 0
      vertex 3.48668 6 2.19495
    endloop
  endfacet
  facet normal 0 1 0
    outer loop
      vertex 3.48668 6 2.19495
      vertex 5 6 0
      vertex 3.44683 6 1.89223
    endloop
  endfacet
  facet normal 0 1 0
    outer loop
      vertex 3.44683 6 1.89223
      vertex 5 6 0
      vertex 3.38074 6 1.59413
    endloop
  endfacet
  facet normal 0 1 0
    outer loop
      vertex 5 6 0
      vertex 3.28892 6 1.30293
      vertex 3.38074 6 1.59413
    endloop
  endfacet
  facet normal 0 1 0
    outer loop
      vertex 5 6 0
      vertex 3.17208 6 1.02084
      vertex 3.28892 6 1.30293
    endloop
  endfacet
  facet normal 0 1 0
    outer loop
      vertex 5 6 0
      vertex 3.03109 6 0.75
      vertex 3.17208 6 1.02084
    endloop
  endfacet
  facet normal 0 1 0
    outer loop
      vertex 5 6 0
      vertex 2.86703 6 0.492482
      vertex 3.03109 6 0.75
    endloop
  endfacet
  facet normal 0 1 0
    outer loop
      vertex 5 6 0
      vertex 2.68116 6 0.250243
      vertex 2.86703 6 0.492482
    endloop
  endfacet
  facet normal 0 1 0
    outer loop
      vertex 5 6 0
      vertex 2.47487 6 0.0251255
      vertex 2.68116 6 0.250243
    endloop
  endfacet
  facet normal 0 1 0
    outer loop
      vertex 2.47487 6 0.0251255
      vertex 5 6 0
      vertex 2.44745 6 0
    endloop
  endfacet
  facet normal 0 1 -0
    outer loop
      vertex -0.305044 6 5.98668
      vertex -5 6 7
      vertex 0 6 6
    endloop
  endfacet
  facet normal 0 1 -0
    outer loop
      vertex -0.607768 6 5.94683
      vertex -5 6 7
      vertex -0.305044 6 5.98668
    endloop
  endfacet
  facet normal 0 1 -0
    outer loop
      vertex -0.905867 6 5.88074
      vertex -5 6 7
      vertex -0.607768 6 5.94683
    endloop
  endfacet
  facet normal 0 1 -0
    outer loop
      vertex -1.19707 6 5.78892
      vertex -5 6 7
      vertex -0.905867 6 5.88074
    endloop
  endfacet
  facet normal 0 1 -0
    outer loop
      vertex -1.47916 6 5.67208
      vertex -5 6 7
      vertex -1.19707 6 5.78892
    endloop
  endfacet
  facet normal 0 1 -0
    outer loop
      vertex -1.75 6 5.53109
      vertex -5 6 7
      vertex -1.47916 6 5.67208
    endloop
  endfacet
  facet normal 0 1 -0
    outer loop
      vertex -2.00752 6 5.36703
      vertex -5 6 7
      vertex -1.75 6 5.53109
    endloop
  endfacet
  facet normal 0 1 -0
    outer loop
      vertex -2.24976 6 5.18116
      vertex -5 6 7
      vertex -2.00752 6 5.36703
    endloop
  endfacet
  facet normal 0 1 -0
    outer loop
      vertex -2.47487 6 4.97487
      vertex -5 6 7
      vertex -2.24976 6 5.18116
    endloop
  endfacet
  facet normal 0 1 -0
    outer loop
      vertex -2.68116 6 4.74976
      vertex -5 6 7
      vertex -2.47487 6 4.97487
    endloop
  endfacet
  facet normal 0 1 -0
    outer loop
      vertex -2.86703 6 4.50752
      vertex -5 6 7
      vertex -2.68116 6 4.74976
    endloop
  endfacet
  facet normal 0 1 -0
    outer loop
      vertex -3.03109 6 4.25
      vertex -5 6 7
      vertex -2.86703 6 4.50752
    endloop
  endfacet
  facet normal 0 1 -0
    outer loop
      vertex -3.17208 6 3.97916
      vertex -5 6 7
      vertex -3.03109 6 4.25
    endloop
  endfacet
  facet normal 0 1 -0
    outer loop
      vertex -3.28892 6 3.69707
      vertex -5 6 7
      vertex -3.17208 6 3.97916
    endloop
  endfacet
  facet normal 0 1 -0
    outer loop
      vertex -3.38074 6 3.40587
      vertex -5 6 7
      vertex -3.28892 6 3.69707
    endloop
  endfacet
  facet normal 0 1 -0
    outer loop
      vertex -3.44683 6 3.10777
      vertex -5 6 7
      vertex -3.38074 6 3.40587
    endloop
  endfacet
  facet normal 0 1 -0
    outer loop
      vertex -3.48668 6 2.80504
      vertex -5 6 7
      vertex -3.44683 6 3.10777
    endloop
  endfacet
  facet normal 0 1 0
    outer loop
      vertex -5 6 0
      vertex -3.48668 6 2.80504
      vertex -3.5 6 2.5
    endloop
  endfacet
  facet normal 0 1 0
    outer loop
      vertex -5 6 0
      vertex -3.5 6 2.5
      vertex -3.48668 6 2.19495
    endloop
  endfacet
  facet normal 0 1 0
    outer loop
      vertex -5 6 0
      vertex -3.48668 6 2.19495
      vertex -3.44683 6 1.89223
    endloop
  endfacet
  facet normal 0 1 0
    outer loop
      vertex -5 6 0
      vertex -3.44683 6 1.89223
      vertex -3.38074 6 1.59413
    endloop
  endfacet
  facet normal 0 1 0
    outer loop
      vertex -3.48668 6 2.80504
      vertex -5 6 0
      vertex -5 6 7
    endloop
  endfacet
  facet normal 0 1 0
    outer loop
      vertex -3.28892 6 1.30293
      vertex -5 6 0
      vertex -3.38074 6 1.59413
    endloop
  endfacet
  facet normal 0 1 0
    outer loop
      vertex -3.17208 6 1.02084
      vertex -5 6 0
      vertex -3.28892 6 1.30293
    endloop
  endfacet
  facet normal 0 1 0
    outer loop
      vertex -3.03109 6 0.75
      vertex -5 6 0
      vertex -3.17208 6 1.02084
    endloop
  endfacet
  facet normal 0 1 0
    outer loop
      vertex -2.86703 6 0.492482
      vertex -5 6 0
      vertex -3.03109 6 0.75
    endloop
  endfacet
  facet normal 0 1 0
    outer loop
      vertex -2.68116 6 0.250243
      vertex -5 6 0
      vertex -2.86703 6 0.492482
    endloop
  endfacet
  facet normal 0 1 0
    outer loop
      vertex -2.47487 6 0.0251255
      vertex -5 6 0
      vertex -2.68116 6 0.250243
    endloop
  endfacet
  facet normal 0 1 0
    outer loop
      vertex -5 6 0
      vertex -2.47487 6 0.0251255
      vertex -2.44745 6 0
    endloop
  endfacet
  facet normal -0.999049 -0.0435964 0
    outer loop
      vertex -7.98859 -3.26147 0
      vertex -8 -3 7
      vertex -8 -3 0
    endloop
  endfacet
  facet normal -0.999049 -0.0435964 0
    outer loop
      vertex -8 -3 7
      vertex -7.98859 -3.26147 0
      vertex -7.98859 -3.26147 7
    endloop
  endfacet
  facet normal -0.991441 0.130559 0
    outer loop
      vertex -7.98859 3.26147 0
      vertex -7.95442 3.52095 7
      vertex -7.95442 3.52095 0
    endloop
  endfacet
  facet normal -0.991441 0.130559 0
    outer loop
      vertex -7.95442 3.52095 7
      vertex -7.98859 3.26147 0
      vertex -7.98859 3.26147 7
    endloop
  endfacet
  facet normal -0.9763 0.216421 0
    outer loop
      vertex -7.95442 3.52095 0
      vertex -7.89778 3.77646 7
      vertex -7.89778 3.77646 0
    endloop
  endfacet
  facet normal -0.9763 0.216421 0
    outer loop
      vertex -7.89778 3.77646 7
      vertex -7.95442 3.52095 0
      vertex -7.95442 3.52095 7
    endloop
  endfacet
  facet normal 0.999049 -0.0435964 0
    outer loop
      vertex 7.98859 -3.26147 7
      vertex 8 -3 0
      vertex 8 -3 7
    endloop
  endfacet
  facet normal 0.999049 -0.0435964 0
    outer loop
      vertex 8 -3 0
      vertex 7.98859 -3.26147 7
      vertex 7.98859 -3.26147 0
    endloop
  endfacet
  facet normal 0.537298 0.843392 -0
    outer loop
      vertex 6.72073 5.45746 0
      vertex 6.5 5.59808 7
      vertex 6.72073 5.45746 7
    endloop
  endfacet
  facet normal 0.537298 0.843392 0
    outer loop
      vertex 6.5 5.59808 7
      vertex 6.72073 5.45746 0
      vertex 6.5 5.59808 0
    endloop
  endfacet
  facet normal -0.843392 -0.537298 0
    outer loop
      vertex -7.45746 -4.72073 0
      vertex -7.59808 -4.5 7
      vertex -7.59808 -4.5 0
    endloop
  endfacet
  facet normal -0.843392 -0.537298 0
    outer loop
      vertex -7.59808 -4.5 7
      vertex -7.45746 -4.72073 0
      vertex -7.45746 -4.72073 7
    endloop
  endfacet
  facet normal -0.608785 -0.793335 0
    outer loop
      vertex -6.92836 -5.29813 0
      vertex -6.72073 -5.45746 7
      vertex -6.92836 -5.29813 7
    endloop
  endfacet
  facet normal -0.608785 -0.793335 -0
    outer loop
      vertex -6.72073 -5.45746 7
      vertex -6.92836 -5.29813 0
      vertex -6.72073 -5.45746 0
    endloop
  endfacet
  facet normal 0.608785 0.793335 -0
    outer loop
      vertex 6.92836 5.29813 0
      vertex 6.72073 5.45746 7
      vertex 6.92836 5.29813 7
    endloop
  endfacet
  facet normal 0.608785 0.793335 0
    outer loop
      vertex 6.72073 5.45746 7
      vertex 6.92836 5.29813 0
      vertex 6.72073 5.45746 0
    endloop
  endfacet
  facet normal 0.130559 -0.991441 0
    outer loop
      vertex 5.26147 -5.98859 0
      vertex 5.52095 -5.95442 7
      vertex 5.26147 -5.98859 7
    endloop
  endfacet
  facet normal 0.130559 -0.991441 0
    outer loop
      vertex 5.52095 -5.95442 7
      vertex 5.26147 -5.98859 0
      vertex 5.52095 -5.95442 0
    endloop
  endfacet
  facet normal 0.887026 -0.46172 0
    outer loop
      vertex 7.59808 -4.5 7
      vertex 7.71892 -4.26785 0
      vertex 7.71892 -4.26785 7
    endloop
  endfacet
  facet normal 0.887026 -0.46172 0
    outer loop
      vertex 7.71892 -4.26785 0
      vertex 7.59808 -4.5 7
      vertex 7.59808 -4.5 0
    endloop
  endfacet
  facet normal -0.92387 -0.382707 0
    outer loop
      vertex -7.71892 -4.26785 0
      vertex -7.81908 -4.02606 7
      vertex -7.81908 -4.02606 0
    endloop
  endfacet
  facet normal -0.92387 -0.382707 0
    outer loop
      vertex -7.81908 -4.02606 7
      vertex -7.71892 -4.26785 0
      vertex -7.71892 -4.26785 7
    endloop
  endfacet
  facet normal -0.92387 0.382707 0
    outer loop
      vertex -7.81908 4.02606 0
      vertex -7.71892 4.26785 7
      vertex -7.71892 4.26785 0
    endloop
  endfacet
  facet normal -0.92387 0.382707 0
    outer loop
      vertex -7.71892 4.26785 7
      vertex -7.81908 4.02606 0
      vertex -7.81908 4.02606 7
    endloop
  endfacet
  facet normal 0.130559 0.991441 -0
    outer loop
      vertex 5.52095 5.95442 0
      vertex 5.26147 5.98859 7
      vertex 5.52095 5.95442 7
    endloop
  endfacet
  facet normal 0.130559 0.991441 0
    outer loop
      vertex 5.26147 5.98859 7
      vertex 5.52095 5.95442 0
      vertex 5.26147 5.98859 0
    endloop
  endfacet
  facet normal 0.991441 0.130559 0
    outer loop
      vertex 7.98859 3.26147 7
      vertex 7.95442 3.52095 0
      vertex 7.95442 3.52095 7
    endloop
  endfacet
  facet normal 0.991441 0.130559 0
    outer loop
      vertex 7.95442 3.52095 0
      vertex 7.98859 3.26147 7
      vertex 7.98859 3.26147 0
    endloop
  endfacet
  facet normal -0.382707 -0.92387 0
    outer loop
      vertex -6.26785 -5.71892 0
      vertex -6.02606 -5.81908 7
      vertex -6.26785 -5.71892 7
    endloop
  endfacet
  facet normal -0.382707 -0.92387 -0
    outer loop
      vertex -6.02606 -5.81908 7
      vertex -6.26785 -5.71892 0
      vertex -6.02606 -5.81908 0
    endloop
  endfacet
  facet normal 0 0 -1
    outer loop
      vertex -8 -3 0
      vertex -2.44745 -6 0
      vertex -5 -6 0
    endloop
  endfacet
  facet normal 0 0 -1
    outer loop
      vertex -2.44745 -6 0
      vertex -8 -3 0
      vertex -2.44745 6 0
    endloop
  endfacet
  facet normal 0 0 -1
    outer loop
      vertex -8 -3 0
      vertex -5 -6 0
      vertex -5.26147 -5.98859 0
    endloop
  endfacet
  facet normal 0 0 -1
    outer loop
      vertex -8 3 0
      vertex -2.44745 6 0
      vertex -8 -3 0
    endloop
  endfacet
  facet normal 0 0 -1
    outer loop
      vertex -8 -3 0
      vertex -5.26147 -5.98859 0
      vertex -5.52095 -5.95442 0
    endloop
  endfacet
  facet normal -0 0 -1
    outer loop
      vertex -2.44745 6 0
      vertex -8 3 0
      vertex -5 6 0
    endloop
  endfacet
  facet normal 0 0 -1
    outer loop
      vertex -8 -3 0
      vertex -5.52095 -5.95442 0
      vertex -5.77646 -5.89778 0
    endloop
  endfacet
  facet normal 0 0 -1
    outer loop
      vertex -5 6 0
      vertex -8 3 0
      vertex -5.26147 5.98859 0
    endloop
  endfacet
  facet normal 0 0 -1
    outer loop
      vertex -8 -3 0
      vertex -5.77646 -5.89778 0
      vertex -6.02606 -5.81908 0
    endloop
  endfacet
  facet normal 0 0 -1
    outer loop
      vertex -5.26147 5.98859 0
      vertex -8 3 0
      vertex -5.52095 5.95442 0
    endloop
  endfacet
  facet normal 0 0 -1
    outer loop
      vertex -8 -3 0
      vertex -6.02606 -5.81908 0
      vertex -6.26785 -5.71892 0
    endloop
  endfacet
  facet normal 0 0 -1
    outer loop
      vertex -5.52095 5.95442 0
      vertex -8 3 0
      vertex -5.77646 5.89778 0
    endloop
  endfacet
  facet normal 0 0 -1
    outer loop
      vertex -8 -3 0
      vertex -6.26785 -5.71892 0
      vertex -6.5 -5.59808 0
    endloop
  endfacet
  facet normal 0 0 -1
    outer loop
      vertex -5.77646 5.89778 0
      vertex -8 3 0
      vertex -6.02606 5.81908 0
    endloop
  endfacet
  facet normal 0 0 -1
    outer loop
      vertex -8 -3 0
      vertex -6.5 -5.59808 0
      vertex -6.72073 -5.45746 0
    endloop
  endfacet
  facet normal 0 0 -1
    outer loop
      vertex -6.02606 5.81908 0
      vertex -8 3 0
      vertex -6.26785 5.71892 0
    endloop
  endfacet
  facet normal 0 0 -1
    outer loop
      vertex -8 -3 0
      vertex -6.72073 -5.45746 0
      vertex -6.92836 -5.29813 0
    endloop
  endfacet
  facet normal 0 0 -1
    outer loop
      vertex -6.26785 5.71892 0
      vertex -8 3 0
      vertex -6.5 5.59808 0
    endloop
  endfacet
  facet normal 0 0 -1
    outer loop
      vertex -8 -3 0
      vertex -6.92836 -5.29813 0
      vertex -7.12132 -5.12132 0
    endloop
  endfacet
  facet normal 0 0 -1
    outer loop
      vertex -6.5 5.59808 0
      vertex -8 3 0
      vertex -6.72073 5.45746 0
    endloop
  endfacet
  facet normal 0 0 -1
    outer loop
      vertex -8 -3 0
      vertex -7.12132 -5.12132 0
      vertex -7.29813 -4.92836 0
    endloop
  endfacet
  facet normal 0 0 -1
    outer loop
      vertex -6.72073 5.45746 0
      vertex -8 3 0
      vertex -6.92836 5.29813 0
    endloop
  endfacet
  facet normal 0 0 -1
    outer loop
      vertex -8 -3 0
      vertex -7.29813 -4.92836 0
      vertex -7.45746 -4.72073 0
    endloop
  endfacet
  facet normal 0 0 -1
    outer loop
      vertex -6.92836 5.29813 0
      vertex -8 3 0
      vertex -7.12132 5.12132 0
    endloop
  endfacet
  facet normal 0 0 -1
    outer loop
      vertex -8 -3 0
      vertex -7.45746 -4.72073 0
      vertex -7.59808 -4.5 0
    endloop
  endfacet
  facet normal 0 0 -1
    outer loop
      vertex -7.12132 5.12132 0
      vertex -8 3 0
      vertex -7.29813 4.92836 0
    endloop
  endfacet
  facet normal 0 0 -1
    outer loop
      vertex -8 -3 0
      vertex -7.59808 -4.5 0
      vertex -7.71892 -4.26785 0
    endloop
  endfacet
  facet normal 0 0 -1
    outer loop
      vertex -7.29813 4.92836 0
      vertex -8 3 0
      vertex -7.45746 4.72073 0
    endloop
  endfacet
  facet normal 0 0 -1
    outer loop
      vertex -8 -3 0
      vertex -7.71892 -4.26785 0
      vertex -7.81908 -4.02606 0
    endloop
  endfacet
  facet normal 0 0 -1
    outer loop
      vertex -7.45746 4.72073 0
      vertex -8 3 0
      vertex -7.59808 4.5 0
    endloop
  endfacet
  facet normal 0 0 -1
    outer loop
      vertex -8 -3 0
      vertex -7.81908 -4.02606 0
      vertex -7.89778 -3.77646 0
    endloop
  endfacet
  facet normal 0 0 -1
    outer loop
      vertex -7.59808 4.5 0
      vertex -8 3 0
      vertex -7.71892 4.26785 0
    endloop
  endfacet
  facet normal 0 0 -1
    outer loop
      vertex -8 -3 0
      vertex -7.89778 -3.77646 0
      vertex -7.95442 -3.52095 0
    endloop
  endfacet
  facet normal 0 0 -1
    outer loop
      vertex -7.71892 4.26785 0
      vertex -8 3 0
      vertex -7.81908 4.02606 0
    endloop
  endfacet
  facet normal 0 0 -1
    outer loop
      vertex -8 -3 0
      vertex -7.95442 -3.52095 0
      vertex -7.98859 -3.26147 0
    endloop
  endfacet
  facet normal 0 0 -1
    outer loop
      vertex -7.81908 4.02606 0
      vertex -8 3 0
      vertex -7.89778 3.77646 0
    endloop
  endfacet
  facet normal 0 0 -1
    outer loop
      vertex -7.89778 3.77646 0
      vertex -8 3 0
      vertex -7.95442 3.52095 0
    endloop
  endfacet
  facet normal 0 0 -1
    outer loop
      vertex -7.95442 3.52095 0
      vertex -8 3 0
      vertex -7.98859 3.26147 0
    endloop
  endfacet
  facet normal 0 0 -1
    outer loop
      vertex 5 -6 0
      vertex 8 -3 0
      vertex 7.98859 -3.26147 0
    endloop
  endfacet
  facet normal -0 0 -1
    outer loop
      vertex 8 -3 0
      vertex 2.44745 -6 0
      vertex 8 3 0
    endloop
  endfacet
  facet normal 0 0 -1
    outer loop
      vertex 5 -6 0
      vertex 7.98859 -3.26147 0
      vertex 7.95442 -3.52095 0
    endloop
  endfacet
  facet normal 0 0 -1
    outer loop
      vertex 2.44745 6 0
      vertex 8 3 0
      vertex 2.44745 -6 0
    endloop
  endfacet
  facet normal 0 0 -1
    outer loop
      vertex 5 -6 0
      vertex 7.95442 -3.52095 0
      vertex 7.89778 -3.77646 0
    endloop
  endfacet
  facet normal -0 -0 -1
    outer loop
      vertex 5 6 0
      vertex 8 3 0
      vertex 2.44745 6 0
    endloop
  endfacet
  facet normal 0 0 -1
    outer loop
      vertex 5 -6 0
      vertex 7.89778 -3.77646 0
      vertex 7.81908 -4.02606 0
    endloop
  endfacet
  facet normal 0 0 -1
    outer loop
      vertex 8 3 0
      vertex 5 6 0
      vertex 7.98859 3.26147 0
    endloop
  endfacet
  facet normal 0 0 -1
    outer loop
      vertex 5 -6 0
      vertex 7.81908 -4.02606 0
      vertex 7.71892 -4.26785 0
    endloop
  endfacet
  facet normal 0 0 -1
    outer loop
      vertex 7.98859 3.26147 0
      vertex 5 6 0
      vertex 7.95442 3.52095 0
    endloop
  endfacet
  facet normal 0 0 -1
    outer loop
      vertex 5 -6 0
      vertex 7.71892 -4.26785 0
      vertex 7.59808 -4.5 0
    endloop
  endfacet
  facet normal 0 0 -1
    outer loop
      vertex 7.95442 3.52095 0
      vertex 5 6 0
      vertex 7.89778 3.77646 0
    endloop
  endfacet
  facet normal 0 0 -1
    outer loop
      vertex 5 -6 0
      vertex 7.59808 -4.5 0
      vertex 7.45746 -4.72073 0
    endloop
  endfacet
  facet normal 0 0 -1
    outer loop
      vertex 7.89778 3.77646 0
      vertex 5 6 0
      vertex 7.81908 4.02606 0
    endloop
  endfacet
  facet normal 0 0 -1
    outer loop
      vertex 5 -6 0
      vertex 7.45746 -4.72073 0
      vertex 7.29813 -4.92836 0
    endloop
  endfacet
  facet normal 0 0 -1
    outer loop
      vertex 7.81908 4.02606 0
      vertex 5 6 0
      vertex 7.71892 4.26785 0
    endloop
  endfacet
  facet normal 0 0 -1
    outer loop
      vertex 5 -6 0
      vertex 7.29813 -4.92836 0
      vertex 7.12132 -5.12132 0
    endloop
  endfacet
  facet normal 0 0 -1
    outer loop
      vertex 8 -3 0
      vertex 5 -6 0
      vertex 2.44745 -6 0
    endloop
  endfacet
  facet normal 0 0 -1
    outer loop
      vertex 5 -6 0
      vertex 7.12132 -5.12132 0
      vertex 6.92836 -5.29813 0
    endloop
  endfacet
  facet normal 0 0 -1
    outer loop
      vertex 7.71892 4.26785 0
      vertex 5 6 0
      vertex 7.59808 4.5 0
    endloop
  endfacet
  facet normal 0 0 -1
    outer loop
      vertex 5 -6 0
      vertex 6.92836 -5.29813 0
      vertex 6.72073 -5.45746 0
    endloop
  endfacet
  facet normal 0 0 -1
    outer loop
      vertex 7.29813 4.92836 0
      vertex 5 6 0
      vertex 7.12132 5.12132 0
    endloop
  endfacet
  facet normal 0 0 -1
    outer loop
      vertex 5 -6 0
      vertex 6.72073 -5.45746 0
      vertex 6.5 -5.59808 0
    endloop
  endfacet
  facet normal 0 0 -1
    outer loop
      vertex 7.12132 5.12132 0
      vertex 5 6 0
      vertex 6.92836 5.29813 0
    endloop
  endfacet
  facet normal 0 0 -1
    outer loop
      vertex 5 -6 0
      vertex 6.5 -5.59808 0
      vertex 6.26785 -5.71892 0
    endloop
  endfacet
  facet normal 0 0 -1
    outer loop
      vertex 6.92836 5.29813 0
      vertex 5 6 0
      vertex 6.72073 5.45746 0
    endloop
  endfacet
  facet normal 0 0 -1
    outer loop
      vertex 5 -6 0
      vertex 6.26785 -5.71892 0
      vertex 6.02606 -5.81908 0
    endloop
  endfacet
  facet normal 0 0 -1
    outer loop
      vertex 6.72073 5.45746 0
      vertex 5 6 0
      vertex 6.5 5.59808 0
    endloop
  endfacet
  facet normal 0 0 -1
    outer loop
      vertex 5 -6 0
      vertex 6.02606 -5.81908 0
      vertex 5.77646 -5.89778 0
    endloop
  endfacet
  facet normal 0 0 -1
    outer loop
      vertex 6.5 5.59808 0
      vertex 5 6 0
      vertex 6.26785 5.71892 0
    endloop
  endfacet
  facet normal 0 0 -1
    outer loop
      vertex 5 -6 0
      vertex 5.77646 -5.89778 0
      vertex 5.52095 -5.95442 0
    endloop
  endfacet
  facet normal 0 0 -1
    outer loop
      vertex 6.26785 5.71892 0
      vertex 5 6 0
      vertex 6.02606 5.81908 0
    endloop
  endfacet
  facet normal 0 0 -1
    outer loop
      vertex 5 -6 0
      vertex 5.52095 -5.95442 0
      vertex 5.26147 -5.98859 0
    endloop
  endfacet
  facet normal 0 0 -1
    outer loop
      vertex 6.02606 5.81908 0
      vertex 5 6 0
      vertex 5.77646 5.89778 0
    endloop
  endfacet
  facet normal 0 0 -1
    outer loop
      vertex 5.77646 5.89778 0
      vertex 5 6 0
      vertex 5.52095 5.95442 0
    endloop
  endfacet
  facet normal 0 0 -1
    outer loop
      vertex 5.52095 5.95442 0
      vertex 5 6 0
      vertex 5.26147 5.98859 0
    endloop
  endfacet
  facet normal 0 0 -1
    outer loop
      vertex 7.59808 4.5 0
      vertex 5 6 0
      vertex 7.45746 4.72073 0
    endloop
  endfacet
  facet normal 0 0 -1
    outer loop
      vertex 7.45746 4.72073 0
      vertex 5 6 0
      vertex 7.29813 4.92836 0
    endloop
  endfacet
  facet normal 0.300711 0.953715 -0
    outer loop
      vertex 6.02606 5.81908 0
      vertex 5.77646 5.89778 7
      vertex 6.02606 5.81908 7
    endloop
  endfacet
  facet normal 0.300711 0.953715 0
    outer loop
      vertex 5.77646 5.89778 7
      vertex 6.02606 5.81908 0
      vertex 5.77646 5.89778 0
    endloop
  endfacet
  facet normal -0.737287 -0.675579 0
    outer loop
      vertex -7.12132 -5.12132 0
      vertex -7.29813 -4.92836 7
      vertex -7.29813 -4.92836 0
    endloop
  endfacet
  facet normal -0.737287 -0.675579 0
    outer loop
      vertex -7.29813 -4.92836 7
      vertex -7.12132 -5.12132 0
      vertex -7.12132 -5.12132 7
    endloop
  endfacet
  facet normal -1 0 0
    outer loop
      vertex -8 -3 0
      vertex -8 3 7
      vertex -8 3 0
    endloop
  endfacet
  facet normal -1 -0 0
    outer loop
      vertex -8 3 7
      vertex -8 -3 0
      vertex -8 -3 7
    endloop
  endfacet
  facet normal 0.216421 0.9763 -0
    outer loop
      vertex 5.77646 5.89778 0
      vertex 5.52095 5.95442 7
      vertex 5.77646 5.89778 7
    endloop
  endfacet
  facet normal 0.216421 0.9763 0
    outer loop
      vertex 5.52095 5.95442 7
      vertex 5.77646 5.89778 0
      vertex 5.52095 5.95442 0
    endloop
  endfacet
  facet normal 0.46172 -0.887026 0
    outer loop
      vertex 6.26785 -5.71892 0
      vertex 6.5 -5.59808 7
      vertex 6.26785 -5.71892 7
    endloop
  endfacet
  facet normal 0.46172 -0.887026 0
    outer loop
      vertex 6.5 -5.59808 7
      vertex 6.26785 -5.71892 0
      vertex 6.5 -5.59808 0
    endloop
  endfacet
  facet normal -0.300711 -0.953715 0
    outer loop
      vertex -6.02606 -5.81908 0
      vertex -5.77646 -5.89778 7
      vertex -6.02606 -5.81908 7
    endloop
  endfacet
  facet normal -0.300711 -0.953715 -0
    outer loop
      vertex -5.77646 -5.89778 7
      vertex -6.02606 -5.81908 0
      vertex -5.77646 -5.89778 0
    endloop
  endfacet
  facet normal -0.216421 0.9763 0
    outer loop
      vertex -5.52095 5.95442 0
      vertex -5.77646 5.89778 7
      vertex -5.52095 5.95442 7
    endloop
  endfacet
  facet normal -0.216421 0.9763 0
    outer loop
      vertex -5.77646 5.89778 7
      vertex -5.52095 5.95442 0
      vertex -5.77646 5.89778 0
    endloop
  endfacet
  facet normal -0.216421 -0.9763 0
    outer loop
      vertex -5.77646 -5.89778 0
      vertex -5.52095 -5.95442 7
      vertex -5.77646 -5.89778 7
    endloop
  endfacet
  facet normal -0.216421 -0.9763 -0
    outer loop
      vertex -5.52095 -5.95442 7
      vertex -5.77646 -5.89778 0
      vertex -5.52095 -5.95442 0
    endloop
  endfacet
  facet normal 0.843392 -0.537298 0
    outer loop
      vertex 7.45746 -4.72073 7
      vertex 7.59808 -4.5 0
      vertex 7.59808 -4.5 7
    endloop
  endfacet
  facet normal 0.843392 -0.537298 0
    outer loop
      vertex 7.59808 -4.5 0
      vertex 7.45746 -4.72073 7
      vertex 7.45746 -4.72073 0
    endloop
  endfacet
  facet normal -0.675579 0.737287 0
    outer loop
      vertex -6.92836 5.29813 0
      vertex -7.12132 5.12132 7
      vertex -6.92836 5.29813 7
    endloop
  endfacet
  facet normal -0.675579 0.737287 0
    outer loop
      vertex -7.12132 5.12132 7
      vertex -6.92836 5.29813 0
      vertex -7.12132 5.12132 0
    endloop
  endfacet
  facet normal 0.737287 0.675579 0
    outer loop
      vertex 7.29813 4.92836 7
      vertex 7.12132 5.12132 0
      vertex 7.12132 5.12132 7
    endloop
  endfacet
  facet normal 0.737287 0.675579 0
    outer loop
      vertex 7.12132 5.12132 0
      vertex 7.29813 4.92836 7
      vertex 7.29813 4.92836 0
    endloop
  endfacet
  facet normal -0.130559 0.991441 0
    outer loop
      vertex -5.26147 5.98859 0
      vertex -5.52095 5.95442 7
      vertex -5.26147 5.98859 7
    endloop
  endfacet
  facet normal -0.130559 0.991441 0
    outer loop
      vertex -5.52095 5.95442 7
      vertex -5.26147 5.98859 0
      vertex -5.52095 5.95442 0
    endloop
  endfacet
  facet normal 0 0 1
    outer loop
      vertex 5 6 7
      vertex 8 3 7
      vertex 7.98859 3.26147 7
    endloop
  endfacet
  facet normal 0 0 1
    outer loop
      vertex 8 3 7
      vertex 5 6 7
      vertex 8 -3 7
    endloop
  endfacet
  facet normal 0 0 1
    outer loop
      vertex 5 6 7
      vertex 7.98859 3.26147 7
      vertex 7.95442 3.52095 7
    endloop
  endfacet
  facet normal 0 0 1
    outer loop
      vertex 5 -6 7
      vertex 8 -3 7
      vertex 5 6 7
    endloop
  endfacet
  facet normal 0 0 1
    outer loop
      vertex 5 6 7
      vertex 7.95442 3.52095 7
      vertex 7.89778 3.77646 7
    endloop
  endfacet
  facet normal 0 0 1
    outer loop
      vertex 8 -3 7
      vertex 5 -6 7
      vertex 7.98859 -3.26147 7
    endloop
  endfacet
  facet normal 0 0 1
    outer loop
      vertex 5 6 7
      vertex 7.89778 3.77646 7
      vertex 7.81908 4.02606 7
    endloop
  endfacet
  facet normal 0 0 1
    outer loop
      vertex 7.98859 -3.26147 7
      vertex 5 -6 7
      vertex 7.95442 -3.52095 7
    endloop
  endfacet
  facet normal 0 0 1
    outer loop
      vertex 5 6 7
      vertex 7.81908 4.02606 7
      vertex 7.71892 4.26785 7
    endloop
  endfacet
  facet normal 0 0 1
    outer loop
      vertex 7.95442 -3.52095 7
      vertex 5 -6 7
      vertex 7.89778 -3.77646 7
    endloop
  endfacet
  facet normal 0 0 1
    outer loop
      vertex 5 6 7
      vertex 7.71892 4.26785 7
      vertex 7.59808 4.5 7
    endloop
  endfacet
  facet normal 0 0 1
    outer loop
      vertex 7.89778 -3.77646 7
      vertex 5 -6 7
      vertex 7.81908 -4.02606 7
    endloop
  endfacet
  facet normal 0 0 1
    outer loop
      vertex 5 6 7
      vertex 7.59808 4.5 7
      vertex 7.45746 4.72073 7
    endloop
  endfacet
  facet normal 0 0 1
    outer loop
      vertex 7.81908 -4.02606 7
      vertex 5 -6 7
      vertex 7.71892 -4.26785 7
    endloop
  endfacet
  facet normal 0 0 1
    outer loop
      vertex 5 6 7
      vertex 7.45746 4.72073 7
      vertex 7.29813 4.92836 7
    endloop
  endfacet
  facet normal 0 0 1
    outer loop
      vertex 7.71892 -4.26785 7
      vertex 5 -6 7
      vertex 7.59808 -4.5 7
    endloop
  endfacet
  facet normal 0 0 1
    outer loop
      vertex 5 6 7
      vertex 7.29813 4.92836 7
      vertex 7.12132 5.12132 7
    endloop
  endfacet
  facet normal 0 0 1
    outer loop
      vertex 7.59808 -4.5 7
      vertex 5 -6 7
      vertex 7.45746 -4.72073 7
    endloop
  endfacet
  facet normal 0 0 1
    outer loop
      vertex 5 6 7
      vertex 7.12132 5.12132 7
      vertex 6.92836 5.29813 7
    endloop
  endfacet
  facet normal 0 0 1
    outer loop
      vertex 7.45746 -4.72073 7
      vertex 5 -6 7
      vertex 7.29813 -4.92836 7
    endloop
  endfacet
  facet normal 0 0 1
    outer loop
      vertex 5 6 7
      vertex 6.92836 5.29813 7
      vertex 6.72073 5.45746 7
    endloop
  endfacet
  facet normal 0 0 1
    outer loop
      vertex 7.29813 -4.92836 7
      vertex 5 -6 7
      vertex 7.12132 -5.12132 7
    endloop
  endfacet
  facet normal 0 0 1
    outer loop
      vertex 5 6 7
      vertex 6.72073 5.45746 7
      vertex 6.5 5.59808 7
    endloop
  endfacet
  facet normal 0 0 1
    outer loop
      vertex 7.12132 -5.12132 7
      vertex 5 -6 7
      vertex 6.92836 -5.29813 7
    endloop
  endfacet
  facet normal 0 0 1
    outer loop
      vertex 5 6 7
      vertex 6.5 5.59808 7
      vertex 6.26785 5.71892 7
    endloop
  endfacet
  facet normal 0 0 1
    outer loop
      vertex 6.92836 -5.29813 7
      vertex 5 -6 7
      vertex 6.72073 -5.45746 7
    endloop
  endfacet
  facet normal 0 0 1
    outer loop
      vertex 5 6 7
      vertex 6.26785 5.71892 7
      vertex 6.02606 5.81908 7
    endloop
  endfacet
  facet normal 0 0 1
    outer loop
      vertex 6.72073 -5.45746 7
      vertex 5 -6 7
      vertex 6.5 -5.59808 7
    endloop
  endfacet
  facet normal 0 0 1
    outer loop
      vertex 5 6 7
      vertex 6.02606 5.81908 7
      vertex 5.77646 5.89778 7
    endloop
  endfacet
  facet normal 0 0 1
    outer loop
      vertex 6.5 -5.59808 7
      vertex 5 -6 7
      vertex 6.26785 -5.71892 7
    endloop
  endfacet
  facet normal 0 0 1
    outer loop
      vertex 5 6 7
      vertex 5.77646 5.89778 7
      vertex 5.52095 5.95442 7
    endloop
  endfacet
  facet normal 0 0 1
    outer loop
      vertex 6.26785 -5.71892 7
      vertex 5 -6 7
      vertex 6.02606 -5.81908 7
    endloop
  endfacet
  facet normal 0 0 1
    outer loop
      vertex 5 6 7
      vertex 5.52095 5.95442 7
      vertex 5.26147 5.98859 7
    endloop
  endfacet
  facet normal 0 0 1
    outer loop
      vertex 6.02606 -5.81908 7
      vertex 5 -6 7
      vertex 5.77646 -5.89778 7
    endloop
  endfacet
  facet normal 0 0 1
    outer loop
      vertex 5.77646 -5.89778 7
      vertex 5 -6 7
      vertex 5.52095 -5.95442 7
    endloop
  endfacet
  facet normal 0 0 1
    outer loop
      vertex 5.52095 -5.95442 7
      vertex 5 -6 7
      vertex 5.26147 -5.98859 7
    endloop
  endfacet
  facet normal -0 0 1
    outer loop
      vertex -5 6 7
      vertex 5 -6 7
      vertex 5 6 7
    endloop
  endfacet
  facet normal 0 0 1
    outer loop
      vertex -5 6 7
      vertex -5 -6 7
      vertex 5 -6 7
    endloop
  endfacet
  facet normal 0 0 1
    outer loop
      vertex -8 3 7
      vertex -5 6 7
      vertex -5.26147 5.98859 7
    endloop
  endfacet
  facet normal 0 0 1
    outer loop
      vertex -5 6 7
      vertex -8 3 7
      vertex -5 -6 7
    endloop
  endfacet
  facet normal 0 0 1
    outer loop
      vertex -8 3 7
      vertex -5.26147 5.98859 7
      vertex -5.52095 5.95442 7
    endloop
  endfacet
  facet normal -0 0 1
    outer loop
      vertex -8 -3 7
      vertex -5 -6 7
      vertex -8 3 7
    endloop
  endfacet
  facet normal 0 0 1
    outer loop
      vertex -8 3 7
      vertex -5.52095 5.95442 7
      vertex -5.77646 5.89778 7
    endloop
  endfacet
  facet normal 0 0 1
    outer loop
      vertex -5 -6 7
      vertex -8 -3 7
      vertex -5.26147 -5.98859 7
    endloop
  endfacet
  facet normal 0 0 1
    outer loop
      vertex -8 3 7
      vertex -5.77646 5.89778 7
      vertex -6.02606 5.81908 7
    endloop
  endfacet
  facet normal 0 0 1
    outer loop
      vertex -5.26147 -5.98859 7
      vertex -8 -3 7
      vertex -5.52095 -5.95442 7
    endloop
  endfacet
  facet normal 0 0 1
    outer loop
      vertex -8 3 7
      vertex -6.02606 5.81908 7
      vertex -6.26785 5.71892 7
    endloop
  endfacet
  facet normal 0 0 1
    outer loop
      vertex -5.52095 -5.95442 7
      vertex -8 -3 7
      vertex -5.77646 -5.89778 7
    endloop
  endfacet
  facet normal 0 0 1
    outer loop
      vertex -8 3 7
      vertex -6.26785 5.71892 7
      vertex -6.5 5.59808 7
    endloop
  endfacet
  facet normal 0 0 1
    outer loop
      vertex -5.77646 -5.89778 7
      vertex -8 -3 7
      vertex -6.02606 -5.81908 7
    endloop
  endfacet
  facet normal 0 0 1
    outer loop
      vertex -8 3 7
      vertex -6.5 5.59808 7
      vertex -6.72073 5.45746 7
    endloop
  endfacet
  facet normal 0 0 1
    outer loop
      vertex -6.02606 -5.81908 7
      vertex -8 -3 7
      vertex -6.26785 -5.71892 7
    endloop
  endfacet
  facet normal 0 0 1
    outer loop
      vertex -8 3 7
      vertex -6.72073 5.45746 7
      vertex -6.92836 5.29813 7
    endloop
  endfacet
  facet normal 0 0 1
    outer loop
      vertex -6.26785 -5.71892 7
      vertex -8 -3 7
      vertex -6.5 -5.59808 7
    endloop
  endfacet
  facet normal 0 0 1
    outer loop
      vertex -8 3 7
      vertex -6.92836 5.29813 7
      vertex -7.12132 5.12132 7
    endloop
  endfacet
  facet normal 0 0 1
    outer loop
      vertex -6.5 -5.59808 7
      vertex -8 -3 7
      vertex -6.72073 -5.45746 7
    endloop
  endfacet
  facet normal 0 0 1
    outer loop
      vertex -8 3 7
      vertex -7.12132 5.12132 7
      vertex -7.29813 4.92836 7
    endloop
  endfacet
  facet normal 0 0 1
    outer loop
      vertex -6.72073 -5.45746 7
      vertex -8 -3 7
      vertex -6.92836 -5.29813 7
    endloop
  endfacet
  facet normal 0 0 1
    outer loop
      vertex -8 3 7
      vertex -7.29813 4.92836 7
      vertex -7.45746 4.72073 7
    endloop
  endfacet
  facet normal 0 0 1
    outer loop
      vertex -6.92836 -5.29813 7
      vertex -8 -3 7
      vertex -7.12132 -5.12132 7
    endloop
  endfacet
  facet normal 0 0 1
    outer loop
      vertex -8 3 7
      vertex -7.45746 4.72073 7
      vertex -7.59808 4.5 7
    endloop
  endfacet
  facet normal 0 0 1
    outer loop
      vertex -7.12132 -5.12132 7
      vertex -8 -3 7
      vertex -7.29813 -4.92836 7
    endloop
  endfacet
  facet normal 0 0 1
    outer loop
      vertex -8 3 7
      vertex -7.59808 4.5 7
      vertex -7.71892 4.26785 7
    endloop
  endfacet
  facet normal 0 0 1
    outer loop
      vertex -7.29813 -4.92836 7
      vertex -8 -3 7
      vertex -7.45746 -4.72073 7
    endloop
  endfacet
  facet normal 0 0 1
    outer loop
      vertex -8 3 7
      vertex -7.71892 4.26785 7
      vertex -7.81908 4.02606 7
    endloop
  endfacet
  facet normal 0 0 1
    outer loop
      vertex -7.45746 -4.72073 7
      vertex -8 -3 7
      vertex -7.59808 -4.5 7
    endloop
  endfacet
  facet normal 0 0 1
    outer loop
      vertex -8 3 7
      vertex -7.81908 4.02606 7
      vertex -7.89778 3.77646 7
    endloop
  endfacet
  facet normal 0 0 1
    outer loop
      vertex -7.59808 -4.5 7
      vertex -8 -3 7
      vertex -7.71892 -4.26785 7
    endloop
  endfacet
  facet normal 0 0 1
    outer loop
      vertex -8 3 7
      vertex -7.89778 3.77646 7
      vertex -7.95442 3.52095 7
    endloop
  endfacet
  facet normal 0 0 1
    outer loop
      vertex -7.71892 -4.26785 7
      vertex -8 -3 7
      vertex -7.81908 -4.02606 7
    endloop
  endfacet
  facet normal 0 0 1
    outer loop
      vertex -8 3 7
      vertex -7.95442 3.52095 7
      vertex -7.98859 3.26147 7
    endloop
  endfacet
  facet normal 0 0 1
    outer loop
      vertex -7.81908 -4.02606 7
      vertex -8 -3 7
      vertex -7.89778 -3.77646 7
    endloop
  endfacet
  facet normal 0 0 1
    outer loop
      vertex -7.89778 -3.77646 7
      vertex -8 -3 7
      vertex -7.95442 -3.52095 7
    endloop
  endfacet
  facet normal 0 0 1
    outer loop
      vertex -7.95442 -3.52095 7
      vertex -8 -3 7
      vertex -7.98859 -3.26147 7
    endloop
  endfacet
  facet normal 0.300711 -0.953715 0
    outer loop
      vertex 5.77646 -5.89778 0
      vertex 6.02606 -5.81908 7
      vertex 5.77646 -5.89778 7
    endloop
  endfacet
  facet normal 0.300711 -0.953715 0
    outer loop
      vertex 6.02606 -5.81908 7
      vertex 5.77646 -5.89778 0
      vertex 6.02606 -5.81908 0
    endloop
  endfacet
  facet normal 0.991441 -0.130559 0
    outer loop
      vertex 7.95442 -3.52095 7
      vertex 7.98859 -3.26147 0
      vertex 7.98859 -3.26147 7
    endloop
  endfacet
  facet normal 0.991441 -0.130559 0
    outer loop
      vertex 7.98859 -3.26147 0
      vertex 7.95442 -3.52095 7
      vertex 7.95442 -3.52095 0
    endloop
  endfacet
  facet normal 0.9763 0.216421 0
    outer loop
      vertex 7.95442 3.52095 7
      vertex 7.89778 3.77646 0
      vertex 7.89778 3.77646 7
    endloop
  endfacet
  facet normal 0.9763 0.216421 0
    outer loop
      vertex 7.89778 3.77646 0
      vertex 7.95442 3.52095 7
      vertex 7.95442 3.52095 0
    endloop
  endfacet
  facet normal 0.737287 -0.675579 0
    outer loop
      vertex 7.12132 -5.12132 7
      vertex 7.29813 -4.92836 0
      vertex 7.29813 -4.92836 7
    endloop
  endfacet
  facet normal 0.737287 -0.675579 0
    outer loop
      vertex 7.29813 -4.92836 0
      vertex 7.12132 -5.12132 7
      vertex 7.12132 -5.12132 0
    endloop
  endfacet
  facet normal 0.843392 0.537298 0
    outer loop
      vertex 7.59808 4.5 7
      vertex 7.45746 4.72073 0
      vertex 7.45746 4.72073 7
    endloop
  endfacet
  facet normal 0.843392 0.537298 0
    outer loop
      vertex 7.45746 4.72073 0
      vertex 7.59808 4.5 7
      vertex 7.59808 4.5 0
    endloop
  endfacet
  facet normal 0.92387 -0.382707 0
    outer loop
      vertex 7.71892 -4.26785 7
      vertex 7.81908 -4.02606 0
      vertex 7.81908 -4.02606 7
    endloop
  endfacet
  facet normal 0.92387 -0.382707 0
    outer loop
      vertex 7.81908 -4.02606 0
      vertex 7.71892 -4.26785 7
      vertex 7.71892 -4.26785 0
    endloop
  endfacet
  facet normal 0.216421 -0.9763 0
    outer loop
      vertex 5.52095 -5.95442 0
      vertex 5.77646 -5.89778 7
      vertex 5.52095 -5.95442 7
    endloop
  endfacet
  facet normal 0.216421 -0.9763 0
    outer loop
      vertex 5.77646 -5.89778 7
      vertex 5.52095 -5.95442 0
      vertex 5.77646 -5.89778 0
    endloop
  endfacet
  facet normal -0.887026 0.46172 0
    outer loop
      vertex -7.71892 4.26785 0
      vertex -7.59808 4.5 7
      vertex -7.59808 4.5 0
    endloop
  endfacet
  facet normal -0.887026 0.46172 0
    outer loop
      vertex -7.59808 4.5 7
      vertex -7.71892 4.26785 0
      vertex -7.71892 4.26785 7
    endloop
  endfacet
  facet normal 0.953715 -0.300711 0
    outer loop
      vertex 7.81908 -4.02606 7
      vertex 7.89778 -3.77646 0
      vertex 7.89778 -3.77646 7
    endloop
  endfacet
  facet normal 0.953715 -0.300711 0
    outer loop
      vertex 7.89778 -3.77646 0
      vertex 7.81908 -4.02606 7
      vertex 7.81908 -4.02606 0
    endloop
  endfacet
  facet normal 0.9763 -0.216421 0
    outer loop
      vertex 7.89778 -3.77646 7
      vertex 7.95442 -3.52095 0
      vertex 7.95442 -3.52095 7
    endloop
  endfacet
  facet normal 0.9763 -0.216421 0
    outer loop
      vertex 7.95442 -3.52095 0
      vertex 7.89778 -3.77646 7
      vertex 7.89778 -3.77646 0
    endloop
  endfacet
  facet normal -0.793335 -0.608785 0
    outer loop
      vertex -7.29813 -4.92836 0
      vertex -7.45746 -4.72073 7
      vertex -7.45746 -4.72073 0
    endloop
  endfacet
  facet normal -0.793335 -0.608785 0
    outer loop
      vertex -7.45746 -4.72073 7
      vertex -7.29813 -4.92836 0
      vertex -7.29813 -4.92836 7
    endloop
  endfacet
  facet normal 0.0435964 0.999049 -0
    outer loop
      vertex 5.26147 5.98859 0
      vertex 5 6 7
      vertex 5.26147 5.98859 7
    endloop
  endfacet
  facet normal 0.0435964 0.999049 0
    outer loop
      vertex 5 6 7
      vertex 5.26147 5.98859 0
      vertex 5 6 0
    endloop
  endfacet
  facet normal -0.9763 -0.216421 0
    outer loop
      vertex -7.89778 -3.77646 0
      vertex -7.95442 -3.52095 7
      vertex -7.95442 -3.52095 0
    endloop
  endfacet
  facet normal -0.9763 -0.216421 0
    outer loop
      vertex -7.95442 -3.52095 7
      vertex -7.89778 -3.77646 0
      vertex -7.89778 -3.77646 7
    endloop
  endfacet
  facet normal -0.991441 -0.130559 0
    outer loop
      vertex -7.95442 -3.52095 0
      vertex -7.98859 -3.26147 7
      vertex -7.98859 -3.26147 0
    endloop
  endfacet
  facet normal -0.991441 -0.130559 0
    outer loop
      vertex -7.98859 -3.26147 7
      vertex -7.95442 -3.52095 0
      vertex -7.95442 -3.52095 7
    endloop
  endfacet
  facet normal 1 -0 0
    outer loop
      vertex 8 -3 7
      vertex 8 3 0
      vertex 8 3 7
    endloop
  endfacet
  facet normal 1 0 0
    outer loop
      vertex 8 3 0
      vertex 8 -3 7
      vertex 8 -3 0
    endloop
  endfacet
  facet normal -0.887026 -0.46172 0
    outer loop
      vertex -7.59808 -4.5 0
      vertex -7.71892 -4.26785 7
      vertex -7.71892 -4.26785 0
    endloop
  endfacet
  facet normal -0.887026 -0.46172 0
    outer loop
      vertex -7.71892 -4.26785 7
      vertex -7.59808 -4.5 0
      vertex -7.59808 -4.5 7
    endloop
  endfacet
  facet normal 0.608785 -0.793335 0
    outer loop
      vertex 6.72073 -5.45746 0
      vertex 6.92836 -5.29813 7
      vertex 6.72073 -5.45746 7
    endloop
  endfacet
  facet normal 0.608785 -0.793335 0
    outer loop
      vertex 6.92836 -5.29813 7
      vertex 6.72073 -5.45746 0
      vertex 6.92836 -5.29813 0
    endloop
  endfacet
  facet normal -0.737287 0.675579 0
    outer loop
      vertex -7.29813 4.92836 0
      vertex -7.12132 5.12132 7
      vertex -7.12132 5.12132 0
    endloop
  endfacet
  facet normal -0.737287 0.675579 0
    outer loop
      vertex -7.12132 5.12132 7
      vertex -7.29813 4.92836 0
      vertex -7.29813 4.92836 7
    endloop
  endfacet
  facet normal 0.382707 -0.92387 0
    outer loop
      vertex 6.02606 -5.81908 0
      vertex 6.26785 -5.71892 7
      vertex 6.02606 -5.81908 7
    endloop
  endfacet
  facet normal 0.382707 -0.92387 0
    outer loop
      vertex 6.26785 -5.71892 7
      vertex 6.02606 -5.81908 0
      vertex 6.26785 -5.71892 0
    endloop
  endfacet
  facet normal -0.46172 0.887026 0
    outer loop
      vertex -6.26785 5.71892 0
      vertex -6.5 5.59808 7
      vertex -6.26785 5.71892 7
    endloop
  endfacet
  facet normal -0.46172 0.887026 0
    outer loop
      vertex -6.5 5.59808 7
      vertex -6.26785 5.71892 0
      vertex -6.5 5.59808 0
    endloop
  endfacet
  facet normal 0.793335 -0.608785 0
    outer loop
      vertex 7.29813 -4.92836 7
      vertex 7.45746 -4.72073 0
      vertex 7.45746 -4.72073 7
    endloop
  endfacet
  facet normal 0.793335 -0.608785 0
    outer loop
      vertex 7.45746 -4.72073 0
      vertex 7.29813 -4.92836 7
      vertex 7.29813 -4.92836 0
    endloop
  endfacet
  facet normal 0.46172 0.887026 -0
    outer loop
      vertex 6.5 5.59808 0
      vertex 6.26785 5.71892 7
      vertex 6.5 5.59808 7
    endloop
  endfacet
  facet normal 0.46172 0.887026 0
    outer loop
      vertex 6.26785 5.71892 7
      vertex 6.5 5.59808 0
      vertex 6.26785 5.71892 0
    endloop
  endfacet
  facet normal -0.793335 0.608785 0
    outer loop
      vertex -7.45746 4.72073 0
      vertex -7.29813 4.92836 7
      vertex -7.29813 4.92836 0
    endloop
  endfacet
  facet normal -0.793335 0.608785 0
    outer loop
      vertex -7.29813 4.92836 7
      vertex -7.45746 4.72073 0
      vertex -7.45746 4.72073 7
    endloop
  endfacet
  facet normal 0.887026 0.46172 0
    outer loop
      vertex 7.71892 4.26785 7
      vertex 7.59808 4.5 0
      vertex 7.59808 4.5 7
    endloop
  endfacet
  facet normal 0.887026 0.46172 0
    outer loop
      vertex 7.59808 4.5 0
      vertex 7.71892 4.26785 7
      vertex 7.71892 4.26785 0
    endloop
  endfacet
  facet normal 0.999049 0.0435964 0
    outer loop
      vertex 8 3 7
      vertex 7.98859 3.26147 0
      vertex 7.98859 3.26147 7
    endloop
  endfacet
  facet normal 0.999049 0.0435964 0
    outer loop
      vertex 7.98859 3.26147 0
      vertex 8 3 7
      vertex 8 3 0
    endloop
  endfacet
  facet normal 0.92387 0.382707 0
    outer loop
      vertex 7.81908 4.02606 7
      vertex 7.71892 4.26785 0
      vertex 7.71892 4.26785 7
    endloop
  endfacet
  facet normal 0.92387 0.382707 0
    outer loop
      vertex 7.71892 4.26785 0
      vertex 7.81908 4.02606 7
      vertex 7.81908 4.02606 0
    endloop
  endfacet
  facet normal 0.537298 -0.843392 0
    outer loop
      vertex 6.5 -5.59808 0
      vertex 6.72073 -5.45746 7
      vertex 6.5 -5.59808 7
    endloop
  endfacet
  facet normal 0.537298 -0.843392 0
    outer loop
      vertex 6.72073 -5.45746 7
      vertex 6.5 -5.59808 0
      vertex 6.72073 -5.45746 0
    endloop
  endfacet
  facet normal 0.382707 0.92387 -0
    outer loop
      vertex 6.26785 5.71892 0
      vertex 6.02606 5.81908 7
      vertex 6.26785 5.71892 7
    endloop
  endfacet
  facet normal 0.382707 0.92387 0
    outer loop
      vertex 6.02606 5.81908 7
      vertex 6.26785 5.71892 0
      vertex 6.02606 5.81908 0
    endloop
  endfacet
  facet normal 0.737265 -0 0.675604
    outer loop
      vertex -2.68116 -6 0.250243
      vertex -2.47487 6 0.0251255
      vertex -2.68116 6 0.250243
    endloop
  endfacet
  facet normal 0.737265 0 0.675604
    outer loop
      vertex -2.47487 6 0.0251255
      vertex -2.68116 -6 0.250243
      vertex -2.47487 -6 0.0251255
    endloop
  endfacet
  facet normal -0.999048 0 0.0436234
    outer loop
      vertex 3.48668 -6 2.19495
      vertex 3.5 6 2.5
      vertex 3.48668 6 2.19495
    endloop
  endfacet
  facet normal -0.999048 0 0.0436234
    outer loop
      vertex 3.5 6 2.5
      vertex 3.48668 -6 2.19495
      vertex 3.5 -6 2.5
    endloop
  endfacet
  facet normal 0.999048 0 -0.0436248
    outer loop
      vertex -3.48668 -6 2.80504
      vertex -3.5 6 2.5
      vertex -3.48668 6 2.80504
    endloop
  endfacet
  facet normal 0.999048 0 -0.0436248
    outer loop
      vertex -3.5 6 2.5
      vertex -3.48668 -6 2.80504
      vertex -3.5 -6 2.5
    endloop
  endfacet
  facet normal 0.675586 0 0.737281
    outer loop
      vertex -2.47487 6 0.0251255
      vertex -2.44745 -6 0
      vertex -2.44745 6 0
    endloop
  endfacet
  facet normal 0.675586 0 0.737281
    outer loop
      vertex -2.44745 -6 0
      vertex -2.47487 6 0.0251255
      vertex -2.47487 -6 0.0251255
    endloop
  endfacet
  facet normal 0.675616 0 -0.737253
    outer loop
      vertex -2.47487 -6 4.97487
      vertex -2.24976 6 5.18116
      vertex -2.24976 -6 5.18116
    endloop
  endfacet
  facet normal 0.675616 0 -0.737253
    outer loop
      vertex -2.24976 6 5.18116
      vertex -2.47487 -6 4.97487
      vertex -2.47487 6 4.97487
    endloop
  endfacet
  facet normal -0.976294 0 -0.216448
    outer loop
      vertex 3.44683 -6 3.10777
      vertex 3.38074 6 3.40587
      vertex 3.44683 6 3.10777
    endloop
  endfacet
  facet normal -0.976294 -0 -0.216448
    outer loop
      vertex 3.38074 6 3.40587
      vertex 3.44683 -6 3.10777
      vertex 3.38074 -6 3.40587
    endloop
  endfacet
  facet normal 0.999048 -0 0.0436234
    outer loop
      vertex -3.5 -6 2.5
      vertex -3.48668 6 2.19495
      vertex -3.5 6 2.5
    endloop
  endfacet
  facet normal 0.999048 0 0.0436234
    outer loop
      vertex -3.48668 6 2.19495
      vertex -3.5 -6 2.5
      vertex -3.48668 -6 2.19495
    endloop
  endfacet
  facet normal -0.793365 0 -0.608746
    outer loop
      vertex 2.86703 -6 4.50752
      vertex 2.68116 6 4.74976
      vertex 2.86703 6 4.50752
    endloop
  endfacet
  facet normal -0.793365 -0 -0.608746
    outer loop
      vertex 2.68116 6 4.74976
      vertex 2.86703 -6 4.50752
      vertex 2.68116 -6 4.74976
    endloop
  endfacet
  facet normal -0.793364 0 0.608748
    outer loop
      vertex 2.68116 -6 0.250243
      vertex 2.86703 6 0.492482
      vertex 2.68116 6 0.250243
    endloop
  endfacet
  facet normal -0.793364 0 0.608748
    outer loop
      vertex 2.86703 6 0.492482
      vertex 2.68116 -6 0.250243
      vertex 2.86703 -6 0.492482
    endloop
  endfacet
  facet normal -0.737265 0 0.675604
    outer loop
      vertex 2.47487 -6 0.0251255
      vertex 2.68116 6 0.250243
      vertex 2.47487 6 0.0251255
    endloop
  endfacet
  facet normal -0.737265 0 0.675604
    outer loop
      vertex 2.68116 6 0.250243
      vertex 2.47487 -6 0.0251255
      vertex 2.68116 -6 0.250243
    endloop
  endfacet
  facet normal 0.923886 0 -0.382668
    outer loop
      vertex -3.17208 -6 3.97916
      vertex -3.28892 6 3.69707
      vertex -3.17208 6 3.97916
    endloop
  endfacet
  facet normal 0.923886 0 -0.382668
    outer loop
      vertex -3.28892 6 3.69707
      vertex -3.17208 -6 3.97916
      vertex -3.28892 -6 3.69707
    endloop
  endfacet
  facet normal -0.991447 0 -0.13051
    outer loop
      vertex 3.48668 -6 2.80504
      vertex 3.44683 6 3.10777
      vertex 3.48668 6 2.80504
    endloop
  endfacet
  facet normal -0.991447 -0 -0.13051
    outer loop
      vertex 3.44683 6 3.10777
      vertex 3.48668 -6 2.80504
      vertex 3.44683 -6 3.10777
    endloop
  endfacet
  facet normal 0.0436243 0 -0.999048
    outer loop
      vertex -0.305044 -6 5.98668
      vertex 0 6 6
      vertex 0 -6 6
    endloop
  endfacet
  facet normal 0.0436243 0 -0.999048
    outer loop
      vertex 0 6 6
      vertex -0.305044 -6 5.98668
      vertex -0.305044 6 5.98668
    endloop
  endfacet
  facet normal -0.999048 0 -0.0436248
    outer loop
      vertex 3.5 -6 2.5
      vertex 3.48668 6 2.80504
      vertex 3.5 6 2.5
    endloop
  endfacet
  facet normal -0.999048 -0 -0.0436248
    outer loop
      vertex 3.48668 6 2.80504
      vertex 3.5 -6 2.5
      vertex 3.48668 -6 2.80504
    endloop
  endfacet
  facet normal 0.216449 0 -0.976294
    outer loop
      vertex -0.905867 -6 5.88074
      vertex -0.607768 6 5.94683
      vertex -0.607768 -6 5.94683
    endloop
  endfacet
  facet normal 0.216449 0 -0.976294
    outer loop
      vertex -0.607768 6 5.94683
      vertex -0.905867 -6 5.88074
      vertex -0.905867 6 5.88074
    endloop
  endfacet
  facet normal 0.793365 0 -0.608746
    outer loop
      vertex -2.68116 -6 4.74976
      vertex -2.86703 6 4.50752
      vertex -2.68116 6 4.74976
    endloop
  endfacet
  facet normal 0.793365 0 -0.608746
    outer loop
      vertex -2.86703 6 4.50752
      vertex -2.68116 -6 4.74976
      vertex -2.86703 -6 4.50752
    endloop
  endfacet
  facet normal 0.887011 -0 0.461748
    outer loop
      vertex -3.17208 -6 1.02084
      vertex -3.03109 6 0.75
      vertex -3.17208 6 1.02084
    endloop
  endfacet
  facet normal 0.887011 0 0.461748
    outer loop
      vertex -3.03109 6 0.75
      vertex -3.17208 -6 1.02084
      vertex -3.03109 -6 0.75
    endloop
  endfacet
  facet normal -0.537303 0 -0.843389
    outer loop
      vertex 1.75 -6 5.53109
      vertex 2.00752 6 5.36703
      vertex 2.00752 -6 5.36703
    endloop
  endfacet
  facet normal -0.537303 0 -0.843389
    outer loop
      vertex 2.00752 6 5.36703
      vertex 1.75 -6 5.53109
      vertex 1.75 6 5.53109
    endloop
  endfacet
  facet normal -0.991446 0 0.130514
    outer loop
      vertex 3.44683 -6 1.89223
      vertex 3.48668 6 2.19495
      vertex 3.44683 6 1.89223
    endloop
  endfacet
  facet normal -0.991446 0 0.130514
    outer loop
      vertex 3.48668 6 2.19495
      vertex 3.44683 -6 1.89223
      vertex 3.48668 -6 2.19495
    endloop
  endfacet
  facet normal -0.675616 0 -0.737253
    outer loop
      vertex 2.24976 -6 5.18116
      vertex 2.47487 6 4.97487
      vertex 2.47487 -6 4.97487
    endloop
  endfacet
  facet normal -0.675616 0 -0.737253
    outer loop
      vertex 2.47487 6 4.97487
      vertex 2.24976 -6 5.18116
      vertex 2.24976 6 5.18116
    endloop
  endfacet
  facet normal -0.608746 0 -0.793365
    outer loop
      vertex 2.00752 -6 5.36703
      vertex 2.24976 6 5.18116
      vertex 2.24976 -6 5.18116
    endloop
  endfacet
  facet normal -0.608746 0 -0.793365
    outer loop
      vertex 2.24976 6 5.18116
      vertex 2.00752 -6 5.36703
      vertex 2.00752 6 5.36703
    endloop
  endfacet
  facet normal 0.130512 0 -0.991447
    outer loop
      vertex -0.607768 -6 5.94683
      vertex -0.305044 6 5.98668
      vertex -0.305044 -6 5.98668
    endloop
  endfacet
  facet normal 0.130512 0 -0.991447
    outer loop
      vertex -0.305044 6 5.98668
      vertex -0.607768 -6 5.94683
      vertex -0.607768 6 5.94683
    endloop
  endfacet
  facet normal -0.923886 0 -0.382668
    outer loop
      vertex 3.28892 -6 3.69707
      vertex 3.17208 6 3.97916
      vertex 3.28892 6 3.69707
    endloop
  endfacet
  facet normal -0.923886 -0 -0.382668
    outer loop
      vertex 3.17208 6 3.97916
      vertex 3.28892 -6 3.69707
      vertex 3.17208 -6 3.97916
    endloop
  endfacet
  facet normal 0.737253 0 -0.675616
    outer loop
      vertex -2.47487 -6 4.97487
      vertex -2.68116 6 4.74976
      vertex -2.47487 6 4.97487
    endloop
  endfacet
  facet normal 0.737253 0 -0.675616
    outer loop
      vertex -2.68116 6 4.74976
      vertex -2.47487 -6 4.97487
      vertex -2.68116 -6 4.74976
    endloop
  endfacet
  facet normal -0.887011 0 -0.461748
    outer loop
      vertex 3.17208 -6 3.97916
      vertex 3.03109 6 4.25
      vertex 3.17208 6 3.97916
    endloop
  endfacet
  facet normal -0.887011 -0 -0.461748
    outer loop
      vertex 3.03109 6 4.25
      vertex 3.17208 -6 3.97916
      vertex 3.03109 -6 4.25
    endloop
  endfacet
  facet normal -0.0436243 0 -0.999048
    outer loop
      vertex 0 -6 6
      vertex 0.305044 6 5.98668
      vertex 0.305044 -6 5.98668
    endloop
  endfacet
  facet normal -0.0436243 0 -0.999048
    outer loop
      vertex 0.305044 6 5.98668
      vertex 0 -6 6
      vertex 0 6 6
    endloop
  endfacet
  facet normal -0.461748 0 -0.887011
    outer loop
      vertex 1.47916 -6 5.67208
      vertex 1.75 6 5.53109
      vertex 1.75 -6 5.53109
    endloop
  endfacet
  facet normal -0.461748 0 -0.887011
    outer loop
      vertex 1.75 6 5.53109
      vertex 1.47916 -6 5.67208
      vertex 1.47916 6 5.67208
    endloop
  endfacet
  facet normal 0.608746 0 -0.793365
    outer loop
      vertex -2.24976 -6 5.18116
      vertex -2.00752 6 5.36703
      vertex -2.00752 -6 5.36703
    endloop
  endfacet
  facet normal 0.608746 0 -0.793365
    outer loop
      vertex -2.00752 6 5.36703
      vertex -2.24976 -6 5.18116
      vertex -2.24976 6 5.18116
    endloop
  endfacet
  facet normal -0.843387 0 0.537306
    outer loop
      vertex 2.86703 -6 0.492482
      vertex 3.03109 6 0.75
      vertex 2.86703 6 0.492482
    endloop
  endfacet
  facet normal -0.843387 0 0.537306
    outer loop
      vertex 3.03109 6 0.75
      vertex 2.86703 -6 0.492482
      vertex 3.03109 -6 0.75
    endloop
  endfacet
  facet normal 0.991446 -0 0.130514
    outer loop
      vertex -3.48668 -6 2.19495
      vertex -3.44683 6 1.89223
      vertex -3.48668 6 2.19495
    endloop
  endfacet
  facet normal 0.991446 0 0.130514
    outer loop
      vertex -3.44683 6 1.89223
      vertex -3.48668 -6 2.19495
      vertex -3.44683 -6 1.89223
    endloop
  endfacet
  facet normal 0.976294 0 -0.216448
    outer loop
      vertex -3.38074 -6 3.40587
      vertex -3.44683 6 3.10777
      vertex -3.38074 6 3.40587
    endloop
  endfacet
  facet normal 0.976294 0 -0.216448
    outer loop
      vertex -3.44683 6 3.10777
      vertex -3.38074 -6 3.40587
      vertex -3.44683 -6 3.10777
    endloop
  endfacet
  facet normal -0.953712 0 0.300721
    outer loop
      vertex 3.28892 -6 1.30293
      vertex 3.38074 6 1.59413
      vertex 3.28892 6 1.30293
    endloop
  endfacet
  facet normal -0.953712 0 0.300721
    outer loop
      vertex 3.38074 6 1.59413
      vertex 3.28892 -6 1.30293
      vertex 3.38074 -6 1.59413
    endloop
  endfacet
  facet normal -0.130512 0 -0.991447
    outer loop
      vertex 0.305044 -6 5.98668
      vertex 0.607768 6 5.94683
      vertex 0.607768 -6 5.94683
    endloop
  endfacet
  facet normal -0.130512 0 -0.991447
    outer loop
      vertex 0.607768 6 5.94683
      vertex 0.305044 -6 5.98668
      vertex 0.305044 6 5.98668
    endloop
  endfacet
  facet normal -0.843389 0 -0.537303
    outer loop
      vertex 3.03109 -6 4.25
      vertex 2.86703 6 4.50752
      vertex 3.03109 6 4.25
    endloop
  endfacet
  facet normal -0.843389 -0 -0.537303
    outer loop
      vertex 2.86703 6 4.50752
      vertex 3.03109 -6 4.25
      vertex 2.86703 -6 4.50752
    endloop
  endfacet
  facet normal 0.382668 0 -0.923886
    outer loop
      vertex -1.47916 -6 5.67208
      vertex -1.19707 6 5.78892
      vertex -1.19707 -6 5.78892
    endloop
  endfacet
  facet normal 0.382668 0 -0.923886
    outer loop
      vertex -1.19707 6 5.78892
      vertex -1.47916 -6 5.67208
      vertex -1.47916 6 5.67208
    endloop
  endfacet
  facet normal 0.991447 0 -0.13051
    outer loop
      vertex -3.44683 -6 3.10777
      vertex -3.48668 6 2.80504
      vertex -3.44683 6 3.10777
    endloop
  endfacet
  facet normal 0.991447 0 -0.13051
    outer loop
      vertex -3.48668 6 2.80504
      vertex -3.44683 -6 3.10777
      vertex -3.48668 -6 2.80504
    endloop
  endfacet
  facet normal -0.953712 0 -0.300721
    outer loop
      vertex 3.38074 -6 3.40587
      vertex 3.28892 6 3.69707
      vertex 3.38074 6 3.40587
    endloop
  endfacet
  facet normal -0.953712 -0 -0.300721
    outer loop
      vertex 3.28892 6 3.69707
      vertex 3.38074 -6 3.40587
      vertex 3.28892 -6 3.69707
    endloop
  endfacet
  facet normal 0.537303 0 -0.843389
    outer loop
      vertex -2.00752 -6 5.36703
      vertex -1.75 6 5.53109
      vertex -1.75 -6 5.53109
    endloop
  endfacet
  facet normal 0.537303 0 -0.843389
    outer loop
      vertex -1.75 6 5.53109
      vertex -2.00752 -6 5.36703
      vertex -2.00752 6 5.36703
    endloop
  endfacet
  facet normal -0.737253 0 -0.675616
    outer loop
      vertex 2.68116 -6 4.74976
      vertex 2.47487 6 4.97487
      vertex 2.68116 6 4.74976
    endloop
  endfacet
  facet normal -0.737253 -0 -0.675616
    outer loop
      vertex 2.47487 6 4.97487
      vertex 2.68116 -6 4.74976
      vertex 2.47487 -6 4.97487
    endloop
  endfacet
  facet normal 0.461748 0 -0.887011
    outer loop
      vertex -1.75 -6 5.53109
      vertex -1.47916 6 5.67208
      vertex -1.47916 -6 5.67208
    endloop
  endfacet
  facet normal 0.461748 0 -0.887011
    outer loop
      vertex -1.47916 6 5.67208
      vertex -1.75 -6 5.53109
      vertex -1.75 6 5.53109
    endloop
  endfacet
  facet normal 0.843387 -0 0.537306
    outer loop
      vertex -3.03109 -6 0.75
      vertex -2.86703 6 0.492482
      vertex -3.03109 6 0.75
    endloop
  endfacet
  facet normal 0.843387 0 0.537306
    outer loop
      vertex -2.86703 6 0.492482
      vertex -3.03109 -6 0.75
      vertex -2.86703 -6 0.492482
    endloop
  endfacet
  facet normal -0.976294 0 0.216448
    outer loop
      vertex 3.38074 -6 1.59413
      vertex 3.44683 6 1.89223
      vertex 3.38074 6 1.59413
    endloop
  endfacet
  facet normal -0.976294 0 0.216448
    outer loop
      vertex 3.44683 6 1.89223
      vertex 3.38074 -6 1.59413
      vertex 3.44683 -6 1.89223
    endloop
  endfacet
  facet normal -0.923886 0 0.382668
    outer loop
      vertex 3.17208 -6 1.02084
      vertex 3.28892 6 1.30293
      vertex 3.17208 6 1.02084
    endloop
  endfacet
  facet normal -0.923886 0 0.382668
    outer loop
      vertex 3.28892 6 1.30293
      vertex 3.17208 -6 1.02084
      vertex 3.28892 -6 1.30293
    endloop
  endfacet
  facet normal -0.382668 0 -0.923886
    outer loop
      vertex 1.19707 -6 5.78892
      vertex 1.47916 6 5.67208
      vertex 1.47916 -6 5.67208
    endloop
  endfacet
  facet normal -0.382668 0 -0.923886
    outer loop
      vertex 1.47916 6 5.67208
      vertex 1.19707 -6 5.78892
      vertex 1.19707 6 5.78892
    endloop
  endfacet
  facet normal -0.300718 0 -0.953713
    outer loop
      vertex 0.905867 -6 5.88074
      vertex 1.19707 6 5.78892
      vertex 1.19707 -6 5.78892
    endloop
  endfacet
  facet normal -0.300718 0 -0.953713
    outer loop
      vertex 1.19707 6 5.78892
      vertex 0.905867 -6 5.88074
      vertex 0.905867 6 5.88074
    endloop
  endfacet
  facet normal 0.976294 -0 0.216448
    outer loop
      vertex -3.44683 -6 1.89223
      vertex -3.38074 6 1.59413
      vertex -3.44683 6 1.89223
    endloop
  endfacet
  facet normal 0.976294 0 0.216448
    outer loop
      vertex -3.38074 6 1.59413
      vertex -3.44683 -6 1.89223
      vertex -3.38074 -6 1.59413
    endloop
  endfacet
  facet normal 0.793364 -0 0.608748
    outer loop
      vertex -2.86703 -6 0.492482
      vertex -2.68116 6 0.250243
      vertex -2.86703 6 0.492482
    endloop
  endfacet
  facet normal 0.793364 0 0.608748
    outer loop
      vertex -2.68116 6 0.250243
      vertex -2.86703 -6 0.492482
      vertex -2.68116 -6 0.250243
    endloop
  endfacet
  facet normal 0.923886 -0 0.382668
    outer loop
      vertex -3.28892 -6 1.30293
      vertex -3.17208 6 1.02084
      vertex -3.28892 6 1.30293
    endloop
  endfacet
  facet normal 0.923886 0 0.382668
    outer loop
      vertex -3.17208 6 1.02084
      vertex -3.28892 -6 1.30293
      vertex -3.17208 -6 1.02084
    endloop
  endfacet
  facet normal -0.675586 0 0.737281
    outer loop
      vertex 2.44745 6 0
      vertex 2.47487 -6 0.0251255
      vertex 2.47487 6 0.0251255
    endloop
  endfacet
  facet normal -0.675586 0 0.737281
    outer loop
      vertex 2.47487 -6 0.0251255
      vertex 2.44745 6 0
      vertex 2.44745 -6 0
    endloop
  endfacet
  facet normal 0.300718 0 -0.953713
    outer loop
      vertex -1.19707 -6 5.78892
      vertex -0.905867 6 5.88074
      vertex -0.905867 -6 5.88074
    endloop
  endfacet
  facet normal 0.300718 0 -0.953713
    outer loop
      vertex -0.905867 6 5.88074
      vertex -1.19707 -6 5.78892
      vertex -1.19707 6 5.78892
    endloop
  endfacet
  facet normal -0.887011 0 0.461748
    outer loop
      vertex 3.03109 -6 0.75
      vertex 3.17208 6 1.02084
      vertex 3.03109 6 0.75
    endloop
  endfacet
  facet normal -0.887011 0 0.461748
    outer loop
      vertex 3.17208 6 1.02084
      vertex 3.03109 -6 0.75
      vertex 3.17208 -6 1.02084
    endloop
  endfacet
  facet normal 0.953712 -0 0.300721
    outer loop
      vertex -3.38074 -6 1.59413
      vertex -3.28892 6 1.30293
      vertex -3.38074 6 1.59413
    endloop
  endfacet
  facet normal 0.953712 0 0.300721
    outer loop
      vertex -3.28892 6 1.30293
      vertex -3.38074 -6 1.59413
      vertex -3.28892 -6 1.30293
    endloop
  endfacet
  facet normal 0.953712 0 -0.300721
    outer loop
      vertex -3.28892 -6 3.69707
      vertex -3.38074 6 3.40587
      vertex -3.28892 6 3.69707
    endloop
  endfacet
  facet normal 0.953712 0 -0.300721
    outer loop
      vertex -3.38074 6 3.40587
      vertex -3.28892 -6 3.69707
      vertex -3.38074 -6 3.40587
    endloop
  endfacet
  facet normal 0.887011 0 -0.461748
    outer loop
      vertex -3.03109 -6 4.25
      vertex -3.17208 6 3.97916
      vertex -3.03109 6 4.25
    endloop
  endfacet
  facet normal 0.887011 0 -0.461748
    outer loop
      vertex -3.17208 6 3.97916
      vertex -3.03109 -6 4.25
      vertex -3.17208 -6 3.97916
    endloop
  endfacet
  facet normal -0.216449 0 -0.976294
    outer loop
      vertex 0.607768 -6 5.94683
      vertex 0.905867 6 5.88074
      vertex 0.905867 -6 5.88074
    endloop
  endfacet
  facet normal -0.216449 0 -0.976294
    outer loop
      vertex 0.905867 6 5.88074
      vertex 0.607768 -6 5.94683
      vertex 0.607768 6 5.94683
    endloop
  endfacet
  facet normal 0.843389 0 -0.537303
    outer loop
      vertex -2.86703 -6 4.50752
      vertex -3.03109 6 4.25
      vertex -2.86703 6 4.50752
    endloop
  endfacet
  facet normal 0.843389 0 -0.537303
    outer loop
      vertex -3.03109 6 4.25
      vertex -2.86703 -6 4.50752
      vertex -3.03109 -6 4.25
    endloop
  endfacet
endsolid OpenSCAD_Model
