solid OpenSCAD_Model
  facet normal 0.0435942 -0.999049 0
    outer loop
      vertex 13.8 -9.49998 0
      vertex 14.0789 -9.48781 1.8
      vertex 13.8 -9.49998 1.8
    endloop
  endfacet
  facet normal 0.0435942 -0.999049 0
    outer loop
      vertex 14.0789 -9.48781 1.8
      vertex 13.8 -9.49998 0
      vertex 14.0789 -9.48781 0
    endloop
  endfacet
  facet normal 0.216468 -0.97629 0
    outer loop
      vertex 14.3557 -9.45137 0
      vertex 14.6282 -9.39095 1.8
      vertex 14.3557 -9.45137 1.8
    endloop
  endfacet
  facet normal 0.216468 -0.97629 0
    outer loop
      vertex 14.6282 -9.39095 1.8
      vertex 14.3557 -9.45137 0
      vertex 14.6282 -9.39095 0
    endloop
  endfacet
  facet normal -1 0 0
    outer loop
      vertex -17 -6.29999 0
      vertex -17 6.29999 1.8
      vertex -17 6.29999 0
    endloop
  endfacet
  facet normal -1 -0 0
    outer loop
      vertex -17 6.29999 1.8
      vertex -17 -6.29999 0
      vertex -17 -6.29999 1.8
    endloop
  endfacet
  facet normal 0 -1 0
    outer loop
      vertex -13.8 -9.49998 0
      vertex 13.8 -9.49998 1.8
      vertex -13.8 -9.49998 1.8
    endloop
  endfacet
  facet normal 0 -1 -0
    outer loop
      vertex 13.8 -9.49998 1.8
      vertex -13.8 -9.49998 0
      vertex 13.8 -9.49998 0
    endloop
  endfacet
  facet normal 0.130521 -0.991446 0
    outer loop
      vertex 14.0789 -9.48781 0
      vertex 14.3557 -9.45137 1.8
      vertex 14.0789 -9.48781 1.8
    endloop
  endfacet
  facet normal 0.130521 -0.991446 0
    outer loop
      vertex 14.3557 -9.45137 1.8
      vertex 14.0789 -9.48781 0
      vertex 14.3557 -9.45137 0
    endloop
  endfacet
  facet normal -0.382697 -0.923874 0
    outer loop
      vertex -15.1524 -9.20018 0
      vertex -14.8945 -9.30701 1.8
      vertex -15.1524 -9.20018 1.8
    endloop
  endfacet
  facet normal -0.382697 -0.923874 -0
    outer loop
      vertex -14.8945 -9.30701 1.8
      vertex -15.1524 -9.20018 0
      vertex -14.8945 -9.30701 0
    endloop
  endfacet
  facet normal 0.0435942 0.999049 -0
    outer loop
      vertex 14.0789 9.48781 0
      vertex 13.8 9.49998 1.8
      vertex 14.0789 9.48781 1.8
    endloop
  endfacet
  facet normal 0.0435942 0.999049 0
    outer loop
      vertex 13.8 9.49998 1.8
      vertex 14.0789 9.48781 0
      vertex 13.8 9.49998 0
    endloop
  endfacet
  facet normal 0.382697 0.923874 -0
    outer loop
      vertex 15.1524 9.20018 0
      vertex 14.8945 9.30701 1.8
      vertex 15.1524 9.20018 1.8
    endloop
  endfacet
  facet normal 0.382697 0.923874 0
    outer loop
      vertex 14.8945 9.30701 1.8
      vertex 15.1524 9.20018 0
      vertex 14.8945 9.30701 0
    endloop
  endfacet
  facet normal 0 1 -0
    outer loop
      vertex 13.8 9.49998 0
      vertex -13.8 9.49998 1.8
      vertex 13.8 9.49998 1.8
    endloop
  endfacet
  facet normal 0 1 0
    outer loop
      vertex -13.8 9.49998 1.8
      vertex 13.8 9.49998 0
      vertex -13.8 9.49998 0
    endloop
  endfacet
  facet normal -0.216468 -0.97629 0
    outer loop
      vertex -14.6282 -9.39095 0
      vertex -14.3557 -9.45137 1.8
      vertex -14.6282 -9.39095 1.8
    endloop
  endfacet
  facet normal -0.216468 -0.97629 -0
    outer loop
      vertex -14.3557 -9.45137 1.8
      vertex -14.6282 -9.39095 0
      vertex -14.3557 -9.45137 0
    endloop
  endfacet
  facet normal -0.793236 0.608914 0
    outer loop
      vertex -16.4213 8.13544 0
      vertex -16.2513 8.3569 1.8
      vertex -16.2513 8.3569 0
    endloop
  endfacet
  facet normal -0.793236 0.608914 0
    outer loop
      vertex -16.2513 8.3569 1.8
      vertex -16.4213 8.13544 0
      vertex -16.4213 8.13544 1.8
    endloop
  endfacet
  facet normal -0.976234 0.216718 0
    outer loop
      vertex -16.9514 6.85567 0
      vertex -16.8909 7.1282 1.8
      vertex -16.8909 7.1282 0
    endloop
  endfacet
  facet normal -0.976234 0.216718 0
    outer loop
      vertex -16.8909 7.1282 1.8
      vertex -16.9514 6.85567 0
      vertex -16.9514 6.85567 1.8
    endloop
  endfacet
  facet normal -0.0435942 0.999049 0
    outer loop
      vertex -13.8 9.49998 0
      vertex -14.0789 9.48781 1.8
      vertex -13.8 9.49998 1.8
    endloop
  endfacet
  facet normal -0.0435942 0.999049 0
    outer loop
      vertex -14.0789 9.48781 1.8
      vertex -13.8 9.49998 0
      vertex -14.0789 9.48781 0
    endloop
  endfacet
  facet normal -0.53736 -0.843353 0
    outer loop
      vertex -15.6354 -8.92128 0
      vertex -15.4 -9.07127 1.8
      vertex -15.6354 -8.92128 1.8
    endloop
  endfacet
  facet normal -0.53736 -0.843353 -0
    outer loop
      vertex -15.4 -9.07127 1.8
      vertex -15.6354 -8.92128 0
      vertex -15.4 -9.07127 0
    endloop
  endfacet
  facet normal 0.461798 0.886985 -0
    outer loop
      vertex 15.4 9.07127 0
      vertex 15.1524 9.20018 1.8
      vertex 15.4 9.07127 1.8
    endloop
  endfacet
  facet normal 0.461798 0.886985 0
    outer loop
      vertex 15.1524 9.20018 1.8
      vertex 15.4 9.07127 0
      vertex 15.1524 9.20018 0
    endloop
  endfacet
  facet normal 0.991463 -0.13039 0
    outer loop
      vertex 16.9514 -6.85567 1.8
      vertex 16.9878 -6.57889 0
      vertex 16.9878 -6.57889 1.8
    endloop
  endfacet
  facet normal 0.991463 -0.13039 0
    outer loop
      vertex 16.9878 -6.57889 0
      vertex 16.9514 -6.85567 1.8
      vertex 16.9514 -6.85567 0
    endloop
  endfacet
  facet normal -0.461798 -0.886985 0
    outer loop
      vertex -15.4 -9.07127 0
      vertex -15.1524 -9.20018 1.8
      vertex -15.4 -9.07127 1.8
    endloop
  endfacet
  facet normal -0.461798 -0.886985 -0
    outer loop
      vertex -15.1524 -9.20018 1.8
      vertex -15.4 -9.07127 0
      vertex -15.1524 -9.20018 0
    endloop
  endfacet
  facet normal -0.608732 -0.793376 0
    outer loop
      vertex -15.8569 -8.75133 0
      vertex -15.6354 -8.92128 1.8
      vertex -15.8569 -8.75133 1.8
    endloop
  endfacet
  facet normal -0.608732 -0.793376 -0
    outer loop
      vertex -15.6354 -8.92128 1.8
      vertex -15.8569 -8.75133 0
      vertex -15.6354 -8.92128 0
    endloop
  endfacet
  facet normal 0.923917 0.382592 0
    outer loop
      vertex 16.807 7.39445 1.8
      vertex 16.7002 7.65236 0
      vertex 16.7002 7.65236 1.8
    endloop
  endfacet
  facet normal 0.923917 0.382592 0
    outer loop
      vertex 16.7002 7.65236 0
      vertex 16.807 7.39445 1.8
      vertex 16.807 7.39445 0
    endloop
  endfacet
  facet normal -0.300627 -0.953742 0
    outer loop
      vertex -14.8945 -9.30701 0
      vertex -14.6282 -9.39095 1.8
      vertex -14.8945 -9.30701 1.8
    endloop
  endfacet
  facet normal -0.300627 -0.953742 -0
    outer loop
      vertex -14.6282 -9.39095 1.8
      vertex -14.8945 -9.30701 0
      vertex -14.6282 -9.39095 0
    endloop
  endfacet
  facet normal -0.953767 0.300548 0
    outer loop
      vertex -16.8909 7.1282 0
      vertex -16.807 7.39445 1.8
      vertex -16.807 7.39445 0
    endloop
  endfacet
  facet normal -0.953767 0.300548 0
    outer loop
      vertex -16.807 7.39445 1.8
      vertex -16.8909 7.1282 0
      vertex -16.8909 7.1282 1.8
    endloop
  endfacet
  facet normal 0.843389 0.537304 0
    outer loop
      vertex 16.5713 7.89999 1.8
      vertex 16.4213 8.13544 0
      vertex 16.4213 8.13544 1.8
    endloop
  endfacet
  facet normal 0.843389 0.537304 0
    outer loop
      vertex 16.4213 8.13544 0
      vertex 16.5713 7.89999 1.8
      vertex 16.5713 7.89999 0
    endloop
  endfacet
  facet normal -0.976234 -0.216718 0
    outer loop
      vertex -16.8909 -7.1282 0
      vertex -16.9514 -6.85567 1.8
      vertex -16.9514 -6.85567 0
    endloop
  endfacet
  facet normal -0.976234 -0.216718 0
    outer loop
      vertex -16.9514 -6.85567 1.8
      vertex -16.8909 -7.1282 0
      vertex -16.8909 -7.1282 1.8
    endloop
  endfacet
  facet normal 0 0 1
    outer loop
      vertex 15.2424 6.27431 1.8
      vertex 17 6.29999 1.8
      vertex 16.9878 6.57889 1.8
    endloop
  endfacet
  facet normal 0 0 1
    outer loop
      vertex 17 6.29999 1.8
      vertex 15.25 6.09999 1.8
      vertex 17 -6.29999 1.8
    endloop
  endfacet
  facet normal 0 0 1
    outer loop
      vertex 15.2196 6.44728 1.8
      vertex 16.9878 6.57889 1.8
      vertex 16.9514 6.85567 1.8
    endloop
  endfacet
  facet normal -0 0 1
    outer loop
      vertex 15.25 -6.09999 1.8
      vertex 17 -6.29999 1.8
      vertex 15.25 6.09999 1.8
    endloop
  endfacet
  facet normal 0 0 1
    outer loop
      vertex 15.1819 6.61763 1.8
      vertex 16.9514 6.85567 1.8
      vertex 16.8909 7.1282 1.8
    endloop
  endfacet
  facet normal -0 0 1
    outer loop
      vertex 15.2424 -6.27431 1.8
      vertex 17 -6.29999 1.8
      vertex 15.25 -6.09999 1.8
    endloop
  endfacet
  facet normal 0 0 1
    outer loop
      vertex 15.1294 6.78403 1.8
      vertex 16.8909 7.1282 1.8
      vertex 16.807 7.39445 1.8
    endloop
  endfacet
  facet normal 0 0 1
    outer loop
      vertex 17 -6.29999 1.8
      vertex 15.2424 -6.27431 1.8
      vertex 16.9878 -6.57889 1.8
    endloop
  endfacet
  facet normal 0 0 1
    outer loop
      vertex 15.1294 6.78403 1.8
      vertex 16.807 7.39445 1.8
      vertex 16.7002 7.65236 1.8
    endloop
  endfacet
  facet normal -0 0 1
    outer loop
      vertex 15.2196 -6.44728 1.8
      vertex 16.9878 -6.57889 1.8
      vertex 15.2424 -6.27431 1.8
    endloop
  endfacet
  facet normal 0 0 1
    outer loop
      vertex 15.0626 6.94522 1.8
      vertex 16.7002 7.65236 1.8
      vertex 16.5713 7.89999 1.8
    endloop
  endfacet
  facet normal 0 0 1
    outer loop
      vertex 16.9878 -6.57889 1.8
      vertex 15.2196 -6.44728 1.8
      vertex 16.9514 -6.85567 1.8
    endloop
  endfacet
  facet normal 0 0 1
    outer loop
      vertex 14.9821 7.09999 1.8
      vertex 16.5713 7.89999 1.8
      vertex 16.4213 8.13544 1.8
    endloop
  endfacet
  facet normal -0 0 1
    outer loop
      vertex 15.1819 -6.61763 1.8
      vertex 16.9514 -6.85567 1.8
      vertex 15.2196 -6.44728 1.8
    endloop
  endfacet
  facet normal 0 0 1
    outer loop
      vertex 14.8883 7.24715 1.8
      vertex 16.4213 8.13544 1.8
      vertex 16.2513 8.3569 1.8
    endloop
  endfacet
  facet normal 0 0 1
    outer loop
      vertex 16.9514 -6.85567 1.8
      vertex 15.1819 -6.61763 1.8
      vertex 16.8909 -7.1282 1.8
    endloop
  endfacet
  facet normal 0 0 1
    outer loop
      vertex 14.7821 7.38556 1.8
      vertex 16.2513 8.3569 1.8
      vertex 16.0627 8.56273 1.8
    endloop
  endfacet
  facet normal -0 0 1
    outer loop
      vertex 15.1294 -6.78403 1.8
      vertex 16.8909 -7.1282 1.8
      vertex 15.1819 -6.61763 1.8
    endloop
  endfacet
  facet normal 0 0 1
    outer loop
      vertex 14.7821 7.38556 1.8
      vertex 16.0627 8.56273 1.8
      vertex 15.8569 8.75133 1.8
    endloop
  endfacet
  facet normal 0 0 1
    outer loop
      vertex 16.8909 -7.1282 1.8
      vertex 15.1294 -6.78403 1.8
      vertex 16.807 -7.39445 1.8
    endloop
  endfacet
  facet normal 0 0 1
    outer loop
      vertex 14.6642 7.51421 1.8
      vertex 15.8569 8.75133 1.8
      vertex 15.6354 8.92128 1.8
    endloop
  endfacet
  facet normal 0 0 1
    outer loop
      vertex 16.807 -7.39445 1.8
      vertex 15.1294 -6.78403 1.8
      vertex 16.7002 -7.65236 1.8
    endloop
  endfacet
  facet normal 0 0 1
    outer loop
      vertex 14.5356 7.63208 1.8
      vertex 15.6354 8.92128 1.8
      vertex 15.4 9.07127 1.8
    endloop
  endfacet
  facet normal -0 0 1
    outer loop
      vertex 15.0626 -6.94522 1.8
      vertex 16.7002 -7.65236 1.8
      vertex 15.1294 -6.78403 1.8
    endloop
  endfacet
  facet normal 0 0 1
    outer loop
      vertex 16.7002 -7.65236 1.8
      vertex 15.0626 -6.94522 1.8
      vertex 16.5713 -7.89999 1.8
    endloop
  endfacet
  facet normal 0 0 1
    outer loop
      vertex 17 6.29999 1.8
      vertex 15.2424 6.27431 1.8
      vertex 15.25 6.09999 1.8
    endloop
  endfacet
  facet normal 0 0 1
    outer loop
      vertex 16.9878 6.57889 1.8
      vertex 15.2196 6.44728 1.8
      vertex 15.2424 6.27431 1.8
    endloop
  endfacet
  facet normal 0 0 1
    outer loop
      vertex 16.9514 6.85567 1.8
      vertex 15.1819 6.61763 1.8
      vertex 15.2196 6.44728 1.8
    endloop
  endfacet
  facet normal 0 0 1
    outer loop
      vertex 14.3972 7.7383 1.8
      vertex 15.4 9.07127 1.8
      vertex 15.1524 9.20018 1.8
    endloop
  endfacet
  facet normal 0 0 1
    outer loop
      vertex 16.8909 7.1282 1.8
      vertex 15.1294 6.78403 1.8
      vertex 15.1819 6.61763 1.8
    endloop
  endfacet
  facet normal 0 0 1
    outer loop
      vertex 16.7002 7.65236 1.8
      vertex 15.0626 6.94522 1.8
      vertex 15.1294 6.78403 1.8
    endloop
  endfacet
  facet normal 0 0 1
    outer loop
      vertex 16.5713 7.89999 1.8
      vertex 14.9821 7.09999 1.8
      vertex 15.0626 6.94522 1.8
    endloop
  endfacet
  facet normal 0 0 1
    outer loop
      vertex 14.25 7.83205 1.8
      vertex 15.1524 9.20018 1.8
      vertex 14.8945 9.30701 1.8
    endloop
  endfacet
  facet normal 0 0 1
    outer loop
      vertex 16.4213 8.13544 1.8
      vertex 14.8883 7.24715 1.8
      vertex 14.9821 7.09999 1.8
    endloop
  endfacet
  facet normal 0 0 1
    outer loop
      vertex 16.2513 8.3569 1.8
      vertex 14.7821 7.38556 1.8
      vertex 14.8883 7.24715 1.8
    endloop
  endfacet
  facet normal 0 0 1
    outer loop
      vertex 15.8569 8.75133 1.8
      vertex 14.6642 7.51421 1.8
      vertex 14.7821 7.38556 1.8
    endloop
  endfacet
  facet normal 0 0 1
    outer loop
      vertex 14.0952 7.91261 1.8
      vertex 14.8945 9.30701 1.8
      vertex 14.6282 9.39095 1.8
    endloop
  endfacet
  facet normal 0 0 1
    outer loop
      vertex 15.6354 8.92128 1.8
      vertex 14.5356 7.63208 1.8
      vertex 14.6642 7.51421 1.8
    endloop
  endfacet
  facet normal 0 0 1
    outer loop
      vertex 15.4 9.07127 1.8
      vertex 14.3972 7.7383 1.8
      vertex 14.5356 7.63208 1.8
    endloop
  endfacet
  facet normal 0 0 1
    outer loop
      vertex 14.0952 7.91261 1.8
      vertex 14.6282 9.39095 1.8
      vertex 14.3557 9.45137 1.8
    endloop
  endfacet
  facet normal 0 0 1
    outer loop
      vertex 15.1524 9.20018 1.8
      vertex 14.25 7.83205 1.8
      vertex 14.3972 7.7383 1.8
    endloop
  endfacet
  facet normal 0 0 1
    outer loop
      vertex 14.8945 9.30701 1.8
      vertex 14.0952 7.91261 1.8
      vertex 14.25 7.83205 1.8
    endloop
  endfacet
  facet normal 0 0 1
    outer loop
      vertex 13.934 7.97937 1.8
      vertex 14.3557 9.45137 1.8
      vertex 14.0789 9.48781 1.8
    endloop
  endfacet
  facet normal 0 0 1
    outer loop
      vertex 14.3557 9.45137 1.8
      vertex 13.934 7.97937 1.8
      vertex 14.0952 7.91261 1.8
    endloop
  endfacet
  facet normal 0 0 1
    outer loop
      vertex 13.7676 8.03185 1.8
      vertex 14.0789 9.48781 1.8
      vertex 13.8 9.49998 1.8
    endloop
  endfacet
  facet normal 0 0 1
    outer loop
      vertex 14.0789 9.48781 1.8
      vertex 13.7676 8.03185 1.8
      vertex 13.934 7.97937 1.8
    endloop
  endfacet
  facet normal 0 0 1
    outer loop
      vertex 13.8 9.49998 1.8
      vertex 13.5973 8.06961 1.8
      vertex 13.7676 8.03185 1.8
    endloop
  endfacet
  facet normal 0 0 1
    outer loop
      vertex 13.8 9.49998 1.8
      vertex 13.4243 8.09238 1.8
      vertex 13.5973 8.06961 1.8
    endloop
  endfacet
  facet normal 0 0 1
    outer loop
      vertex 13.8 9.49998 1.8
      vertex 13.25 8.09999 1.8
      vertex 13.4243 8.09238 1.8
    endloop
  endfacet
  facet normal 0 0 1
    outer loop
      vertex 13.8 9.49998 1.8
      vertex -13.25 8.09999 1.8
      vertex 13.25 8.09999 1.8
    endloop
  endfacet
  facet normal -0 0 1
    outer loop
      vertex -13.8 9.49998 1.8
      vertex -13.25 8.09999 1.8
      vertex 13.8 9.49998 1.8
    endloop
  endfacet
  facet normal 0 0 1
    outer loop
      vertex -13.25 8.09999 1.8
      vertex -13.8 9.49998 1.8
      vertex -13.4243 8.09238 1.8
    endloop
  endfacet
  facet normal 0 0 1
    outer loop
      vertex -13.8 9.49998 1.8
      vertex -13.5973 8.06961 1.8
      vertex -13.4243 8.09238 1.8
    endloop
  endfacet
  facet normal 0 0 1
    outer loop
      vertex -13.8 9.49998 1.8
      vertex -13.7676 8.03185 1.8
      vertex -13.5973 8.06961 1.8
    endloop
  endfacet
  facet normal -0 0 1
    outer loop
      vertex -14.0789 9.48781 1.8
      vertex -13.7676 8.03185 1.8
      vertex -13.8 9.49998 1.8
    endloop
  endfacet
  facet normal 0 0 1
    outer loop
      vertex -13.7676 8.03185 1.8
      vertex -14.0789 9.48781 1.8
      vertex -13.934 7.97937 1.8
    endloop
  endfacet
  facet normal -0 0 1
    outer loop
      vertex -14.3557 9.45137 1.8
      vertex -13.934 7.97937 1.8
      vertex -14.0789 9.48781 1.8
    endloop
  endfacet
  facet normal 0 0 1
    outer loop
      vertex -13.934 7.97937 1.8
      vertex -14.3557 9.45137 1.8
      vertex -14.0952 7.91261 1.8
    endloop
  endfacet
  facet normal -0 0 1
    outer loop
      vertex -14.6282 9.39095 1.8
      vertex -14.0952 7.91261 1.8
      vertex -14.3557 9.45137 1.8
    endloop
  endfacet
  facet normal -0 0 1
    outer loop
      vertex -14.8945 9.30701 1.8
      vertex -14.0952 7.91261 1.8
      vertex -14.6282 9.39095 1.8
    endloop
  endfacet
  facet normal 0 0 1
    outer loop
      vertex -14.0952 7.91261 1.8
      vertex -14.8945 9.30701 1.8
      vertex -14.25 7.83205 1.8
    endloop
  endfacet
  facet normal -0 0 1
    outer loop
      vertex -15.1524 9.20018 1.8
      vertex -14.25 7.83205 1.8
      vertex -14.8945 9.30701 1.8
    endloop
  endfacet
  facet normal 0 0 1
    outer loop
      vertex -14.25 7.83205 1.8
      vertex -15.1524 9.20018 1.8
      vertex -14.3972 7.7383 1.8
    endloop
  endfacet
  facet normal -0 0 1
    outer loop
      vertex -15.4 9.07127 1.8
      vertex -14.3972 7.7383 1.8
      vertex -15.1524 9.20018 1.8
    endloop
  endfacet
  facet normal 0 0 1
    outer loop
      vertex -14.3972 7.7383 1.8
      vertex -15.4 9.07127 1.8
      vertex -14.5356 7.63208 1.8
    endloop
  endfacet
  facet normal -0 0 1
    outer loop
      vertex -15.6354 8.92128 1.8
      vertex -14.5356 7.63208 1.8
      vertex -15.4 9.07127 1.8
    endloop
  endfacet
  facet normal 0 0 1
    outer loop
      vertex -14.5356 7.63208 1.8
      vertex -15.6354 8.92128 1.8
      vertex -14.6642 7.51421 1.8
    endloop
  endfacet
  facet normal -0 0 1
    outer loop
      vertex -15.8569 8.75133 1.8
      vertex -14.6642 7.51421 1.8
      vertex -15.6354 8.92128 1.8
    endloop
  endfacet
  facet normal 0 0 1
    outer loop
      vertex -14.6642 7.51421 1.8
      vertex -15.8569 8.75133 1.8
      vertex -14.7821 7.38556 1.8
    endloop
  endfacet
  facet normal -0 0 1
    outer loop
      vertex -16.0627 8.56273 1.8
      vertex -14.7821 7.38556 1.8
      vertex -15.8569 8.75133 1.8
    endloop
  endfacet
  facet normal -0 0 1
    outer loop
      vertex -16.2513 8.3569 1.8
      vertex -14.7821 7.38556 1.8
      vertex -16.0627 8.56273 1.8
    endloop
  endfacet
  facet normal 0 0 1
    outer loop
      vertex -14.7821 7.38556 1.8
      vertex -16.2513 8.3569 1.8
      vertex -14.8883 7.24715 1.8
    endloop
  endfacet
  facet normal -0 0 1
    outer loop
      vertex -16.4213 8.13544 1.8
      vertex -14.8883 7.24715 1.8
      vertex -16.2513 8.3569 1.8
    endloop
  endfacet
  facet normal 0 0 1
    outer loop
      vertex -14.8883 7.24715 1.8
      vertex -16.4213 8.13544 1.8
      vertex -14.9821 7.09999 1.8
    endloop
  endfacet
  facet normal 0 0 1
    outer loop
      vertex -14.9821 7.09999 1.8
      vertex -16.5713 7.89999 1.8
      vertex -15.0626 6.94522 1.8
    endloop
  endfacet
  facet normal -0 0 1
    outer loop
      vertex -16.5713 7.89999 1.8
      vertex -14.9821 7.09999 1.8
      vertex -16.4213 8.13544 1.8
    endloop
  endfacet
  facet normal -0 0 1
    outer loop
      vertex 14.9821 -7.09999 1.8
      vertex 16.5713 -7.89999 1.8
      vertex 15.0626 -6.94522 1.8
    endloop
  endfacet
  facet normal 0 0 1
    outer loop
      vertex 16.5713 -7.89999 1.8
      vertex 14.9821 -7.09999 1.8
      vertex 16.4213 -8.13544 1.8
    endloop
  endfacet
  facet normal -0 0 1
    outer loop
      vertex 14.8883 -7.24715 1.8
      vertex 16.4213 -8.13544 1.8
      vertex 14.9821 -7.09999 1.8
    endloop
  endfacet
  facet normal 0 0 1
    outer loop
      vertex 16.4213 -8.13544 1.8
      vertex 14.8883 -7.24715 1.8
      vertex 16.2513 -8.3569 1.8
    endloop
  endfacet
  facet normal -0 0 1
    outer loop
      vertex 14.7821 -7.38556 1.8
      vertex 16.2513 -8.3569 1.8
      vertex 14.8883 -7.24715 1.8
    endloop
  endfacet
  facet normal 0 0 1
    outer loop
      vertex 16.2513 -8.3569 1.8
      vertex 14.7821 -7.38556 1.8
      vertex 16.0627 -8.56273 1.8
    endloop
  endfacet
  facet normal 0 0 1
    outer loop
      vertex 16.0627 -8.56273 1.8
      vertex 14.7821 -7.38556 1.8
      vertex 15.8569 -8.75133 1.8
    endloop
  endfacet
  facet normal -0 0 1
    outer loop
      vertex 14.6642 -7.51421 1.8
      vertex 15.8569 -8.75133 1.8
      vertex 14.7821 -7.38556 1.8
    endloop
  endfacet
  facet normal 0 0 1
    outer loop
      vertex 15.8569 -8.75133 1.8
      vertex 14.6642 -7.51421 1.8
      vertex 15.6354 -8.92128 1.8
    endloop
  endfacet
  facet normal -0 0 1
    outer loop
      vertex 14.5356 -7.63208 1.8
      vertex 15.6354 -8.92128 1.8
      vertex 14.6642 -7.51421 1.8
    endloop
  endfacet
  facet normal 0 0 1
    outer loop
      vertex 15.6354 -8.92128 1.8
      vertex 14.5356 -7.63208 1.8
      vertex 15.4 -9.07127 1.8
    endloop
  endfacet
  facet normal -0 0 1
    outer loop
      vertex 14.3972 -7.7383 1.8
      vertex 15.4 -9.07127 1.8
      vertex 14.5356 -7.63208 1.8
    endloop
  endfacet
  facet normal 0 0 1
    outer loop
      vertex 15.4 -9.07127 1.8
      vertex 14.3972 -7.7383 1.8
      vertex 15.1524 -9.20018 1.8
    endloop
  endfacet
  facet normal -0 0 1
    outer loop
      vertex 14.25 -7.83205 1.8
      vertex 15.1524 -9.20018 1.8
      vertex 14.3972 -7.7383 1.8
    endloop
  endfacet
  facet normal 0 0 1
    outer loop
      vertex 15.1524 -9.20018 1.8
      vertex 14.25 -7.83205 1.8
      vertex 14.8945 -9.30701 1.8
    endloop
  endfacet
  facet normal -0 0 1
    outer loop
      vertex 14.0952 -7.91261 1.8
      vertex 14.8945 -9.30701 1.8
      vertex 14.25 -7.83205 1.8
    endloop
  endfacet
  facet normal 0 0 1
    outer loop
      vertex 14.8945 -9.30701 1.8
      vertex 14.0952 -7.91261 1.8
      vertex 14.6282 -9.39095 1.8
    endloop
  endfacet
  facet normal 0 0 1
    outer loop
      vertex 14.6282 -9.39095 1.8
      vertex 14.0952 -7.91261 1.8
      vertex 14.3557 -9.45137 1.8
    endloop
  endfacet
  facet normal -0 0 1
    outer loop
      vertex 13.934 -7.97937 1.8
      vertex 14.3557 -9.45137 1.8
      vertex 14.0952 -7.91261 1.8
    endloop
  endfacet
  facet normal 0 0 1
    outer loop
      vertex 14.3557 -9.45137 1.8
      vertex 13.934 -7.97937 1.8
      vertex 14.0789 -9.48781 1.8
    endloop
  endfacet
  facet normal -0 0 1
    outer loop
      vertex 13.7676 -8.03185 1.8
      vertex 14.0789 -9.48781 1.8
      vertex 13.934 -7.97937 1.8
    endloop
  endfacet
  facet normal 0 0 1
    outer loop
      vertex 14.0789 -9.48781 1.8
      vertex 13.7676 -8.03185 1.8
      vertex 13.8 -9.49998 1.8
    endloop
  endfacet
  facet normal -0 0 1
    outer loop
      vertex 13.5973 -8.06961 1.8
      vertex 13.8 -9.49998 1.8
      vertex 13.7676 -8.03185 1.8
    endloop
  endfacet
  facet normal -0 0 1
    outer loop
      vertex 13.4243 -8.09238 1.8
      vertex 13.8 -9.49998 1.8
      vertex 13.5973 -8.06961 1.8
    endloop
  endfacet
  facet normal -0 0 1
    outer loop
      vertex 13.25 -8.09999 1.8
      vertex 13.8 -9.49998 1.8
      vertex 13.4243 -8.09238 1.8
    endloop
  endfacet
  facet normal -0 0 1
    outer loop
      vertex -13.25 -8.09999 1.8
      vertex 13.8 -9.49998 1.8
      vertex 13.25 -8.09999 1.8
    endloop
  endfacet
  facet normal 0 0 1
    outer loop
      vertex -13.8 -9.49998 1.8
      vertex -13.25 -8.09999 1.8
      vertex -13.4243 -8.09238 1.8
    endloop
  endfacet
  facet normal 0 0 1
    outer loop
      vertex -13.25 -8.09999 1.8
      vertex -13.8 -9.49998 1.8
      vertex 13.8 -9.49998 1.8
    endloop
  endfacet
  facet normal 0 0 1
    outer loop
      vertex -13.5973 -8.06961 1.8
      vertex -13.8 -9.49998 1.8
      vertex -13.4243 -8.09238 1.8
    endloop
  endfacet
  facet normal 0 0 1
    outer loop
      vertex -13.7676 -8.03185 1.8
      vertex -13.8 -9.49998 1.8
      vertex -13.5973 -8.06961 1.8
    endloop
  endfacet
  facet normal 0 0 1
    outer loop
      vertex -14.0789 -9.48781 1.8
      vertex -13.7676 -8.03185 1.8
      vertex -13.934 -7.97937 1.8
    endloop
  endfacet
  facet normal 0 0 1
    outer loop
      vertex -13.7676 -8.03185 1.8
      vertex -14.0789 -9.48781 1.8
      vertex -13.8 -9.49998 1.8
    endloop
  endfacet
  facet normal 0 0 1
    outer loop
      vertex -14.3557 -9.45137 1.8
      vertex -13.934 -7.97937 1.8
      vertex -14.0952 -7.91261 1.8
    endloop
  endfacet
  facet normal 0 0 1
    outer loop
      vertex -14.8945 -9.30701 1.8
      vertex -14.0952 -7.91261 1.8
      vertex -14.25 -7.83205 1.8
    endloop
  endfacet
  facet normal 0 0 1
    outer loop
      vertex -13.934 -7.97937 1.8
      vertex -14.3557 -9.45137 1.8
      vertex -14.0789 -9.48781 1.8
    endloop
  endfacet
  facet normal 0 0 1
    outer loop
      vertex -15.1524 -9.20018 1.8
      vertex -14.25 -7.83205 1.8
      vertex -14.3972 -7.7383 1.8
    endloop
  endfacet
  facet normal 0 0 1
    outer loop
      vertex -15.4 -9.07127 1.8
      vertex -14.3972 -7.7383 1.8
      vertex -14.5356 -7.63208 1.8
    endloop
  endfacet
  facet normal 0 0 1
    outer loop
      vertex -14.0952 -7.91261 1.8
      vertex -14.6282 -9.39095 1.8
      vertex -14.3557 -9.45137 1.8
    endloop
  endfacet
  facet normal 0 0 1
    outer loop
      vertex -15.6354 -8.92128 1.8
      vertex -14.5356 -7.63208 1.8
      vertex -14.6642 -7.51421 1.8
    endloop
  endfacet
  facet normal 0 0 1
    outer loop
      vertex -15.8569 -8.75133 1.8
      vertex -14.6642 -7.51421 1.8
      vertex -14.7821 -7.38556 1.8
    endloop
  endfacet
  facet normal 0 0 1
    outer loop
      vertex -16.2513 -8.3569 1.8
      vertex -14.7821 -7.38556 1.8
      vertex -14.8883 -7.24715 1.8
    endloop
  endfacet
  facet normal 0 0 1
    outer loop
      vertex -14.0952 -7.91261 1.8
      vertex -14.8945 -9.30701 1.8
      vertex -14.6282 -9.39095 1.8
    endloop
  endfacet
  facet normal 0 0 1
    outer loop
      vertex -16.4213 -8.13544 1.8
      vertex -14.8883 -7.24715 1.8
      vertex -14.9821 -7.09999 1.8
    endloop
  endfacet
  facet normal 0 0 1
    outer loop
      vertex -16.5713 -7.89999 1.8
      vertex -14.9821 -7.09999 1.8
      vertex -15.0626 -6.94522 1.8
    endloop
  endfacet
  facet normal 0 0 1
    outer loop
      vertex -16.7002 -7.65236 1.8
      vertex -15.0626 -6.94522 1.8
      vertex -15.1294 -6.78403 1.8
    endloop
  endfacet
  facet normal 0 0 1
    outer loop
      vertex -14.25 -7.83205 1.8
      vertex -15.1524 -9.20018 1.8
      vertex -14.8945 -9.30701 1.8
    endloop
  endfacet
  facet normal 0 0 1
    outer loop
      vertex -16.8909 -7.1282 1.8
      vertex -15.1294 -6.78403 1.8
      vertex -15.1819 -6.61763 1.8
    endloop
  endfacet
  facet normal 0 0 1
    outer loop
      vertex -16.9514 -6.85567 1.8
      vertex -15.1819 -6.61763 1.8
      vertex -15.2196 -6.44728 1.8
    endloop
  endfacet
  facet normal 0 0 1
    outer loop
      vertex -16.9878 -6.57889 1.8
      vertex -15.2196 -6.44728 1.8
      vertex -15.2424 -6.27431 1.8
    endloop
  endfacet
  facet normal 0 0 1
    outer loop
      vertex -17 -6.29999 1.8
      vertex -15.2424 -6.27431 1.8
      vertex -15.25 -6.09999 1.8
    endloop
  endfacet
  facet normal 0 0 1
    outer loop
      vertex -14.3972 -7.7383 1.8
      vertex -15.4 -9.07127 1.8
      vertex -15.1524 -9.20018 1.8
    endloop
  endfacet
  facet normal 0 0 1
    outer loop
      vertex -15.25 6.09999 1.8
      vertex -17 6.29999 1.8
      vertex -15.25 -6.09999 1.8
    endloop
  endfacet
  facet normal -0 0 1
    outer loop
      vertex -16.7002 7.65236 1.8
      vertex -15.0626 6.94522 1.8
      vertex -16.5713 7.89999 1.8
    endloop
  endfacet
  facet normal 0 0 1
    outer loop
      vertex -17 -6.29999 1.8
      vertex -15.25 -6.09999 1.8
      vertex -17 6.29999 1.8
    endloop
  endfacet
  facet normal 0 0 1
    outer loop
      vertex -15.0626 6.94522 1.8
      vertex -16.7002 7.65236 1.8
      vertex -15.1294 6.78403 1.8
    endloop
  endfacet
  facet normal 0 0 1
    outer loop
      vertex -15.2424 -6.27431 1.8
      vertex -17 -6.29999 1.8
      vertex -16.9878 -6.57889 1.8
    endloop
  endfacet
  facet normal -0 0 1
    outer loop
      vertex -16.807 7.39445 1.8
      vertex -15.1294 6.78403 1.8
      vertex -16.7002 7.65236 1.8
    endloop
  endfacet
  facet normal 0 0 1
    outer loop
      vertex -14.5356 -7.63208 1.8
      vertex -15.6354 -8.92128 1.8
      vertex -15.4 -9.07127 1.8
    endloop
  endfacet
  facet normal -0 0 1
    outer loop
      vertex -16.8909 7.1282 1.8
      vertex -15.1294 6.78403 1.8
      vertex -16.807 7.39445 1.8
    endloop
  endfacet
  facet normal 0 0 1
    outer loop
      vertex -14.6642 -7.51421 1.8
      vertex -15.8569 -8.75133 1.8
      vertex -15.6354 -8.92128 1.8
    endloop
  endfacet
  facet normal 0 0 1
    outer loop
      vertex -15.1294 6.78403 1.8
      vertex -16.8909 7.1282 1.8
      vertex -15.1819 6.61763 1.8
    endloop
  endfacet
  facet normal 0 0 1
    outer loop
      vertex -14.7821 -7.38556 1.8
      vertex -16.0627 -8.56273 1.8
      vertex -15.8569 -8.75133 1.8
    endloop
  endfacet
  facet normal -0 0 1
    outer loop
      vertex -16.9514 6.85567 1.8
      vertex -15.1819 6.61763 1.8
      vertex -16.8909 7.1282 1.8
    endloop
  endfacet
  facet normal 0 0 1
    outer loop
      vertex -14.7821 -7.38556 1.8
      vertex -16.2513 -8.3569 1.8
      vertex -16.0627 -8.56273 1.8
    endloop
  endfacet
  facet normal 0 0 1
    outer loop
      vertex -15.1819 6.61763 1.8
      vertex -16.9514 6.85567 1.8
      vertex -15.2196 6.44728 1.8
    endloop
  endfacet
  facet normal 0 0 1
    outer loop
      vertex -14.8883 -7.24715 1.8
      vertex -16.4213 -8.13544 1.8
      vertex -16.2513 -8.3569 1.8
    endloop
  endfacet
  facet normal -0 0 1
    outer loop
      vertex -16.9878 6.57889 1.8
      vertex -15.2196 6.44728 1.8
      vertex -16.9514 6.85567 1.8
    endloop
  endfacet
  facet normal 0 0 1
    outer loop
      vertex -14.9821 -7.09999 1.8
      vertex -16.5713 -7.89999 1.8
      vertex -16.4213 -8.13544 1.8
    endloop
  endfacet
  facet normal 0 0 1
    outer loop
      vertex -15.2196 6.44728 1.8
      vertex -16.9878 6.57889 1.8
      vertex -15.2424 6.27431 1.8
    endloop
  endfacet
  facet normal 0 0 1
    outer loop
      vertex -15.0626 -6.94522 1.8
      vertex -16.7002 -7.65236 1.8
      vertex -16.5713 -7.89999 1.8
    endloop
  endfacet
  facet normal -0 0 1
    outer loop
      vertex -17 6.29999 1.8
      vertex -15.2424 6.27431 1.8
      vertex -16.9878 6.57889 1.8
    endloop
  endfacet
  facet normal 0 0 1
    outer loop
      vertex -15.1294 -6.78403 1.8
      vertex -16.807 -7.39445 1.8
      vertex -16.7002 -7.65236 1.8
    endloop
  endfacet
  facet normal 0 0 1
    outer loop
      vertex -15.2424 6.27431 1.8
      vertex -17 6.29999 1.8
      vertex -15.25 6.09999 1.8
    endloop
  endfacet
  facet normal 0 0 1
    outer loop
      vertex -15.1294 -6.78403 1.8
      vertex -16.8909 -7.1282 1.8
      vertex -16.807 -7.39445 1.8
    endloop
  endfacet
  facet normal 0 0 1
    outer loop
      vertex -15.1819 -6.61763 1.8
      vertex -16.9514 -6.85567 1.8
      vertex -16.8909 -7.1282 1.8
    endloop
  endfacet
  facet normal 0 0 1
    outer loop
      vertex -15.2196 -6.44728 1.8
      vertex -16.9878 -6.57889 1.8
      vertex -16.9514 -6.85567 1.8
    endloop
  endfacet
  facet normal -0.130521 0.991446 0
    outer loop
      vertex -14.0789 9.48781 0
      vertex -14.3557 9.45137 1.8
      vertex -14.0789 9.48781 1.8
    endloop
  endfacet
  facet normal -0.130521 0.991446 0
    outer loop
      vertex -14.3557 9.45137 1.8
      vertex -14.0789 9.48781 0
      vertex -14.3557 9.45137 0
    endloop
  endfacet
  facet normal 0.300627 -0.953742 0
    outer loop
      vertex 14.6282 -9.39095 0
      vertex 14.8945 -9.30701 1.8
      vertex 14.6282 -9.39095 1.8
    endloop
  endfacet
  facet normal 0.300627 -0.953742 0
    outer loop
      vertex 14.8945 -9.30701 1.8
      vertex 14.6282 -9.39095 0
      vertex 14.8945 -9.30701 0
    endloop
  endfacet
  facet normal 0.953767 0.300548 0
    outer loop
      vertex 16.8909 7.1282 1.8
      vertex 16.807 7.39445 0
      vertex 16.807 7.39445 1.8
    endloop
  endfacet
  facet normal 0.953767 0.300548 0
    outer loop
      vertex 16.807 7.39445 0
      vertex 16.8909 7.1282 1.8
      vertex 16.8909 7.1282 0
    endloop
  endfacet
  facet normal -0.461798 0.886985 0
    outer loop
      vertex -15.1524 9.20018 0
      vertex -15.4 9.07127 1.8
      vertex -15.1524 9.20018 1.8
    endloop
  endfacet
  facet normal -0.461798 0.886985 0
    outer loop
      vertex -15.4 9.07127 1.8
      vertex -15.1524 9.20018 0
      vertex -15.4 9.07127 0
    endloop
  endfacet
  facet normal -0.887023 0.461726 0
    outer loop
      vertex -16.7002 7.65236 0
      vertex -16.5713 7.89999 1.8
      vertex -16.5713 7.89999 0
    endloop
  endfacet
  facet normal -0.887023 0.461726 0
    outer loop
      vertex -16.5713 7.89999 1.8
      vertex -16.7002 7.65236 0
      vertex -16.7002 7.65236 1.8
    endloop
  endfacet
  facet normal 0.999045 -0.0437015 0
    outer loop
      vertex 16.9878 -6.57889 1.8
      vertex 17 -6.29999 0
      vertex 17 -6.29999 1.8
    endloop
  endfacet
  facet normal 0.999045 -0.0437015 0
    outer loop
      vertex 17 -6.29999 0
      vertex 16.9878 -6.57889 1.8
      vertex 16.9878 -6.57889 0
    endloop
  endfacet
  facet normal -0.53736 0.843353 0
    outer loop
      vertex -15.4 9.07127 0
      vertex -15.6354 8.92128 1.8
      vertex -15.4 9.07127 1.8
    endloop
  endfacet
  facet normal -0.53736 0.843353 0
    outer loop
      vertex -15.6354 8.92128 1.8
      vertex -15.4 9.07127 0
      vertex -15.6354 8.92128 0
    endloop
  endfacet
  facet normal 0.461798 -0.886985 0
    outer loop
      vertex 15.1524 -9.20018 0
      vertex 15.4 -9.07127 1.8
      vertex 15.1524 -9.20018 1.8
    endloop
  endfacet
  facet normal 0.461798 -0.886985 0
    outer loop
      vertex 15.4 -9.07127 1.8
      vertex 15.1524 -9.20018 0
      vertex 15.4 -9.07127 0
    endloop
  endfacet
  facet normal 0.382697 -0.923874 0
    outer loop
      vertex 14.8945 -9.30701 0
      vertex 15.1524 -9.20018 1.8
      vertex 14.8945 -9.30701 1.8
    endloop
  endfacet
  facet normal 0.382697 -0.923874 0
    outer loop
      vertex 15.1524 -9.20018 1.8
      vertex 14.8945 -9.30701 0
      vertex 15.1524 -9.20018 0
    endloop
  endfacet
  facet normal -0.130521 -0.991446 0
    outer loop
      vertex -14.3557 -9.45137 0
      vertex -14.0789 -9.48781 1.8
      vertex -14.3557 -9.45137 1.8
    endloop
  endfacet
  facet normal -0.130521 -0.991446 -0
    outer loop
      vertex -14.0789 -9.48781 1.8
      vertex -14.3557 -9.45137 0
      vertex -14.0789 -9.48781 0
    endloop
  endfacet
  facet normal -0.216468 0.97629 0
    outer loop
      vertex -14.3557 9.45137 0
      vertex -14.6282 9.39095 1.8
      vertex -14.3557 9.45137 1.8
    endloop
  endfacet
  facet normal -0.216468 0.97629 0
    outer loop
      vertex -14.6282 9.39095 1.8
      vertex -14.3557 9.45137 0
      vertex -14.6282 9.39095 0
    endloop
  endfacet
  facet normal -0.300627 0.953742 0
    outer loop
      vertex -14.6282 9.39095 0
      vertex -14.8945 9.30701 1.8
      vertex -14.6282 9.39095 1.8
    endloop
  endfacet
  facet normal -0.300627 0.953742 0
    outer loop
      vertex -14.8945 9.30701 1.8
      vertex -14.6282 9.39095 0
      vertex -14.8945 9.30701 0
    endloop
  endfacet
  facet normal -0.999045 0.0437015 0
    outer loop
      vertex -17 6.29999 0
      vertex -16.9878 6.57889 1.8
      vertex -16.9878 6.57889 0
    endloop
  endfacet
  facet normal -0.999045 0.0437015 0
    outer loop
      vertex -16.9878 6.57889 1.8
      vertex -17 6.29999 0
      vertex -17 6.29999 1.8
    endloop
  endfacet
  facet normal 0.976234 -0.216718 0
    outer loop
      vertex 16.8909 -7.1282 1.8
      vertex 16.9514 -6.85567 0
      vertex 16.9514 -6.85567 1.8
    endloop
  endfacet
  facet normal 0.976234 -0.216718 0
    outer loop
      vertex 16.9514 -6.85567 0
      vertex 16.8909 -7.1282 1.8
      vertex 16.8909 -7.1282 0
    endloop
  endfacet
  facet normal -0.737292 0.675574 0
    outer loop
      vertex -16.2513 8.3569 0
      vertex -16.0627 8.56273 1.8
      vertex -16.0627 8.56273 0
    endloop
  endfacet
  facet normal -0.737292 0.675574 0
    outer loop
      vertex -16.0627 8.56273 1.8
      vertex -16.2513 8.3569 0
      vertex -16.2513 8.3569 1.8
    endloop
  endfacet
  facet normal 0.737292 0.675574 0
    outer loop
      vertex 16.2513 8.3569 1.8
      vertex 16.0627 8.56273 0
      vertex 16.0627 8.56273 1.8
    endloop
  endfacet
  facet normal 0.737292 0.675574 0
    outer loop
      vertex 16.0627 8.56273 0
      vertex 16.2513 8.3569 1.8
      vertex 16.2513 8.3569 0
    endloop
  endfacet
  facet normal -0.999045 -0.0437015 0
    outer loop
      vertex -16.9878 -6.57889 0
      vertex -17 -6.29999 1.8
      vertex -17 -6.29999 0
    endloop
  endfacet
  facet normal -0.999045 -0.0437015 0
    outer loop
      vertex -17 -6.29999 1.8
      vertex -16.9878 -6.57889 0
      vertex -16.9878 -6.57889 1.8
    endloop
  endfacet
  facet normal 1 -0 0
    outer loop
      vertex 17 -6.29999 1.8
      vertex 17 6.29999 0
      vertex 17 6.29999 1.8
    endloop
  endfacet
  facet normal 1 0 0
    outer loop
      vertex 17 6.29999 0
      vertex 17 -6.29999 1.8
      vertex 17 -6.29999 0
    endloop
  endfacet
  facet normal -0.991463 -0.13039 0
    outer loop
      vertex -16.9514 -6.85567 0
      vertex -16.9878 -6.57889 1.8
      vertex -16.9878 -6.57889 0
    endloop
  endfacet
  facet normal -0.991463 -0.13039 0
    outer loop
      vertex -16.9878 -6.57889 1.8
      vertex -16.9514 -6.85567 0
      vertex -16.9514 -6.85567 1.8
    endloop
  endfacet
  facet normal 0.53736 0.843353 -0
    outer loop
      vertex 15.6354 8.92128 0
      vertex 15.4 9.07127 1.8
      vertex 15.6354 8.92128 1.8
    endloop
  endfacet
  facet normal 0.53736 0.843353 0
    outer loop
      vertex 15.4 9.07127 1.8
      vertex 15.6354 8.92128 0
      vertex 15.4 9.07127 0
    endloop
  endfacet
  facet normal 0.923917 -0.382592 0
    outer loop
      vertex 16.7002 -7.65236 1.8
      vertex 16.807 -7.39445 0
      vertex 16.807 -7.39445 1.8
    endloop
  endfacet
  facet normal 0.923917 -0.382592 0
    outer loop
      vertex 16.807 -7.39445 0
      vertex 16.7002 -7.65236 1.8
      vertex 16.7002 -7.65236 0
    endloop
  endfacet
  facet normal 0.953767 -0.300548 0
    outer loop
      vertex 16.807 -7.39445 1.8
      vertex 16.8909 -7.1282 0
      vertex 16.8909 -7.1282 1.8
    endloop
  endfacet
  facet normal 0.953767 -0.300548 0
    outer loop
      vertex 16.8909 -7.1282 0
      vertex 16.807 -7.39445 1.8
      vertex 16.807 -7.39445 0
    endloop
  endfacet
  facet normal 0.887023 -0.461726 0
    outer loop
      vertex 16.5713 -7.89999 1.8
      vertex 16.7002 -7.65236 0
      vertex 16.7002 -7.65236 1.8
    endloop
  endfacet
  facet normal 0.887023 -0.461726 0
    outer loop
      vertex 16.7002 -7.65236 0
      vertex 16.5713 -7.89999 1.8
      vertex 16.5713 -7.89999 0
    endloop
  endfacet
  facet normal 0.999045 0.0437015 0
    outer loop
      vertex 17 6.29999 1.8
      vertex 16.9878 6.57889 0
      vertex 16.9878 6.57889 1.8
    endloop
  endfacet
  facet normal 0.999045 0.0437015 0
    outer loop
      vertex 16.9878 6.57889 0
      vertex 17 6.29999 1.8
      vertex 17 6.29999 0
    endloop
  endfacet
  facet normal -0.793236 -0.608914 0
    outer loop
      vertex -16.2513 -8.3569 0
      vertex -16.4213 -8.13544 1.8
      vertex -16.4213 -8.13544 0
    endloop
  endfacet
  facet normal -0.793236 -0.608914 0
    outer loop
      vertex -16.4213 -8.13544 1.8
      vertex -16.2513 -8.3569 0
      vertex -16.2513 -8.3569 1.8
    endloop
  endfacet
  facet normal -0.0435942 -0.999049 0
    outer loop
      vertex -14.0789 -9.48781 0
      vertex -13.8 -9.49998 1.8
      vertex -14.0789 -9.48781 1.8
    endloop
  endfacet
  facet normal -0.0435942 -0.999049 -0
    outer loop
      vertex -13.8 -9.49998 1.8
      vertex -14.0789 -9.48781 0
      vertex -13.8 -9.49998 0
    endloop
  endfacet
  facet normal -0.382697 0.923874 0
    outer loop
      vertex -14.8945 9.30701 0
      vertex -15.1524 9.20018 1.8
      vertex -14.8945 9.30701 1.8
    endloop
  endfacet
  facet normal -0.382697 0.923874 0
    outer loop
      vertex -15.1524 9.20018 1.8
      vertex -14.8945 9.30701 0
      vertex -15.1524 9.20018 0
    endloop
  endfacet
  facet normal -0.991463 0.13039 0
    outer loop
      vertex -16.9878 6.57889 0
      vertex -16.9514 6.85567 1.8
      vertex -16.9514 6.85567 0
    endloop
  endfacet
  facet normal -0.991463 0.13039 0
    outer loop
      vertex -16.9514 6.85567 1.8
      vertex -16.9878 6.57889 0
      vertex -16.9878 6.57889 1.8
    endloop
  endfacet
  facet normal 0 0 -1
    outer loop
      vertex 15.2424 -6.27431 0
      vertex 17 -6.29999 0
      vertex 16.9878 -6.57889 0
    endloop
  endfacet
  facet normal 0 0 -1
    outer loop
      vertex 17 -6.29999 0
      vertex 15.25 -6.09999 0
      vertex 17 6.29999 0
    endloop
  endfacet
  facet normal 0 0 -1
    outer loop
      vertex 15.2196 -6.44728 0
      vertex 16.9878 -6.57889 0
      vertex 16.9514 -6.85567 0
    endloop
  endfacet
  facet normal 0 0 -1
    outer loop
      vertex 15.25 6.09999 0
      vertex 17 6.29999 0
      vertex 15.25 -6.09999 0
    endloop
  endfacet
  facet normal 0 0 -1
    outer loop
      vertex 15.1819 -6.61763 0
      vertex 16.9514 -6.85567 0
      vertex 16.8909 -7.1282 0
    endloop
  endfacet
  facet normal 0 0 -1
    outer loop
      vertex 15.2424 6.27431 0
      vertex 17 6.29999 0
      vertex 15.25 6.09999 0
    endloop
  endfacet
  facet normal 0 0 -1
    outer loop
      vertex 15.1294 -6.78403 0
      vertex 16.8909 -7.1282 0
      vertex 16.807 -7.39445 0
    endloop
  endfacet
  facet normal -0 0 -1
    outer loop
      vertex 17 6.29999 0
      vertex 15.2424 6.27431 0
      vertex 16.9878 6.57889 0
    endloop
  endfacet
  facet normal 0 0 -1
    outer loop
      vertex 15.1294 -6.78403 0
      vertex 16.807 -7.39445 0
      vertex 16.7002 -7.65236 0
    endloop
  endfacet
  facet normal 0 0 -1
    outer loop
      vertex 15.2196 6.44728 0
      vertex 16.9878 6.57889 0
      vertex 15.2424 6.27431 0
    endloop
  endfacet
  facet normal 0 0 -1
    outer loop
      vertex 15.0626 -6.94522 0
      vertex 16.7002 -7.65236 0
      vertex 16.5713 -7.89999 0
    endloop
  endfacet
  facet normal -0 0 -1
    outer loop
      vertex 16.9878 6.57889 0
      vertex 15.2196 6.44728 0
      vertex 16.9514 6.85567 0
    endloop
  endfacet
  facet normal 0 0 -1
    outer loop
      vertex 14.9821 -7.09999 0
      vertex 16.5713 -7.89999 0
      vertex 16.4213 -8.13544 0
    endloop
  endfacet
  facet normal 0 0 -1
    outer loop
      vertex 15.1819 6.61763 0
      vertex 16.9514 6.85567 0
      vertex 15.2196 6.44728 0
    endloop
  endfacet
  facet normal 0 0 -1
    outer loop
      vertex 14.8883 -7.24715 0
      vertex 16.4213 -8.13544 0
      vertex 16.2513 -8.3569 0
    endloop
  endfacet
  facet normal -0 0 -1
    outer loop
      vertex 16.9514 6.85567 0
      vertex 15.1819 6.61763 0
      vertex 16.8909 7.1282 0
    endloop
  endfacet
  facet normal 0 0 -1
    outer loop
      vertex 14.7821 -7.38556 0
      vertex 16.2513 -8.3569 0
      vertex 16.0627 -8.56273 0
    endloop
  endfacet
  facet normal 0 0 -1
    outer loop
      vertex 15.1294 6.78403 0
      vertex 16.8909 7.1282 0
      vertex 15.1819 6.61763 0
    endloop
  endfacet
  facet normal 0 0 -1
    outer loop
      vertex 14.7821 -7.38556 0
      vertex 16.0627 -8.56273 0
      vertex 15.8569 -8.75133 0
    endloop
  endfacet
  facet normal -0 0 -1
    outer loop
      vertex 16.8909 7.1282 0
      vertex 15.1294 6.78403 0
      vertex 16.807 7.39445 0
    endloop
  endfacet
  facet normal 0 0 -1
    outer loop
      vertex 14.6642 -7.51421 0
      vertex 15.8569 -8.75133 0
      vertex 15.6354 -8.92128 0
    endloop
  endfacet
  facet normal -0 0 -1
    outer loop
      vertex 16.807 7.39445 0
      vertex 15.1294 6.78403 0
      vertex 16.7002 7.65236 0
    endloop
  endfacet
  facet normal 0 0 -1
    outer loop
      vertex 14.5356 -7.63208 0
      vertex 15.6354 -8.92128 0
      vertex 15.4 -9.07127 0
    endloop
  endfacet
  facet normal 0 0 -1
    outer loop
      vertex 15.0626 6.94522 0
      vertex 16.7002 7.65236 0
      vertex 15.1294 6.78403 0
    endloop
  endfacet
  facet normal -0 0 -1
    outer loop
      vertex 16.7002 7.65236 0
      vertex 15.0626 6.94522 0
      vertex 16.5713 7.89999 0
    endloop
  endfacet
  facet normal 0 0 -1
    outer loop
      vertex 17 -6.29999 0
      vertex 15.2424 -6.27431 0
      vertex 15.25 -6.09999 0
    endloop
  endfacet
  facet normal 0 0 -1
    outer loop
      vertex 16.9878 -6.57889 0
      vertex 15.2196 -6.44728 0
      vertex 15.2424 -6.27431 0
    endloop
  endfacet
  facet normal 0 0 -1
    outer loop
      vertex 16.9514 -6.85567 0
      vertex 15.1819 -6.61763 0
      vertex 15.2196 -6.44728 0
    endloop
  endfacet
  facet normal 0 0 -1
    outer loop
      vertex 14.3972 -7.7383 0
      vertex 15.4 -9.07127 0
      vertex 15.1524 -9.20018 0
    endloop
  endfacet
  facet normal 0 0 -1
    outer loop
      vertex 16.8909 -7.1282 0
      vertex 15.1294 -6.78403 0
      vertex 15.1819 -6.61763 0
    endloop
  endfacet
  facet normal 0 0 -1
    outer loop
      vertex 16.7002 -7.65236 0
      vertex 15.0626 -6.94522 0
      vertex 15.1294 -6.78403 0
    endloop
  endfacet
  facet normal 0 0 -1
    outer loop
      vertex 16.5713 -7.89999 0
      vertex 14.9821 -7.09999 0
      vertex 15.0626 -6.94522 0
    endloop
  endfacet
  facet normal 0 0 -1
    outer loop
      vertex 14.25 -7.83205 0
      vertex 15.1524 -9.20018 0
      vertex 14.8945 -9.30701 0
    endloop
  endfacet
  facet normal 0 0 -1
    outer loop
      vertex 16.4213 -8.13544 0
      vertex 14.8883 -7.24715 0
      vertex 14.9821 -7.09999 0
    endloop
  endfacet
  facet normal 0 0 -1
    outer loop
      vertex 16.2513 -8.3569 0
      vertex 14.7821 -7.38556 0
      vertex 14.8883 -7.24715 0
    endloop
  endfacet
  facet normal 0 0 -1
    outer loop
      vertex 15.8569 -8.75133 0
      vertex 14.6642 -7.51421 0
      vertex 14.7821 -7.38556 0
    endloop
  endfacet
  facet normal 0 0 -1
    outer loop
      vertex 14.0952 -7.91261 0
      vertex 14.8945 -9.30701 0
      vertex 14.6282 -9.39095 0
    endloop
  endfacet
  facet normal 0 0 -1
    outer loop
      vertex 15.6354 -8.92128 0
      vertex 14.5356 -7.63208 0
      vertex 14.6642 -7.51421 0
    endloop
  endfacet
  facet normal 0 0 -1
    outer loop
      vertex 15.4 -9.07127 0
      vertex 14.3972 -7.7383 0
      vertex 14.5356 -7.63208 0
    endloop
  endfacet
  facet normal 0 0 -1
    outer loop
      vertex 14.0952 -7.91261 0
      vertex 14.6282 -9.39095 0
      vertex 14.3557 -9.45137 0
    endloop
  endfacet
  facet normal 0 0 -1
    outer loop
      vertex 15.1524 -9.20018 0
      vertex 14.25 -7.83205 0
      vertex 14.3972 -7.7383 0
    endloop
  endfacet
  facet normal 0 0 -1
    outer loop
      vertex 14.8945 -9.30701 0
      vertex 14.0952 -7.91261 0
      vertex 14.25 -7.83205 0
    endloop
  endfacet
  facet normal 0 0 -1
    outer loop
      vertex 13.934 -7.97937 0
      vertex 14.3557 -9.45137 0
      vertex 14.0789 -9.48781 0
    endloop
  endfacet
  facet normal 0 0 -1
    outer loop
      vertex 14.3557 -9.45137 0
      vertex 13.934 -7.97937 0
      vertex 14.0952 -7.91261 0
    endloop
  endfacet
  facet normal 0 0 -1
    outer loop
      vertex 13.7676 -8.03185 0
      vertex 14.0789 -9.48781 0
      vertex 13.8 -9.49998 0
    endloop
  endfacet
  facet normal 0 0 -1
    outer loop
      vertex 14.0789 -9.48781 0
      vertex 13.7676 -8.03185 0
      vertex 13.934 -7.97937 0
    endloop
  endfacet
  facet normal 0 0 -1
    outer loop
      vertex 13.8 -9.49998 0
      vertex 13.5973 -8.06961 0
      vertex 13.7676 -8.03185 0
    endloop
  endfacet
  facet normal 0 0 -1
    outer loop
      vertex 13.8 -9.49998 0
      vertex 13.4243 -8.09238 0
      vertex 13.5973 -8.06961 0
    endloop
  endfacet
  facet normal 0 0 -1
    outer loop
      vertex 13.8 -9.49998 0
      vertex 13.25 -8.09999 0
      vertex 13.4243 -8.09238 0
    endloop
  endfacet
  facet normal 0 0 -1
    outer loop
      vertex 13.8 -9.49998 0
      vertex -13.25 -8.09999 0
      vertex 13.25 -8.09999 0
    endloop
  endfacet
  facet normal 0 0 -1
    outer loop
      vertex -13.8 -9.49998 0
      vertex -13.25 -8.09999 0
      vertex 13.8 -9.49998 0
    endloop
  endfacet
  facet normal -0 0 -1
    outer loop
      vertex -13.25 -8.09999 0
      vertex -13.8 -9.49998 0
      vertex -13.4243 -8.09238 0
    endloop
  endfacet
  facet normal 0 0 -1
    outer loop
      vertex -13.8 -9.49998 0
      vertex -13.5973 -8.06961 0
      vertex -13.4243 -8.09238 0
    endloop
  endfacet
  facet normal 0 0 -1
    outer loop
      vertex -13.8 -9.49998 0
      vertex -13.7676 -8.03185 0
      vertex -13.5973 -8.06961 0
    endloop
  endfacet
  facet normal 0 0 -1
    outer loop
      vertex -14.0789 -9.48781 0
      vertex -13.7676 -8.03185 0
      vertex -13.8 -9.49998 0
    endloop
  endfacet
  facet normal -0 0 -1
    outer loop
      vertex -13.7676 -8.03185 0
      vertex -14.0789 -9.48781 0
      vertex -13.934 -7.97937 0
    endloop
  endfacet
  facet normal 0 0 -1
    outer loop
      vertex -14.3557 -9.45137 0
      vertex -13.934 -7.97937 0
      vertex -14.0789 -9.48781 0
    endloop
  endfacet
  facet normal -0 0 -1
    outer loop
      vertex -13.934 -7.97937 0
      vertex -14.3557 -9.45137 0
      vertex -14.0952 -7.91261 0
    endloop
  endfacet
  facet normal 0 0 -1
    outer loop
      vertex -14.6282 -9.39095 0
      vertex -14.0952 -7.91261 0
      vertex -14.3557 -9.45137 0
    endloop
  endfacet
  facet normal 0 0 -1
    outer loop
      vertex -14.8945 -9.30701 0
      vertex -14.0952 -7.91261 0
      vertex -14.6282 -9.39095 0
    endloop
  endfacet
  facet normal -0 0 -1
    outer loop
      vertex -14.0952 -7.91261 0
      vertex -14.8945 -9.30701 0
      vertex -14.25 -7.83205 0
    endloop
  endfacet
  facet normal 0 0 -1
    outer loop
      vertex -15.1524 -9.20018 0
      vertex -14.25 -7.83205 0
      vertex -14.8945 -9.30701 0
    endloop
  endfacet
  facet normal -0 0 -1
    outer loop
      vertex -14.25 -7.83205 0
      vertex -15.1524 -9.20018 0
      vertex -14.3972 -7.7383 0
    endloop
  endfacet
  facet normal 0 0 -1
    outer loop
      vertex -15.4 -9.07127 0
      vertex -14.3972 -7.7383 0
      vertex -15.1524 -9.20018 0
    endloop
  endfacet
  facet normal -0 0 -1
    outer loop
      vertex -14.3972 -7.7383 0
      vertex -15.4 -9.07127 0
      vertex -14.5356 -7.63208 0
    endloop
  endfacet
  facet normal 0 0 -1
    outer loop
      vertex -15.6354 -8.92128 0
      vertex -14.5356 -7.63208 0
      vertex -15.4 -9.07127 0
    endloop
  endfacet
  facet normal -0 0 -1
    outer loop
      vertex -14.5356 -7.63208 0
      vertex -15.6354 -8.92128 0
      vertex -14.6642 -7.51421 0
    endloop
  endfacet
  facet normal 0 0 -1
    outer loop
      vertex -15.8569 -8.75133 0
      vertex -14.6642 -7.51421 0
      vertex -15.6354 -8.92128 0
    endloop
  endfacet
  facet normal -0 0 -1
    outer loop
      vertex -14.6642 -7.51421 0
      vertex -15.8569 -8.75133 0
      vertex -14.7821 -7.38556 0
    endloop
  endfacet
  facet normal 0 0 -1
    outer loop
      vertex -16.0627 -8.56273 0
      vertex -14.7821 -7.38556 0
      vertex -15.8569 -8.75133 0
    endloop
  endfacet
  facet normal 0 0 -1
    outer loop
      vertex -16.2513 -8.3569 0
      vertex -14.7821 -7.38556 0
      vertex -16.0627 -8.56273 0
    endloop
  endfacet
  facet normal -0 0 -1
    outer loop
      vertex -14.7821 -7.38556 0
      vertex -16.2513 -8.3569 0
      vertex -14.8883 -7.24715 0
    endloop
  endfacet
  facet normal 0 0 -1
    outer loop
      vertex -16.4213 -8.13544 0
      vertex -14.8883 -7.24715 0
      vertex -16.2513 -8.3569 0
    endloop
  endfacet
  facet normal -0 0 -1
    outer loop
      vertex -14.8883 -7.24715 0
      vertex -16.4213 -8.13544 0
      vertex -14.9821 -7.09999 0
    endloop
  endfacet
  facet normal -0 0 -1
    outer loop
      vertex -14.9821 -7.09999 0
      vertex -16.5713 -7.89999 0
      vertex -15.0626 -6.94522 0
    endloop
  endfacet
  facet normal 0 0 -1
    outer loop
      vertex -16.5713 -7.89999 0
      vertex -14.9821 -7.09999 0
      vertex -16.4213 -8.13544 0
    endloop
  endfacet
  facet normal 0 0 -1
    outer loop
      vertex 14.9821 7.09999 0
      vertex 16.5713 7.89999 0
      vertex 15.0626 6.94522 0
    endloop
  endfacet
  facet normal -0 0 -1
    outer loop
      vertex 16.5713 7.89999 0
      vertex 14.9821 7.09999 0
      vertex 16.4213 8.13544 0
    endloop
  endfacet
  facet normal 0 0 -1
    outer loop
      vertex 14.8883 7.24715 0
      vertex 16.4213 8.13544 0
      vertex 14.9821 7.09999 0
    endloop
  endfacet
  facet normal -0 0 -1
    outer loop
      vertex 16.4213 8.13544 0
      vertex 14.8883 7.24715 0
      vertex 16.2513 8.3569 0
    endloop
  endfacet
  facet normal 0 0 -1
    outer loop
      vertex 14.7821 7.38556 0
      vertex 16.2513 8.3569 0
      vertex 14.8883 7.24715 0
    endloop
  endfacet
  facet normal -0 0 -1
    outer loop
      vertex 16.2513 8.3569 0
      vertex 14.7821 7.38556 0
      vertex 16.0627 8.56273 0
    endloop
  endfacet
  facet normal -0 0 -1
    outer loop
      vertex 16.0627 8.56273 0
      vertex 14.7821 7.38556 0
      vertex 15.8569 8.75133 0
    endloop
  endfacet
  facet normal 0 0 -1
    outer loop
      vertex 14.6642 7.51421 0
      vertex 15.8569 8.75133 0
      vertex 14.7821 7.38556 0
    endloop
  endfacet
  facet normal -0 0 -1
    outer loop
      vertex 15.8569 8.75133 0
      vertex 14.6642 7.51421 0
      vertex 15.6354 8.92128 0
    endloop
  endfacet
  facet normal 0 0 -1
    outer loop
      vertex 14.5356 7.63208 0
      vertex 15.6354 8.92128 0
      vertex 14.6642 7.51421 0
    endloop
  endfacet
  facet normal -0 0 -1
    outer loop
      vertex 15.6354 8.92128 0
      vertex 14.5356 7.63208 0
      vertex 15.4 9.07127 0
    endloop
  endfacet
  facet normal 0 0 -1
    outer loop
      vertex 14.3972 7.7383 0
      vertex 15.4 9.07127 0
      vertex 14.5356 7.63208 0
    endloop
  endfacet
  facet normal -0 0 -1
    outer loop
      vertex 15.4 9.07127 0
      vertex 14.3972 7.7383 0
      vertex 15.1524 9.20018 0
    endloop
  endfacet
  facet normal 0 0 -1
    outer loop
      vertex 14.25 7.83205 0
      vertex 15.1524 9.20018 0
      vertex 14.3972 7.7383 0
    endloop
  endfacet
  facet normal -0 0 -1
    outer loop
      vertex 15.1524 9.20018 0
      vertex 14.25 7.83205 0
      vertex 14.8945 9.30701 0
    endloop
  endfacet
  facet normal 0 0 -1
    outer loop
      vertex 14.0952 7.91261 0
      vertex 14.8945 9.30701 0
      vertex 14.25 7.83205 0
    endloop
  endfacet
  facet normal -0 0 -1
    outer loop
      vertex 14.8945 9.30701 0
      vertex 14.0952 7.91261 0
      vertex 14.6282 9.39095 0
    endloop
  endfacet
  facet normal -0 0 -1
    outer loop
      vertex 14.6282 9.39095 0
      vertex 14.0952 7.91261 0
      vertex 14.3557 9.45137 0
    endloop
  endfacet
  facet normal 0 0 -1
    outer loop
      vertex 13.934 7.97937 0
      vertex 14.3557 9.45137 0
      vertex 14.0952 7.91261 0
    endloop
  endfacet
  facet normal -0 0 -1
    outer loop
      vertex 14.3557 9.45137 0
      vertex 13.934 7.97937 0
      vertex 14.0789 9.48781 0
    endloop
  endfacet
  facet normal 0 0 -1
    outer loop
      vertex 13.7676 8.03185 0
      vertex 14.0789 9.48781 0
      vertex 13.934 7.97937 0
    endloop
  endfacet
  facet normal -0 0 -1
    outer loop
      vertex 14.0789 9.48781 0
      vertex 13.7676 8.03185 0
      vertex 13.8 9.49998 0
    endloop
  endfacet
  facet normal 0 0 -1
    outer loop
      vertex 13.5973 8.06961 0
      vertex 13.8 9.49998 0
      vertex 13.7676 8.03185 0
    endloop
  endfacet
  facet normal 0 0 -1
    outer loop
      vertex 13.4243 8.09238 0
      vertex 13.8 9.49998 0
      vertex 13.5973 8.06961 0
    endloop
  endfacet
  facet normal 0 0 -1
    outer loop
      vertex 13.25 8.09999 0
      vertex 13.8 9.49998 0
      vertex 13.4243 8.09238 0
    endloop
  endfacet
  facet normal 0 0 -1
    outer loop
      vertex -13.25 8.09999 0
      vertex 13.8 9.49998 0
      vertex 13.25 8.09999 0
    endloop
  endfacet
  facet normal 0 0 -1
    outer loop
      vertex -13.8 9.49998 0
      vertex -13.25 8.09999 0
      vertex -13.4243 8.09238 0
    endloop
  endfacet
  facet normal 0 0 -1
    outer loop
      vertex -13.25 8.09999 0
      vertex -13.8 9.49998 0
      vertex 13.8 9.49998 0
    endloop
  endfacet
  facet normal 0 0 -1
    outer loop
      vertex -13.5973 8.06961 0
      vertex -13.8 9.49998 0
      vertex -13.4243 8.09238 0
    endloop
  endfacet
  facet normal 0 0 -1
    outer loop
      vertex -13.7676 8.03185 0
      vertex -13.8 9.49998 0
      vertex -13.5973 8.06961 0
    endloop
  endfacet
  facet normal 0 0 -1
    outer loop
      vertex -14.0789 9.48781 0
      vertex -13.7676 8.03185 0
      vertex -13.934 7.97937 0
    endloop
  endfacet
  facet normal 0 0 -1
    outer loop
      vertex -13.7676 8.03185 0
      vertex -14.0789 9.48781 0
      vertex -13.8 9.49998 0
    endloop
  endfacet
  facet normal 0 0 -1
    outer loop
      vertex -14.3557 9.45137 0
      vertex -13.934 7.97937 0
      vertex -14.0952 7.91261 0
    endloop
  endfacet
  facet normal 0 0 -1
    outer loop
      vertex -14.8945 9.30701 0
      vertex -14.0952 7.91261 0
      vertex -14.25 7.83205 0
    endloop
  endfacet
  facet normal 0 0 -1
    outer loop
      vertex -13.934 7.97937 0
      vertex -14.3557 9.45137 0
      vertex -14.0789 9.48781 0
    endloop
  endfacet
  facet normal 0 0 -1
    outer loop
      vertex -15.1524 9.20018 0
      vertex -14.25 7.83205 0
      vertex -14.3972 7.7383 0
    endloop
  endfacet
  facet normal 0 0 -1
    outer loop
      vertex -15.4 9.07127 0
      vertex -14.3972 7.7383 0
      vertex -14.5356 7.63208 0
    endloop
  endfacet
  facet normal 0 0 -1
    outer loop
      vertex -14.0952 7.91261 0
      vertex -14.6282 9.39095 0
      vertex -14.3557 9.45137 0
    endloop
  endfacet
  facet normal 0 0 -1
    outer loop
      vertex -15.6354 8.92128 0
      vertex -14.5356 7.63208 0
      vertex -14.6642 7.51421 0
    endloop
  endfacet
  facet normal 0 0 -1
    outer loop
      vertex -15.8569 8.75133 0
      vertex -14.6642 7.51421 0
      vertex -14.7821 7.38556 0
    endloop
  endfacet
  facet normal 0 0 -1
    outer loop
      vertex -16.2513 8.3569 0
      vertex -14.7821 7.38556 0
      vertex -14.8883 7.24715 0
    endloop
  endfacet
  facet normal 0 0 -1
    outer loop
      vertex -14.0952 7.91261 0
      vertex -14.8945 9.30701 0
      vertex -14.6282 9.39095 0
    endloop
  endfacet
  facet normal 0 0 -1
    outer loop
      vertex -16.4213 8.13544 0
      vertex -14.8883 7.24715 0
      vertex -14.9821 7.09999 0
    endloop
  endfacet
  facet normal 0 0 -1
    outer loop
      vertex -16.5713 7.89999 0
      vertex -14.9821 7.09999 0
      vertex -15.0626 6.94522 0
    endloop
  endfacet
  facet normal 0 0 -1
    outer loop
      vertex -16.7002 7.65236 0
      vertex -15.0626 6.94522 0
      vertex -15.1294 6.78403 0
    endloop
  endfacet
  facet normal 0 0 -1
    outer loop
      vertex -14.25 7.83205 0
      vertex -15.1524 9.20018 0
      vertex -14.8945 9.30701 0
    endloop
  endfacet
  facet normal 0 0 -1
    outer loop
      vertex -16.8909 7.1282 0
      vertex -15.1294 6.78403 0
      vertex -15.1819 6.61763 0
    endloop
  endfacet
  facet normal 0 0 -1
    outer loop
      vertex -16.9514 6.85567 0
      vertex -15.1819 6.61763 0
      vertex -15.2196 6.44728 0
    endloop
  endfacet
  facet normal 0 0 -1
    outer loop
      vertex -16.9878 6.57889 0
      vertex -15.2196 6.44728 0
      vertex -15.2424 6.27431 0
    endloop
  endfacet
  facet normal 0 0 -1
    outer loop
      vertex -17 6.29999 0
      vertex -15.2424 6.27431 0
      vertex -15.25 6.09999 0
    endloop
  endfacet
  facet normal 0 0 -1
    outer loop
      vertex -14.3972 7.7383 0
      vertex -15.4 9.07127 0
      vertex -15.1524 9.20018 0
    endloop
  endfacet
  facet normal -0 0 -1
    outer loop
      vertex -15.25 -6.09999 0
      vertex -17 -6.29999 0
      vertex -15.25 6.09999 0
    endloop
  endfacet
  facet normal 0 0 -1
    outer loop
      vertex -16.7002 -7.65236 0
      vertex -15.0626 -6.94522 0
      vertex -16.5713 -7.89999 0
    endloop
  endfacet
  facet normal 0 0 -1
    outer loop
      vertex -17 6.29999 0
      vertex -15.25 6.09999 0
      vertex -17 -6.29999 0
    endloop
  endfacet
  facet normal -0 0 -1
    outer loop
      vertex -15.0626 -6.94522 0
      vertex -16.7002 -7.65236 0
      vertex -15.1294 -6.78403 0
    endloop
  endfacet
  facet normal 0 0 -1
    outer loop
      vertex -15.2424 6.27431 0
      vertex -17 6.29999 0
      vertex -16.9878 6.57889 0
    endloop
  endfacet
  facet normal 0 0 -1
    outer loop
      vertex -16.807 -7.39445 0
      vertex -15.1294 -6.78403 0
      vertex -16.7002 -7.65236 0
    endloop
  endfacet
  facet normal 0 0 -1
    outer loop
      vertex -14.5356 7.63208 0
      vertex -15.6354 8.92128 0
      vertex -15.4 9.07127 0
    endloop
  endfacet
  facet normal 0 0 -1
    outer loop
      vertex -16.8909 -7.1282 0
      vertex -15.1294 -6.78403 0
      vertex -16.807 -7.39445 0
    endloop
  endfacet
  facet normal 0 0 -1
    outer loop
      vertex -14.6642 7.51421 0
      vertex -15.8569 8.75133 0
      vertex -15.6354 8.92128 0
    endloop
  endfacet
  facet normal -0 0 -1
    outer loop
      vertex -15.1294 -6.78403 0
      vertex -16.8909 -7.1282 0
      vertex -15.1819 -6.61763 0
    endloop
  endfacet
  facet normal 0 0 -1
    outer loop
      vertex -14.7821 7.38556 0
      vertex -16.0627 8.56273 0
      vertex -15.8569 8.75133 0
    endloop
  endfacet
  facet normal 0 0 -1
    outer loop
      vertex -16.9514 -6.85567 0
      vertex -15.1819 -6.61763 0
      vertex -16.8909 -7.1282 0
    endloop
  endfacet
  facet normal 0 0 -1
    outer loop
      vertex -14.7821 7.38556 0
      vertex -16.2513 8.3569 0
      vertex -16.0627 8.56273 0
    endloop
  endfacet
  facet normal -0 0 -1
    outer loop
      vertex -15.1819 -6.61763 0
      vertex -16.9514 -6.85567 0
      vertex -15.2196 -6.44728 0
    endloop
  endfacet
  facet normal 0 0 -1
    outer loop
      vertex -14.8883 7.24715 0
      vertex -16.4213 8.13544 0
      vertex -16.2513 8.3569 0
    endloop
  endfacet
  facet normal 0 0 -1
    outer loop
      vertex -16.9878 -6.57889 0
      vertex -15.2196 -6.44728 0
      vertex -16.9514 -6.85567 0
    endloop
  endfacet
  facet normal 0 0 -1
    outer loop
      vertex -14.9821 7.09999 0
      vertex -16.5713 7.89999 0
      vertex -16.4213 8.13544 0
    endloop
  endfacet
  facet normal -0 0 -1
    outer loop
      vertex -15.2196 -6.44728 0
      vertex -16.9878 -6.57889 0
      vertex -15.2424 -6.27431 0
    endloop
  endfacet
  facet normal 0 0 -1
    outer loop
      vertex -15.0626 6.94522 0
      vertex -16.7002 7.65236 0
      vertex -16.5713 7.89999 0
    endloop
  endfacet
  facet normal 0 0 -1
    outer loop
      vertex -17 -6.29999 0
      vertex -15.2424 -6.27431 0
      vertex -16.9878 -6.57889 0
    endloop
  endfacet
  facet normal 0 0 -1
    outer loop
      vertex -15.1294 6.78403 0
      vertex -16.807 7.39445 0
      vertex -16.7002 7.65236 0
    endloop
  endfacet
  facet normal -0 0 -1
    outer loop
      vertex -15.2424 -6.27431 0
      vertex -17 -6.29999 0
      vertex -15.25 -6.09999 0
    endloop
  endfacet
  facet normal 0 0 -1
    outer loop
      vertex -15.1294 6.78403 0
      vertex -16.8909 7.1282 0
      vertex -16.807 7.39445 0
    endloop
  endfacet
  facet normal 0 0 -1
    outer loop
      vertex -15.1819 6.61763 0
      vertex -16.9514 6.85567 0
      vertex -16.8909 7.1282 0
    endloop
  endfacet
  facet normal 0 0 -1
    outer loop
      vertex -15.2196 6.44728 0
      vertex -16.9878 6.57889 0
      vertex -16.9514 6.85567 0
    endloop
  endfacet
  facet normal 0.991463 0.13039 0
    outer loop
      vertex 16.9878 6.57889 1.8
      vertex 16.9514 6.85567 0
      vertex 16.9514 6.85567 1.8
    endloop
  endfacet
  facet normal 0.991463 0.13039 0
    outer loop
      vertex 16.9514 6.85567 0
      vertex 16.9878 6.57889 1.8
      vertex 16.9878 6.57889 0
    endloop
  endfacet
  facet normal 0.300627 0.953742 -0
    outer loop
      vertex 14.8945 9.30701 0
      vertex 14.6282 9.39095 1.8
      vertex 14.8945 9.30701 1.8
    endloop
  endfacet
  facet normal 0.300627 0.953742 0
    outer loop
      vertex 14.6282 9.39095 1.8
      vertex 14.8945 9.30701 0
      vertex 14.6282 9.39095 0
    endloop
  endfacet
  facet normal 0.53736 -0.843353 0
    outer loop
      vertex 15.4 -9.07127 0
      vertex 15.6354 -8.92128 1.8
      vertex 15.4 -9.07127 1.8
    endloop
  endfacet
  facet normal 0.53736 -0.843353 0
    outer loop
      vertex 15.6354 -8.92128 1.8
      vertex 15.4 -9.07127 0
      vertex 15.6354 -8.92128 0
    endloop
  endfacet
  facet normal 0.216468 0.97629 -0
    outer loop
      vertex 14.6282 9.39095 0
      vertex 14.3557 9.45137 1.8
      vertex 14.6282 9.39095 1.8
    endloop
  endfacet
  facet normal 0.216468 0.97629 0
    outer loop
      vertex 14.3557 9.45137 1.8
      vertex 14.6282 9.39095 0
      vertex 14.3557 9.45137 0
    endloop
  endfacet
  facet normal 0.675627 -0.737243 0
    outer loop
      vertex 15.8569 -8.75133 0
      vertex 16.0627 -8.56273 1.8
      vertex 15.8569 -8.75133 1.8
    endloop
  endfacet
  facet normal 0.675627 -0.737243 0
    outer loop
      vertex 16.0627 -8.56273 1.8
      vertex 15.8569 -8.75133 0
      vertex 16.0627 -8.56273 0
    endloop
  endfacet
  facet normal -0.953767 -0.300548 0
    outer loop
      vertex -16.807 -7.39445 0
      vertex -16.8909 -7.1282 1.8
      vertex -16.8909 -7.1282 0
    endloop
  endfacet
  facet normal -0.953767 -0.300548 0
    outer loop
      vertex -16.8909 -7.1282 1.8
      vertex -16.807 -7.39445 0
      vertex -16.807 -7.39445 1.8
    endloop
  endfacet
  facet normal -0.923917 0.382592 0
    outer loop
      vertex -16.807 7.39445 0
      vertex -16.7002 7.65236 1.8
      vertex -16.7002 7.65236 0
    endloop
  endfacet
  facet normal -0.923917 0.382592 0
    outer loop
      vertex -16.7002 7.65236 1.8
      vertex -16.807 7.39445 0
      vertex -16.807 7.39445 1.8
    endloop
  endfacet
  facet normal 0.608732 -0.793376 0
    outer loop
      vertex 15.6354 -8.92128 0
      vertex 15.8569 -8.75133 1.8
      vertex 15.6354 -8.92128 1.8
    endloop
  endfacet
  facet normal 0.608732 -0.793376 0
    outer loop
      vertex 15.8569 -8.75133 1.8
      vertex 15.6354 -8.92128 0
      vertex 15.8569 -8.75133 0
    endloop
  endfacet
  facet normal -0.843389 -0.537304 0
    outer loop
      vertex -16.4213 -8.13544 0
      vertex -16.5713 -7.89999 1.8
      vertex -16.5713 -7.89999 0
    endloop
  endfacet
  facet normal -0.843389 -0.537304 0
    outer loop
      vertex -16.5713 -7.89999 1.8
      vertex -16.4213 -8.13544 0
      vertex -16.4213 -8.13544 1.8
    endloop
  endfacet
  facet normal -0.843389 0.537304 0
    outer loop
      vertex -16.5713 7.89999 0
      vertex -16.4213 8.13544 1.8
      vertex -16.4213 8.13544 0
    endloop
  endfacet
  facet normal -0.843389 0.537304 0
    outer loop
      vertex -16.4213 8.13544 1.8
      vertex -16.5713 7.89999 0
      vertex -16.5713 7.89999 1.8
    endloop
  endfacet
  facet normal 0.737292 -0.675574 0
    outer loop
      vertex 16.0627 -8.56273 1.8
      vertex 16.2513 -8.3569 0
      vertex 16.2513 -8.3569 1.8
    endloop
  endfacet
  facet normal 0.737292 -0.675574 0
    outer loop
      vertex 16.2513 -8.3569 0
      vertex 16.0627 -8.56273 1.8
      vertex 16.0627 -8.56273 0
    endloop
  endfacet
  facet normal -0.675627 -0.737243 0
    outer loop
      vertex -16.0627 -8.56273 0
      vertex -15.8569 -8.75133 1.8
      vertex -16.0627 -8.56273 1.8
    endloop
  endfacet
  facet normal -0.675627 -0.737243 -0
    outer loop
      vertex -15.8569 -8.75133 1.8
      vertex -16.0627 -8.56273 0
      vertex -15.8569 -8.75133 0
    endloop
  endfacet
  facet normal 0.675627 0.737243 -0
    outer loop
      vertex 16.0627 8.56273 0
      vertex 15.8569 8.75133 1.8
      vertex 16.0627 8.56273 1.8
    endloop
  endfacet
  facet normal 0.675627 0.737243 0
    outer loop
      vertex 15.8569 8.75133 1.8
      vertex 16.0627 8.56273 0
      vertex 15.8569 8.75133 0
    endloop
  endfacet
  facet normal 0.608732 0.793376 -0
    outer loop
      vertex 15.8569 8.75133 0
      vertex 15.6354 8.92128 1.8
      vertex 15.8569 8.75133 1.8
    endloop
  endfacet
  facet normal 0.608732 0.793376 0
    outer loop
      vertex 15.6354 8.92128 1.8
      vertex 15.8569 8.75133 0
      vertex 15.6354 8.92128 0
    endloop
  endfacet
  facet normal -0.608732 0.793376 0
    outer loop
      vertex -15.6354 8.92128 0
      vertex -15.8569 8.75133 1.8
      vertex -15.6354 8.92128 1.8
    endloop
  endfacet
  facet normal -0.608732 0.793376 0
    outer loop
      vertex -15.8569 8.75133 1.8
      vertex -15.6354 8.92128 0
      vertex -15.8569 8.75133 0
    endloop
  endfacet
  facet normal -0.675627 0.737243 0
    outer loop
      vertex -15.8569 8.75133 0
      vertex -16.0627 8.56273 1.8
      vertex -15.8569 8.75133 1.8
    endloop
  endfacet
  facet normal -0.675627 0.737243 0
    outer loop
      vertex -16.0627 8.56273 1.8
      vertex -15.8569 8.75133 0
      vertex -16.0627 8.56273 0
    endloop
  endfacet
  facet normal -0.923917 -0.382592 0
    outer loop
      vertex -16.7002 -7.65236 0
      vertex -16.807 -7.39445 1.8
      vertex -16.807 -7.39445 0
    endloop
  endfacet
  facet normal -0.923917 -0.382592 0
    outer loop
      vertex -16.807 -7.39445 1.8
      vertex -16.7002 -7.65236 0
      vertex -16.7002 -7.65236 1.8
    endloop
  endfacet
  facet normal 0.130521 0.991446 -0
    outer loop
      vertex 14.3557 9.45137 0
      vertex 14.0789 9.48781 1.8
      vertex 14.3557 9.45137 1.8
    endloop
  endfacet
  facet normal 0.130521 0.991446 0
    outer loop
      vertex 14.0789 9.48781 1.8
      vertex 14.3557 9.45137 0
      vertex 14.0789 9.48781 0
    endloop
  endfacet
  facet normal -0.887023 -0.461726 0
    outer loop
      vertex -16.5713 -7.89999 0
      vertex -16.7002 -7.65236 1.8
      vertex -16.7002 -7.65236 0
    endloop
  endfacet
  facet normal -0.887023 -0.461726 0
    outer loop
      vertex -16.7002 -7.65236 1.8
      vertex -16.5713 -7.89999 0
      vertex -16.5713 -7.89999 1.8
    endloop
  endfacet
  facet normal 0.887023 0.461726 0
    outer loop
      vertex 16.7002 7.65236 1.8
      vertex 16.5713 7.89999 0
      vertex 16.5713 7.89999 1.8
    endloop
  endfacet
  facet normal 0.887023 0.461726 0
    outer loop
      vertex 16.5713 7.89999 0
      vertex 16.7002 7.65236 1.8
      vertex 16.7002 7.65236 0
    endloop
  endfacet
  facet normal 0.976234 0.216718 0
    outer loop
      vertex 16.9514 6.85567 1.8
      vertex 16.8909 7.1282 0
      vertex 16.8909 7.1282 1.8
    endloop
  endfacet
  facet normal 0.976234 0.216718 0
    outer loop
      vertex 16.8909 7.1282 0
      vertex 16.9514 6.85567 1.8
      vertex 16.9514 6.85567 0
    endloop
  endfacet
  facet normal 0.793236 -0.608914 0
    outer loop
      vertex 16.2513 -8.3569 1.8
      vertex 16.4213 -8.13544 0
      vertex 16.4213 -8.13544 1.8
    endloop
  endfacet
  facet normal 0.793236 -0.608914 0
    outer loop
      vertex 16.4213 -8.13544 0
      vertex 16.2513 -8.3569 1.8
      vertex 16.2513 -8.3569 0
    endloop
  endfacet
  facet normal 0.793236 0.608914 0
    outer loop
      vertex 16.4213 8.13544 1.8
      vertex 16.2513 8.3569 0
      vertex 16.2513 8.3569 1.8
    endloop
  endfacet
  facet normal 0.793236 0.608914 0
    outer loop
      vertex 16.2513 8.3569 0
      vertex 16.4213 8.13544 1.8
      vertex 16.4213 8.13544 0
    endloop
  endfacet
  facet normal -0.737292 -0.675574 0
    outer loop
      vertex -16.0627 -8.56273 0
      vertex -16.2513 -8.3569 1.8
      vertex -16.2513 -8.3569 0
    endloop
  endfacet
  facet normal -0.737292 -0.675574 0
    outer loop
      vertex -16.2513 -8.3569 1.8
      vertex -16.0627 -8.56273 0
      vertex -16.0627 -8.56273 1.8
    endloop
  endfacet
  facet normal 0.843389 -0.537304 0
    outer loop
      vertex 16.4213 -8.13544 1.8
      vertex 16.5713 -7.89999 0
      vertex 16.5713 -7.89999 1.8
    endloop
  endfacet
  facet normal 0.843389 -0.537304 0
    outer loop
      vertex 16.5713 -7.89999 0
      vertex 16.4213 -8.13544 1.8
      vertex 16.4213 -8.13544 0
    endloop
  endfacet
  facet normal 0.675683 0.737192 -0
    outer loop
      vertex -14.5356 -7.63208 0
      vertex -14.6642 -7.51421 1.8
      vertex -14.5356 -7.63208 1.8
    endloop
  endfacet
  facet normal 0.675683 0.737192 0
    outer loop
      vertex -14.6642 -7.51421 1.8
      vertex -14.5356 -7.63208 0
      vertex -14.6642 -7.51421 0
    endloop
  endfacet
  facet normal -0.30078 0.953693 0
    outer loop
      vertex 13.934 -7.97937 0
      vertex 13.7676 -8.03185 1.8
      vertex 13.934 -7.97937 1.8
    endloop
  endfacet
  facet normal -0.30078 0.953693 0
    outer loop
      vertex 13.7676 -8.03185 1.8
      vertex 13.934 -7.97937 0
      vertex 13.7676 -8.03185 0
    endloop
  endfacet
  facet normal -0.991424 -0.130684 0
    outer loop
      vertex 15.2424 6.27431 0
      vertex 15.2196 6.44728 1.8
      vertex 15.2196 6.44728 0
    endloop
  endfacet
  facet normal -0.991424 -0.130684 0
    outer loop
      vertex 15.2196 6.44728 1.8
      vertex 15.2424 6.27431 0
      vertex 15.2424 6.27431 1.8
    endloop
  endfacet
  facet normal -0.953661 -0.300885 0
    outer loop
      vertex 15.1819 6.61763 0
      vertex 15.1294 6.78403 1.8
      vertex 15.1294 6.78403 0
    endloop
  endfacet
  facet normal -0.953661 -0.300885 0
    outer loop
      vertex 15.1294 6.78403 1.8
      vertex 15.1819 6.61763 0
      vertex 15.1819 6.61763 1.8
    endloop
  endfacet
  facet normal 0.537191 -0.843461 0
    outer loop
      vertex -14.3972 7.7383 0
      vertex -14.25 7.83205 1.8
      vertex -14.3972 7.7383 1.8
    endloop
  endfacet
  facet normal 0.537191 -0.843461 0
    outer loop
      vertex -14.25 7.83205 1.8
      vertex -14.3972 7.7383 0
      vertex -14.25 7.83205 0
    endloop
  endfacet
  facet normal 0.999051 0.0435566 0
    outer loop
      vertex -15.2424 -6.27431 1.8
      vertex -15.25 -6.09999 0
      vertex -15.25 -6.09999 1.8
    endloop
  endfacet
  facet normal 0.999051 0.0435566 0
    outer loop
      vertex -15.25 -6.09999 0
      vertex -15.2424 -6.27431 1.8
      vertex -15.2424 -6.27431 0
    endloop
  endfacet
  facet normal -0.216469 0.976289 0
    outer loop
      vertex 13.7676 -8.03185 0
      vertex 13.5973 -8.06961 1.8
      vertex 13.7676 -8.03185 1.8
    endloop
  endfacet
  facet normal -0.216469 0.976289 0
    outer loop
      vertex 13.5973 -8.06961 1.8
      vertex 13.7676 -8.03185 0
      vertex 13.5973 -8.06961 0
    endloop
  endfacet
  facet normal 0.976375 0.216081 0
    outer loop
      vertex -15.1819 -6.61763 1.8
      vertex -15.2196 -6.44728 0
      vertex -15.2196 -6.44728 1.8
    endloop
  endfacet
  facet normal 0.976375 0.216081 0
    outer loop
      vertex -15.2196 -6.44728 0
      vertex -15.1819 -6.61763 1.8
      vertex -15.1819 -6.61763 0
    endloop
  endfacet
  facet normal -0.675683 -0.737192 0
    outer loop
      vertex 14.5356 7.63208 0
      vertex 14.6642 7.51421 1.8
      vertex 14.5356 7.63208 1.8
    endloop
  endfacet
  facet normal -0.675683 -0.737192 -0
    outer loop
      vertex 14.6642 7.51421 1.8
      vertex 14.5356 7.63208 0
      vertex 14.6642 7.51421 0
    endloop
  endfacet
  facet normal 0.216469 -0.976289 0
    outer loop
      vertex -13.7676 8.03185 0
      vertex -13.5973 8.06961 1.8
      vertex -13.7676 8.03185 1.8
    endloop
  endfacet
  facet normal 0.216469 -0.976289 0
    outer loop
      vertex -13.5973 8.06961 1.8
      vertex -13.7676 8.03185 0
      vertex -13.5973 8.06961 0
    endloop
  endfacet
  facet normal 0.737237 -0.675634 0
    outer loop
      vertex -14.7821 7.38556 1.8
      vertex -14.6642 7.51421 0
      vertex -14.6642 7.51421 1.8
    endloop
  endfacet
  facet normal 0.737237 -0.675634 0
    outer loop
      vertex -14.6642 7.51421 0
      vertex -14.7821 7.38556 1.8
      vertex -14.7821 7.38556 0
    endloop
  endfacet
  facet normal -0.461641 0.887067 0
    outer loop
      vertex 14.25 -7.83205 0
      vertex 14.0952 -7.91261 1.8
      vertex 14.25 -7.83205 1.8
    endloop
  endfacet
  facet normal -0.461641 0.887067 0
    outer loop
      vertex 14.0952 -7.91261 1.8
      vertex 14.25 -7.83205 0
      vertex 14.0952 -7.91261 0
    endloop
  endfacet
  facet normal -0.130493 0.991449 0
    outer loop
      vertex 13.5973 -8.06961 0
      vertex 13.4243 -8.09238 1.8
      vertex 13.5973 -8.06961 1.8
    endloop
  endfacet
  facet normal -0.130493 0.991449 0
    outer loop
      vertex 13.4243 -8.09238 1.8
      vertex 13.5973 -8.06961 0
      vertex 13.4243 -8.09238 0
    endloop
  endfacet
  facet normal 0.130493 -0.991449 0
    outer loop
      vertex -13.5973 8.06961 0
      vertex -13.4243 8.09238 1.8
      vertex -13.5973 8.06961 1.8
    endloop
  endfacet
  facet normal 0.130493 -0.991449 0
    outer loop
      vertex -13.4243 8.09238 1.8
      vertex -13.5973 8.06961 0
      vertex -13.4243 8.09238 0
    endloop
  endfacet
  facet normal 0 1 -0
    outer loop
      vertex 13.25 -8.09999 0
      vertex -13.25 -8.09999 1.8
      vertex 13.25 -8.09999 1.8
    endloop
  endfacet
  facet normal 0 1 0
    outer loop
      vertex -13.25 -8.09999 1.8
      vertex 13.25 -8.09999 0
      vertex -13.25 -8.09999 0
    endloop
  endfacet
  facet normal -0.0436188 0.999048 0
    outer loop
      vertex 13.4243 -8.09238 0
      vertex 13.25 -8.09999 1.8
      vertex 13.4243 -8.09238 1.8
    endloop
  endfacet
  facet normal -0.0436188 0.999048 0
    outer loop
      vertex 13.25 -8.09999 1.8
      vertex 13.4243 -8.09238 0
      vertex 13.25 -8.09999 0
    endloop
  endfacet
  facet normal -0.843265 0.537498 0
    outer loop
      vertex 14.8883 -7.24715 0
      vertex 14.9821 -7.09999 1.8
      vertex 14.9821 -7.09999 0
    endloop
  endfacet
  facet normal -0.843265 0.537498 0
    outer loop
      vertex 14.9821 -7.09999 1.8
      vertex 14.8883 -7.24715 0
      vertex 14.8883 -7.24715 1.8
    endloop
  endfacet
  facet normal -0.608841 0.793293 0
    outer loop
      vertex 14.5356 -7.63208 0
      vertex 14.3972 -7.7383 1.8
      vertex 14.5356 -7.63208 1.8
    endloop
  endfacet
  facet normal -0.608841 0.793293 0
    outer loop
      vertex 14.3972 -7.7383 1.8
      vertex 14.5356 -7.63208 0
      vertex 14.3972 -7.7383 0
    endloop
  endfacet
  facet normal 0 -1 0
    outer loop
      vertex -13.25 8.09999 0
      vertex 13.25 8.09999 1.8
      vertex -13.25 8.09999 1.8
    endloop
  endfacet
  facet normal 0 -1 -0
    outer loop
      vertex 13.25 8.09999 1.8
      vertex -13.25 8.09999 0
      vertex 13.25 8.09999 0
    endloop
  endfacet
  facet normal 0.130493 0.991449 -0
    outer loop
      vertex -13.4243 -8.09238 0
      vertex -13.5973 -8.06961 1.8
      vertex -13.4243 -8.09238 1.8
    endloop
  endfacet
  facet normal 0.130493 0.991449 0
    outer loop
      vertex -13.5973 -8.06961 1.8
      vertex -13.4243 -8.09238 0
      vertex -13.5973 -8.06961 0
    endloop
  endfacet
  facet normal -0.793369 0.608741 0
    outer loop
      vertex 14.7821 -7.38556 0
      vertex 14.8883 -7.24715 1.8
      vertex 14.8883 -7.24715 0
    endloop
  endfacet
  facet normal -0.793369 0.608741 0
    outer loop
      vertex 14.8883 -7.24715 1.8
      vertex 14.7821 -7.38556 0
      vertex 14.7821 -7.38556 1.8
    endloop
  endfacet
  facet normal 0.461641 -0.887067 0
    outer loop
      vertex -14.25 7.83205 0
      vertex -14.0952 7.91261 1.8
      vertex -14.25 7.83205 1.8
    endloop
  endfacet
  facet normal 0.461641 -0.887067 0
    outer loop
      vertex -14.0952 7.91261 1.8
      vertex -14.25 7.83205 0
      vertex -14.0952 7.91261 0
    endloop
  endfacet
  facet normal -0.382629 -0.923902 0
    outer loop
      vertex 13.934 7.97937 0
      vertex 14.0952 7.91261 1.8
      vertex 13.934 7.97937 1.8
    endloop
  endfacet
  facet normal -0.382629 -0.923902 -0
    outer loop
      vertex 14.0952 7.91261 1.8
      vertex 13.934 7.97937 0
      vertex 14.0952 7.91261 0
    endloop
  endfacet
  facet normal 1 -0 0
    outer loop
      vertex -15.25 -6.09999 1.8
      vertex -15.25 6.09999 0
      vertex -15.25 6.09999 1.8
    endloop
  endfacet
  facet normal 1 0 0
    outer loop
      vertex -15.25 6.09999 0
      vertex -15.25 -6.09999 1.8
      vertex -15.25 -6.09999 0
    endloop
  endfacet
  facet normal -0.999051 -0.0435566 0
    outer loop
      vertex 15.25 6.09999 0
      vertex 15.2424 6.27431 1.8
      vertex 15.2424 6.27431 0
    endloop
  endfacet
  facet normal -0.999051 -0.0435566 0
    outer loop
      vertex 15.2424 6.27431 1.8
      vertex 15.25 6.09999 0
      vertex 15.25 6.09999 1.8
    endloop
  endfacet
  facet normal 0.0436188 -0.999048 0
    outer loop
      vertex -13.4243 8.09238 0
      vertex -13.25 8.09999 1.8
      vertex -13.4243 8.09238 1.8
    endloop
  endfacet
  facet normal 0.0436188 -0.999048 0
    outer loop
      vertex -13.25 8.09999 1.8
      vertex -13.4243 8.09238 0
      vertex -13.25 8.09999 0
    endloop
  endfacet
  facet normal -0.887171 -0.461441 0
    outer loop
      vertex 15.0626 6.94522 0
      vertex 14.9821 7.09999 1.8
      vertex 14.9821 7.09999 0
    endloop
  endfacet
  facet normal -0.887171 -0.461441 0
    outer loop
      vertex 14.9821 7.09999 1.8
      vertex 15.0626 6.94522 0
      vertex 15.0626 6.94522 1.8
    endloop
  endfacet
  facet normal 0.793369 0.608741 0
    outer loop
      vertex -14.7821 -7.38556 1.8
      vertex -14.8883 -7.24715 0
      vertex -14.8883 -7.24715 1.8
    endloop
  endfacet
  facet normal 0.793369 0.608741 0
    outer loop
      vertex -14.8883 -7.24715 0
      vertex -14.7821 -7.38556 1.8
      vertex -14.7821 -7.38556 0
    endloop
  endfacet
  facet normal -0.976375 0.216081 0
    outer loop
      vertex 15.1819 -6.61763 0
      vertex 15.2196 -6.44728 1.8
      vertex 15.2196 -6.44728 0
    endloop
  endfacet
  facet normal -0.976375 0.216081 0
    outer loop
      vertex 15.2196 -6.44728 1.8
      vertex 15.1819 -6.61763 0
      vertex 15.1819 -6.61763 1.8
    endloop
  endfacet
  facet normal 0.461641 0.887067 -0
    outer loop
      vertex -14.0952 -7.91261 0
      vertex -14.25 -7.83205 1.8
      vertex -14.0952 -7.91261 1.8
    endloop
  endfacet
  facet normal 0.461641 0.887067 0
    outer loop
      vertex -14.25 -7.83205 1.8
      vertex -14.0952 -7.91261 0
      vertex -14.25 -7.83205 0
    endloop
  endfacet
  facet normal -0.130493 -0.991449 0
    outer loop
      vertex 13.4243 8.09238 0
      vertex 13.5973 8.06961 1.8
      vertex 13.4243 8.09238 1.8
    endloop
  endfacet
  facet normal -0.130493 -0.991449 -0
    outer loop
      vertex 13.5973 8.06961 1.8
      vertex 13.4243 8.09238 0
      vertex 13.5973 8.06961 0
    endloop
  endfacet
  facet normal -0.608841 -0.793293 0
    outer loop
      vertex 14.3972 7.7383 0
      vertex 14.5356 7.63208 1.8
      vertex 14.3972 7.7383 1.8
    endloop
  endfacet
  facet normal -0.608841 -0.793293 -0
    outer loop
      vertex 14.5356 7.63208 1.8
      vertex 14.3972 7.7383 0
      vertex 14.5356 7.63208 0
    endloop
  endfacet
  facet normal -0.999051 0.0435566 0
    outer loop
      vertex 15.2424 -6.27431 0
      vertex 15.25 -6.09999 1.8
      vertex 15.25 -6.09999 0
    endloop
  endfacet
  facet normal -0.999051 0.0435566 0
    outer loop
      vertex 15.25 -6.09999 1.8
      vertex 15.2424 -6.27431 0
      vertex 15.2424 -6.27431 1.8
    endloop
  endfacet
  facet normal 0.216469 0.976289 -0
    outer loop
      vertex -13.5973 -8.06961 0
      vertex -13.7676 -8.03185 1.8
      vertex -13.5973 -8.06961 1.8
    endloop
  endfacet
  facet normal 0.216469 0.976289 0
    outer loop
      vertex -13.7676 -8.03185 1.8
      vertex -13.5973 -8.06961 0
      vertex -13.7676 -8.03185 0
    endloop
  endfacet
  facet normal 0.675683 -0.737192 0
    outer loop
      vertex -14.6642 7.51421 0
      vertex -14.5356 7.63208 1.8
      vertex -14.6642 7.51421 1.8
    endloop
  endfacet
  facet normal 0.675683 -0.737192 0
    outer loop
      vertex -14.5356 7.63208 1.8
      vertex -14.6642 7.51421 0
      vertex -14.5356 7.63208 0
    endloop
  endfacet
  facet normal 0.976375 -0.216081 0
    outer loop
      vertex -15.2196 6.44728 1.8
      vertex -15.1819 6.61763 0
      vertex -15.1819 6.61763 1.8
    endloop
  endfacet
  facet normal 0.976375 -0.216081 0
    outer loop
      vertex -15.1819 6.61763 0
      vertex -15.2196 6.44728 1.8
      vertex -15.2196 6.44728 0
    endloop
  endfacet
  facet normal 0.382629 0.923902 -0
    outer loop
      vertex -13.934 -7.97937 0
      vertex -14.0952 -7.91261 1.8
      vertex -13.934 -7.97937 1.8
    endloop
  endfacet
  facet normal 0.382629 0.923902 0
    outer loop
      vertex -14.0952 -7.91261 1.8
      vertex -13.934 -7.97937 0
      vertex -14.0952 -7.91261 0
    endloop
  endfacet
  facet normal 0.991424 -0.130684 0
    outer loop
      vertex -15.2424 6.27431 1.8
      vertex -15.2196 6.44728 0
      vertex -15.2196 6.44728 1.8
    endloop
  endfacet
  facet normal 0.991424 -0.130684 0
    outer loop
      vertex -15.2196 6.44728 0
      vertex -15.2424 6.27431 1.8
      vertex -15.2424 6.27431 0
    endloop
  endfacet
  facet normal 0.923813 0.382844 0
    outer loop
      vertex -15.0626 -6.94522 1.8
      vertex -15.1294 -6.78403 0
      vertex -15.1294 -6.78403 1.8
    endloop
  endfacet
  facet normal 0.923813 0.382844 0
    outer loop
      vertex -15.1294 -6.78403 0
      vertex -15.0626 -6.94522 1.8
      vertex -15.0626 -6.94522 0
    endloop
  endfacet
  facet normal -0.887171 0.461441 0
    outer loop
      vertex 14.9821 -7.09999 0
      vertex 15.0626 -6.94522 1.8
      vertex 15.0626 -6.94522 0
    endloop
  endfacet
  facet normal -0.887171 0.461441 0
    outer loop
      vertex 15.0626 -6.94522 1.8
      vertex 14.9821 -7.09999 0
      vertex 14.9821 -7.09999 1.8
    endloop
  endfacet
  facet normal -0.843265 -0.537498 0
    outer loop
      vertex 14.9821 7.09999 0
      vertex 14.8883 7.24715 1.8
      vertex 14.8883 7.24715 0
    endloop
  endfacet
  facet normal -0.843265 -0.537498 0
    outer loop
      vertex 14.8883 7.24715 1.8
      vertex 14.9821 7.09999 0
      vertex 14.9821 7.09999 1.8
    endloop
  endfacet
  facet normal -0.991424 0.130684 0
    outer loop
      vertex 15.2196 -6.44728 0
      vertex 15.2424 -6.27431 1.8
      vertex 15.2424 -6.27431 0
    endloop
  endfacet
  facet normal -0.991424 0.130684 0
    outer loop
      vertex 15.2424 -6.27431 1.8
      vertex 15.2196 -6.44728 0
      vertex 15.2196 -6.44728 1.8
    endloop
  endfacet
  facet normal 0.923813 -0.382844 0
    outer loop
      vertex -15.1294 6.78403 1.8
      vertex -15.0626 6.94522 0
      vertex -15.0626 6.94522 1.8
    endloop
  endfacet
  facet normal 0.923813 -0.382844 0
    outer loop
      vertex -15.0626 6.94522 0
      vertex -15.1294 6.78403 1.8
      vertex -15.1294 6.78403 0
    endloop
  endfacet
  facet normal -0.923813 -0.382844 0
    outer loop
      vertex 15.1294 6.78403 0
      vertex 15.0626 6.94522 1.8
      vertex 15.0626 6.94522 0
    endloop
  endfacet
  facet normal -0.923813 -0.382844 0
    outer loop
      vertex 15.0626 6.94522 1.8
      vertex 15.1294 6.78403 0
      vertex 15.1294 6.78403 1.8
    endloop
  endfacet
  facet normal -0.737237 -0.675634 0
    outer loop
      vertex 14.7821 7.38556 0
      vertex 14.6642 7.51421 1.8
      vertex 14.6642 7.51421 0
    endloop
  endfacet
  facet normal -0.737237 -0.675634 0
    outer loop
      vertex 14.6642 7.51421 1.8
      vertex 14.7821 7.38556 0
      vertex 14.7821 7.38556 1.8
    endloop
  endfacet
  facet normal 0.953661 -0.300885 0
    outer loop
      vertex -15.1819 6.61763 1.8
      vertex -15.1294 6.78403 0
      vertex -15.1294 6.78403 1.8
    endloop
  endfacet
  facet normal 0.953661 -0.300885 0
    outer loop
      vertex -15.1294 6.78403 0
      vertex -15.1819 6.61763 1.8
      vertex -15.1819 6.61763 0
    endloop
  endfacet
  facet normal -0.461641 -0.887067 0
    outer loop
      vertex 14.0952 7.91261 0
      vertex 14.25 7.83205 1.8
      vertex 14.0952 7.91261 1.8
    endloop
  endfacet
  facet normal -0.461641 -0.887067 -0
    outer loop
      vertex 14.25 7.83205 1.8
      vertex 14.0952 7.91261 0
      vertex 14.25 7.83205 0
    endloop
  endfacet
  facet normal 0.0436188 0.999048 -0
    outer loop
      vertex -13.25 -8.09999 0
      vertex -13.4243 -8.09238 1.8
      vertex -13.25 -8.09999 1.8
    endloop
  endfacet
  facet normal 0.0436188 0.999048 0
    outer loop
      vertex -13.4243 -8.09238 1.8
      vertex -13.25 -8.09999 0
      vertex -13.4243 -8.09238 0
    endloop
  endfacet
  facet normal 0.843265 -0.537498 0
    outer loop
      vertex -14.9821 7.09999 1.8
      vertex -14.8883 7.24715 0
      vertex -14.8883 7.24715 1.8
    endloop
  endfacet
  facet normal 0.843265 -0.537498 0
    outer loop
      vertex -14.8883 7.24715 0
      vertex -14.9821 7.09999 1.8
      vertex -14.9821 7.09999 0
    endloop
  endfacet
  facet normal -0.737237 0.675634 0
    outer loop
      vertex 14.6642 -7.51421 0
      vertex 14.7821 -7.38556 1.8
      vertex 14.7821 -7.38556 0
    endloop
  endfacet
  facet normal -0.737237 0.675634 0
    outer loop
      vertex 14.7821 -7.38556 1.8
      vertex 14.6642 -7.51421 0
      vertex 14.6642 -7.51421 1.8
    endloop
  endfacet
  facet normal -1 0 0
    outer loop
      vertex 15.25 -6.09999 0
      vertex 15.25 6.09999 1.8
      vertex 15.25 6.09999 0
    endloop
  endfacet
  facet normal -1 -0 0
    outer loop
      vertex 15.25 6.09999 1.8
      vertex 15.25 -6.09999 0
      vertex 15.25 -6.09999 1.8
    endloop
  endfacet
  facet normal -0.537191 -0.843461 0
    outer loop
      vertex 14.25 7.83205 0
      vertex 14.3972 7.7383 1.8
      vertex 14.25 7.83205 1.8
    endloop
  endfacet
  facet normal -0.537191 -0.843461 -0
    outer loop
      vertex 14.3972 7.7383 1.8
      vertex 14.25 7.83205 0
      vertex 14.3972 7.7383 0
    endloop
  endfacet
  facet normal 0.30078 -0.953693 0
    outer loop
      vertex -13.934 7.97937 0
      vertex -13.7676 8.03185 1.8
      vertex -13.934 7.97937 1.8
    endloop
  endfacet
  facet normal 0.30078 -0.953693 0
    outer loop
      vertex -13.7676 8.03185 1.8
      vertex -13.934 7.97937 0
      vertex -13.7676 8.03185 0
    endloop
  endfacet
  facet normal 0.991424 0.130684 0
    outer loop
      vertex -15.2196 -6.44728 1.8
      vertex -15.2424 -6.27431 0
      vertex -15.2424 -6.27431 1.8
    endloop
  endfacet
  facet normal 0.991424 0.130684 0
    outer loop
      vertex -15.2424 -6.27431 0
      vertex -15.2196 -6.44728 1.8
      vertex -15.2196 -6.44728 0
    endloop
  endfacet
  facet normal 0.537191 0.843461 -0
    outer loop
      vertex -14.25 -7.83205 0
      vertex -14.3972 -7.7383 1.8
      vertex -14.25 -7.83205 1.8
    endloop
  endfacet
  facet normal 0.537191 0.843461 0
    outer loop
      vertex -14.3972 -7.7383 1.8
      vertex -14.25 -7.83205 0
      vertex -14.3972 -7.7383 0
    endloop
  endfacet
  facet normal 0.608841 0.793293 -0
    outer loop
      vertex -14.3972 -7.7383 0
      vertex -14.5356 -7.63208 1.8
      vertex -14.3972 -7.7383 1.8
    endloop
  endfacet
  facet normal 0.608841 0.793293 0
    outer loop
      vertex -14.5356 -7.63208 1.8
      vertex -14.3972 -7.7383 0
      vertex -14.5356 -7.63208 0
    endloop
  endfacet
  facet normal 0.30078 0.953693 -0
    outer loop
      vertex -13.7676 -8.03185 0
      vertex -13.934 -7.97937 1.8
      vertex -13.7676 -8.03185 1.8
    endloop
  endfacet
  facet normal 0.30078 0.953693 0
    outer loop
      vertex -13.934 -7.97937 1.8
      vertex -13.7676 -8.03185 0
      vertex -13.934 -7.97937 0
    endloop
  endfacet
  facet normal 0.843265 0.537498 0
    outer loop
      vertex -14.8883 -7.24715 1.8
      vertex -14.9821 -7.09999 0
      vertex -14.9821 -7.09999 1.8
    endloop
  endfacet
  facet normal 0.843265 0.537498 0
    outer loop
      vertex -14.9821 -7.09999 0
      vertex -14.8883 -7.24715 1.8
      vertex -14.8883 -7.24715 0
    endloop
  endfacet
  facet normal 0.887171 0.461441 0
    outer loop
      vertex -14.9821 -7.09999 1.8
      vertex -15.0626 -6.94522 0
      vertex -15.0626 -6.94522 1.8
    endloop
  endfacet
  facet normal 0.887171 0.461441 0
    outer loop
      vertex -15.0626 -6.94522 0
      vertex -14.9821 -7.09999 1.8
      vertex -14.9821 -7.09999 0
    endloop
  endfacet
  facet normal -0.30078 -0.953693 0
    outer loop
      vertex 13.7676 8.03185 0
      vertex 13.934 7.97937 1.8
      vertex 13.7676 8.03185 1.8
    endloop
  endfacet
  facet normal -0.30078 -0.953693 -0
    outer loop
      vertex 13.934 7.97937 1.8
      vertex 13.7676 8.03185 0
      vertex 13.934 7.97937 0
    endloop
  endfacet
  facet normal -0.216469 -0.976289 0
    outer loop
      vertex 13.5973 8.06961 0
      vertex 13.7676 8.03185 1.8
      vertex 13.5973 8.06961 1.8
    endloop
  endfacet
  facet normal -0.216469 -0.976289 -0
    outer loop
      vertex 13.7676 8.03185 1.8
      vertex 13.5973 8.06961 0
      vertex 13.7676 8.03185 0
    endloop
  endfacet
  facet normal -0.923813 0.382844 0
    outer loop
      vertex 15.0626 -6.94522 0
      vertex 15.1294 -6.78403 1.8
      vertex 15.1294 -6.78403 0
    endloop
  endfacet
  facet normal -0.923813 0.382844 0
    outer loop
      vertex 15.1294 -6.78403 1.8
      vertex 15.0626 -6.94522 0
      vertex 15.0626 -6.94522 1.8
    endloop
  endfacet
  facet normal 0.887171 -0.461441 0
    outer loop
      vertex -15.0626 6.94522 1.8
      vertex -14.9821 7.09999 0
      vertex -14.9821 7.09999 1.8
    endloop
  endfacet
  facet normal 0.887171 -0.461441 0
    outer loop
      vertex -14.9821 7.09999 0
      vertex -15.0626 6.94522 1.8
      vertex -15.0626 6.94522 0
    endloop
  endfacet
  facet normal -0.976375 -0.216081 0
    outer loop
      vertex 15.2196 6.44728 0
      vertex 15.1819 6.61763 1.8
      vertex 15.1819 6.61763 0
    endloop
  endfacet
  facet normal -0.976375 -0.216081 0
    outer loop
      vertex 15.1819 6.61763 1.8
      vertex 15.2196 6.44728 0
      vertex 15.2196 6.44728 1.8
    endloop
  endfacet
  facet normal -0.0436188 -0.999048 0
    outer loop
      vertex 13.25 8.09999 0
      vertex 13.4243 8.09238 1.8
      vertex 13.25 8.09999 1.8
    endloop
  endfacet
  facet normal -0.0436188 -0.999048 -0
    outer loop
      vertex 13.4243 8.09238 1.8
      vertex 13.25 8.09999 0
      vertex 13.4243 8.09238 0
    endloop
  endfacet
  facet normal -0.537191 0.843461 0
    outer loop
      vertex 14.3972 -7.7383 0
      vertex 14.25 -7.83205 1.8
      vertex 14.3972 -7.7383 1.8
    endloop
  endfacet
  facet normal -0.537191 0.843461 0
    outer loop
      vertex 14.25 -7.83205 1.8
      vertex 14.3972 -7.7383 0
      vertex 14.25 -7.83205 0
    endloop
  endfacet
  facet normal -0.675683 0.737192 0
    outer loop
      vertex 14.6642 -7.51421 0
      vertex 14.5356 -7.63208 1.8
      vertex 14.6642 -7.51421 1.8
    endloop
  endfacet
  facet normal -0.675683 0.737192 0
    outer loop
      vertex 14.5356 -7.63208 1.8
      vertex 14.6642 -7.51421 0
      vertex 14.5356 -7.63208 0
    endloop
  endfacet
  facet normal 0.608841 -0.793293 0
    outer loop
      vertex -14.5356 7.63208 0
      vertex -14.3972 7.7383 1.8
      vertex -14.5356 7.63208 1.8
    endloop
  endfacet
  facet normal 0.608841 -0.793293 0
    outer loop
      vertex -14.3972 7.7383 1.8
      vertex -14.5356 7.63208 0
      vertex -14.3972 7.7383 0
    endloop
  endfacet
  facet normal 0.999051 -0.0435566 0
    outer loop
      vertex -15.25 6.09999 1.8
      vertex -15.2424 6.27431 0
      vertex -15.2424 6.27431 1.8
    endloop
  endfacet
  facet normal 0.999051 -0.0435566 0
    outer loop
      vertex -15.2424 6.27431 0
      vertex -15.25 6.09999 1.8
      vertex -15.25 6.09999 0
    endloop
  endfacet
  facet normal -0.793369 -0.608741 0
    outer loop
      vertex 14.8883 7.24715 0
      vertex 14.7821 7.38556 1.8
      vertex 14.7821 7.38556 0
    endloop
  endfacet
  facet normal -0.793369 -0.608741 0
    outer loop
      vertex 14.7821 7.38556 1.8
      vertex 14.8883 7.24715 0
      vertex 14.8883 7.24715 1.8
    endloop
  endfacet
  facet normal 0.793369 -0.608741 0
    outer loop
      vertex -14.8883 7.24715 1.8
      vertex -14.7821 7.38556 0
      vertex -14.7821 7.38556 1.8
    endloop
  endfacet
  facet normal 0.793369 -0.608741 0
    outer loop
      vertex -14.7821 7.38556 0
      vertex -14.8883 7.24715 1.8
      vertex -14.8883 7.24715 0
    endloop
  endfacet
  facet normal 0.382629 -0.923902 0
    outer loop
      vertex -14.0952 7.91261 0
      vertex -13.934 7.97937 1.8
      vertex -14.0952 7.91261 1.8
    endloop
  endfacet
  facet normal 0.382629 -0.923902 0
    outer loop
      vertex -13.934 7.97937 1.8
      vertex -14.0952 7.91261 0
      vertex -13.934 7.97937 0
    endloop
  endfacet
  facet normal -0.953661 0.300885 0
    outer loop
      vertex 15.1294 -6.78403 0
      vertex 15.1819 -6.61763 1.8
      vertex 15.1819 -6.61763 0
    endloop
  endfacet
  facet normal -0.953661 0.300885 0
    outer loop
      vertex 15.1819 -6.61763 1.8
      vertex 15.1294 -6.78403 0
      vertex 15.1294 -6.78403 1.8
    endloop
  endfacet
  facet normal 0.953661 0.300885 0
    outer loop
      vertex -15.1294 -6.78403 1.8
      vertex -15.1819 -6.61763 0
      vertex -15.1819 -6.61763 1.8
    endloop
  endfacet
  facet normal 0.953661 0.300885 0
    outer loop
      vertex -15.1819 -6.61763 0
      vertex -15.1294 -6.78403 1.8
      vertex -15.1294 -6.78403 0
    endloop
  endfacet
  facet normal 0.737237 0.675634 0
    outer loop
      vertex -14.6642 -7.51421 1.8
      vertex -14.7821 -7.38556 0
      vertex -14.7821 -7.38556 1.8
    endloop
  endfacet
  facet normal 0.737237 0.675634 0
    outer loop
      vertex -14.7821 -7.38556 0
      vertex -14.6642 -7.51421 1.8
      vertex -14.6642 -7.51421 0
    endloop
  endfacet
  facet normal -0.382629 0.923902 0
    outer loop
      vertex 14.0952 -7.91261 0
      vertex 13.934 -7.97937 1.8
      vertex 14.0952 -7.91261 1.8
    endloop
  endfacet
  facet normal -0.382629 0.923902 0
    outer loop
      vertex 13.934 -7.97937 1.8
      vertex 14.0952 -7.91261 0
      vertex 13.934 -7.97937 0
    endloop
  endfacet
endsolid OpenSCAD_Model
